<svg xmlns="http://www.w3.org/2000/svg" viewBox="0 0 151.43 903.59"><defs><style>.cls-1{fill:#fff;}</style></defs><g id="圖層_2" data-name="圖層 2"><g id="圖層_1-2" data-name="圖層 1"><polygon class="cls-1" points="0.5 0.5 0.5 1 150.43 1 150.43 150.43 1 150.43 1 0.5 0.5 0.5 0.5 1 0.5 0.5 0 0.5 0 151.43 151.43 151.43 151.43 0 0 0 0 0.5 0.5 0.5"/><polygon class="cls-1" points="0.5 150.93 0.5 151.43 150.43 151.43 150.43 300.86 1 300.86 1 150.93 0.5 150.93 0.5 151.43 0.5 150.93 0 150.93 0 301.86 151.43 301.86 151.43 150.43 0 150.43 0 150.93 0.5 150.93"/><polygon class="cls-1" points="0.5 301.36 0.5 301.86 150.43 301.86 150.43 451.29 1 451.29 1 301.36 0.5 301.36 0.5 301.86 0.5 301.36 0 301.36 0 452.29 151.43 452.29 151.43 300.86 0 300.86 0 301.36 0.5 301.36"/><polygon class="cls-1" points="0.5 451.79 0.5 452.29 150.43 452.29 150.43 601.72 1 601.72 1 451.79 0.5 451.79 0.5 452.29 0.5 451.79 0 451.79 0 602.72 151.43 602.72 151.43 451.29 0 451.29 0 451.79 0.5 451.79"/><polygon class="cls-1" points="0.5 602.22 0.5 602.72 150.43 602.72 150.43 752.15 1 752.15 1 602.22 0.5 602.22 0.5 602.72 0.5 602.22 0 602.22 0 753.15 151.43 753.15 151.43 601.72 0 601.72 0 602.22 0.5 602.22"/><polygon class="cls-1" points="0.5 752.66 0.5 753.16 150.43 753.16 150.43 902.59 1 902.59 1 752.66 0.5 752.66 0.5 753.16 0.5 752.66 0 752.66 0 903.59 151.43 903.59 151.43 752.16 0 752.16 0 752.66 0.5 752.66"/><path class="cls-1" d="M66.91,547.72c-7.08-1.51-28.95,2-35.5,3.55-.5.11-1,.23-1.54.37-4.2,1.09-8.38,2.16-13.15.21-.74-.3-4.94-2-4.93-4.52a3,3,0,0,1,.82-1.93,7.57,7.57,0,0,1,3.84-2.24c1.67-.37,2.43-.08,4.31.27,4.17.79,33.35-7.08,40-7.57,19.42-1.44,21,4.41,21.7,9.13.79,5.56-5.63,4.84-15.53,2.73"/><path class="cls-1" d="M61.46,563.48c-3.93-.22-22.74,1.33-27.83,3l-1.2.4c-3.26,1.18-6.48,2.78-10.29.93-.59-.29-3.94-1.91-4-4.42a3.56,3.56,0,0,1,.59-2,5.69,5.69,0,0,1,2.94-2.31c1.3-.41,1.91-.14,3.39.18,3.3.7,23.77-5.23,29-5.86,15.2-1.84,18.85,1.43,19.52,6.14.8,5.54-4.09,4.35-12.05,3.92"/><path class="cls-1" d="M65.9,478.34c-5-.33-29.29.41-35.92,1.67l-1.56.31c-4.26.92-8.47,2.21-13.27.47-.74-.27-5-1.8-4.94-4a2.5,2.5,0,0,1,.86-1.68A7.79,7.79,0,0,1,15,473.18a10.21,10.21,0,0,1,4.35.27c4.2.72,28.72-6.19,35.42-6.57,19.63-1.11,26.23,4.29,26.85,8.43.74,4.87-5.48,3.67-15.68,3"/><path class="cls-1" d="M142.85,501.89c0,.33-.08,26.45-.13,29.83,0,.09-.47,43.7-.52,48.24-.56,6.39-2.37,10-7.5,12.46-1.85.89-5.71,1-10.44-.15A44.53,44.53,0,0,1,104,580.77a2.57,2.57,0,0,1,2.11-4.36l8.73.85a7.84,7.84,0,0,0,8.66-7.56c.19-5.82,2.19-45.71,1.82-64.05-.16-7.89-3.74-12.74-11.58-11.88-1.51.17-19.3,7.44-24.93,5.36-.86-.32-7.8-1.26-6.86-6.69a3.65,3.65,0,0,1,1-2,9.17,9.17,0,0,1,4.57-2.3c2-.38,2.88-.07,5.09.32,3.53.62,32.26-19.26,44.15-9.84,7.23,5.72,6.16,19.82,6.11,23.29"/><path class="cls-1" d="M71.33,529.34c-4.2.3-.71-4.57-.67-9.58,0-2.55.21-10.07-12.4-7.93-7.25,1.23-32.77,3.74-39.21.5-5-2.51.3-10.84,5.75-5.64s22.05-4.71,34.1-5.38c13.22-.72,17.86,1,21.2,7.44,1.87,3.64,9.64,19.26-8.77,20.59"/><path class="cls-1" d="M79.21,522.9c-2.52-3.06-4.88-4.39-12-3.74-3.6.32-38.06,9-40.59,3-2-4.75.81-15.42-4.22-18.77-4.53-3-7.83-1.28-6.62,5.24.81,4.3.58,7,.56,12.69,0,4.5,3,9.85,8,10.62,10.93,1.66,62-.27,54.84-9"/><path class="cls-1" d="M67.94,487.07c-2.9-2.59-7.56-2.62-14.61-1.58-3.58.53-9.07,1.28-13.09,1.48-2.27.09-4.14-.08-5.3-.74-1.5-.84-4-3.47-3.58-6.26.87-5.36-.82-14.56-6-17.47-4.65-2.61-7.87-.76-6.36,5.41,1,4.07-.83,8.46.82,17.28.8,4.25,3.39,10,12.1,12.13,2.5.6,8.32-.34,14.23-.95,4.33-.65,33.26,1,21.79-9.3"/><path class="cls-1" d="M36.82,580.84H54.4c.09-9.22.64-62,.84-75.51a26.94,26.94,0,0,0-1.63-10.26H35.23a20.14,20.14,0,0,1,2.18,9.61c.2,26.84-.5,58.53-.59,76.16"/><path class="cls-1" d="M61.44,473.41c1.67-9.63-4.43-10.31.36-14.2,2.33-1.89,17,.55,13.73,17.27-2.23,11.34-2.39,9.27-2.39,9.27s-1.1,10-9,8.53c-5.45-1-5.58-7.12-5.58-7.12s-.75,7.31,2.9-13.75"/><path class="cls-1" d="M122.7,477.11c-.77.15-1.56,4.33-2.38,4.52.65-.26,1.46-4.44,2.38-4.52"/><path class="cls-1" d="M69,568.92c2-1.41,4.68-4.64,7.07-3.76,3.54,1.31-4.1,5.75,1.87,10.26,0,0-.21,11.31-6,1.4-1-1.75-2.91.52-6,3.2-14.43,12.55-53,16.22-56.72,6.69-2.1-5.39,2.87-11.74,10.6-11.08,7.37.63,35.68,2.82,49.22-6.71"/><path class="cls-1" d="M117.77,500.62c-1.11,56.19-16.56,91.74-29.63,93.52-9.39,1.27-18-19.84-17-20.19,1.18-.42,4.41.11,6.46.72,2.9.86,6.21.9,8.13-1.41,11.29-13.58,21.63-75.6,13.27-101-1.07-3.24-4.2-4.44-3.86-6.84.66-4.55,10.6-8.93,16-3.89s7.53,21.12,6.54,39.05"/><path class="cls-1" d="M71.39,356.73c-6.72-3.75-2-8.41,5.13-7,4.43.9,15.23-1.15,27.06-3.4,17.18-3.28,30.55,3.73,31,8.1.83,8-12.69.64-31.44,3.94-16.27,2.86-27.83.5-31.75-1.68"/><path class="cls-1" d="M109.61,391.85c-5.46-.34-43.34-1.1-62.89,3-4.62,1-9.18,2.34-14.39.49-.8-.28-5.38-2.75-5.35-5.08a2.65,2.65,0,0,1,.93-1.79,8.57,8.57,0,0,1,4.22-2c1.83-.33,2.66-.06,4.72.28,4.55.77,51.65-6.13,58.91-6.53,21.28-1.18,30.18,4.12,30.86,8.5.8,5.17-6,3.89-17,3.21"/><path class="cls-1" d="M127.7,396.36s-.38,8.92-12.53,8.53c-1.84-.06,1.69-1,.43-1.52-4.45-1.62-6-1.92-5.8-7.66.12-2.92,1.73-12.89,1.25-16.11a5.78,5.78,0,0,0-2.18-4.12c-1.6-1.08-7.68-1.58-15.81-.63-15.55,1.83-54.07,4.26-61.16.32-5.5-3.06-4.67-11.5,4.07-7.09,5.74,2.9,62.23-8,75.7-6.59,9,.91,17.16,5.37,16.53,23.38-.16,3.53-.5,11.49-.5,11.49"/><path class="cls-1" d="M127.57,400.28c-3-3.2-12.93-5.17-20.88-4.33-4,.42-53.72,3.52-58.24,3.54-2.55,0-4.65-.29-5.92-1.09-1.65-1-4.39-3.94-3.79-7.08,1.18-6,.88-23.95-5.17-26.89-5.31-2.58-11.32-1.24-7.37,4.84,3,4.56-.3,16.4,1.22,26.48.74,4.85,4.33,10.62,14,13.41,2.77.81,8.46.94,15.12.53,17.07-1.94,84.7,5.11,71-9.41"/><path class="cls-1" d="M120.81,341.66c-1.61,0,4.87-.73,3.69-.71-10.61.17.3-11.88-5.65-19.36-4.86-6.1-28-.1-44.27,1.18-10.89.85-45.35,2.49-51.65-.71-4.89-2.48-.36-13.88,5.85-8,7.32,6.92,63.77-2.19,88.78-6.11,17.08-2.67,18.48,14.39,18.8,18.5,0,8-5,15.2-15.55,15.2"/><path class="cls-1" d="M128.94,333.3a25.4,25.4,0,0,0-16-4.2c-3.53.34-73.12,11.28-80.89,4-2.52-2.37-4.08-5.52-3.5-8.28,1.14-5.3,2-10.17-2.93-13.35-4.41-2.86-7.66-1.18-6.51,5.06.78,4.12-1.25,2.37-.11,11.27.55,4.28,1.86,12.93,9.76,16.78,8.56,4.18,53.77.12,59.59-.18,4.26-.41,55.26-1.31,40.62-11.08"/><path class="cls-1" d="M59.45,375.1H77.19c.09-7.19.17-13.41.22-17.23.32-22.59-18.26-22.3-20.7-19.28-5,6.2,2.63,5.65,2.72,18.61q.07,9.3,0,17.9"/><path class="cls-1" d="M84.79,407.68H67.06c-.09,6.06-.17,20.51-.19,25.65,0,8.28,1.63,13.35,8.54,13.35,10,0,9.17-13.26,9.17-13.26s.09-11.94.21-21.73"/><path class="cls-1" d="M52,316.71a18.39,18.39,0,0,1,.31,3.32c0,7.2,0,14.87,0,22.35H64.94c.1-9.3.2-17.89.26-21.87a24.8,24.8,0,0,0-.24-3.8Z"/><path class="cls-1" d="M86,316.71a18.39,18.39,0,0,1,.31,3.32c.06,7.2,0,14.87,0,22.35H98.92c.1-9.3.2-17.89.25-21.87a24.87,24.87,0,0,0-.23-3.8Z"/><path class="cls-1" d="M116.86,430.16c-13.72-1.18-37.36-6.29-79.34.7-6,1-15.62,2.4-22.3.22-1-.33-6.24-3.67-6.2-6.42,0-1.08-.66-6.11,5.94-5.49,2.37.21,3.3,2.49,6.24,2.14,3.23-.38,66.44-6,83.14-7.63,23.9-2.3,37.72,7.46,38.83,10.94,2,6.37-4.11,7.44-26.31,5.54"/><path class="cls-1" d="M131,247.73s3.7,19.66-14.33,19.66c-2.74,0,2.44-1.7.55-2.38-6.69-2.28-14.23,5.17-14.17-3.73,0-4.52,4.57-57,3.69-62-.54-2.8-1.54-5-3.44-6.26-2.43-1.6-6.4-1.84-12.64-.52-12,2.57-55.93,10.94-66.66,5.19-8.32-4.47,3.56-25.45,14.12-15.28,11.41,11,76.81-30.31,92.65-.62,4.79,9,.23,65.95.23,65.95"/><path class="cls-1" d="M135.93,258c-5.19-8.28-14.16-7.26-25.71-6.17-5.87.55-53.78,17-61.84,6.35-1.7-2.25-4-8.13-3.06-12.7,1.89-8.82,3.25-59.22-14.13-69.22-7.79-4.49-26.6-1-12.27,12.82,6.93,6.69,1.8,54.32,3.7,69.11.91,7.12,5.93,20.08,20.52,20.65,7.44.28,42.82,1,70.48-1.66,20.63-2,35.25,1.45,22.31-19.18"/><path class="cls-1" d="M88.6,808.93c0,.33-1.31,6.18-1.35,9.6,0,.08.74,64.52.69,69.1-.56,6.45-2.39,10.15-7.57,12.59-1.87.88-7,1-11.76-.17a44.8,44.8,0,0,1-20.47-11.59,2.6,2.6,0,0,1,2.13-4.41l8.81.85a7.92,7.92,0,0,0,8.75-7.62c.26-8.14,1.68-71.59,1.06-76.72,0-.17-.64-3.07-.64-3.09-1.91-6.5-5.86-7.21-1.85-12.15,1.17-1.45,5.82-1.76,10.75-.32,7.9,2.31,10.4,7.8,10.22,19.84"/><path class="cls-1" d="M118.33,854.66c-14.06-1.48-36.26-.5-79.25,2.12C32.87,857.16,7,864.87,7,849.37c0-1.37,1.5-10.51,6.91-9.93,3.32.35,3.1,1.47,5.55,3.42,8.26,6.6,66.87-7.58,84-9.6,24.49-2.9,40.71,10,41.85,14.4,2.09,8-4.21,9.41-27,7"/><path class="cls-1" d="M108.32,818.2c-10.51-1-29.45,1.53-60.3,6.75-4.59.78-22,6.83-22.09-6.83,0-1.4.78-4.61,3.42-5.25s4.33-.3,7.15,1.87c4.37,3.34,48.52-12,61.1-14.74,18-4,29.19,8.09,30.28,12.54,2,8.15-2.55,7.21-19.56,5.66"/><path class="cls-1" d="M90.93,759.51c0-3.13,4.14-5.22,8.08-4.17s9.22,5.4,9.78,8.5c.52,2.82,1,8.37-5.73,11-24,9.38-59.84,31.84-71.47,15.82-2.44-3.35-1.37-8.85,1.72-10.91,2.34-1.56,5.18,0,8.51-.28,13.39-1,49.09-11.09,49.11-20"/><path class="cls-1" d="M14.85,624.16c-9.67-2.16,3-15.34,11.37-11.59C48.77,622.72,54.08,636.13,43,639.23c-13.63,3.79-9.45-10.89-28.11-15.07"/><path class="cls-1" d="M22.92,638.22c-7.9-3.66-20.42,8.39-11.2,10.59,5,1.19,8.87,4,11.81,6.17.34-.09,1.89-.37,2.26-.42,1.88-.25,1-.58,2.25.22a6.14,6.14,0,0,1,2.49,1.15,6.18,6.18,0,0,1,3.89,1.81,7.32,7.32,0,0,1,3.27,5.76l.56-.13c10.74-2.68,6-15.28-15.33-25.15"/><path class="cls-1" d="M120.12,644.11c-4.93-.47-27.51.57-34,2.38l-1.53.45c-4.17,1.33-8.3,3.18-13,.66-.72-.38-4.87-2.59-4.84-5.75a4.36,4.36,0,0,1,.83-2.43,7.24,7.24,0,0,1,3.82-2.78c1.66-.44,2.41,2.33,4.27,2.81,4.12,1,32.14-10.29,38.68-11,15.56-1.71,21.76,5.36,22.38,11.32.72,7-6.58,5.28-16.59,4.35"/><path class="cls-1" d="M123.55,681.72c-6.4-.48-37.25-.06-45.7,1.31l-2,.34c-5.43,1-15.66,2.85-22.11,2.51-10-.53-16.35-8.21-10.66-17.54.37-.61,6.94,3.35,11.18,3.32a52.77,52.77,0,0,1,8.06,1.08c5.33.94,42.62-10.71,51.14-11.1,19.93-.94,29.36,11.83,30.08,16.77.86,5.81-7,4.26-20,3.31"/><path class="cls-1" d="M90.23,671.92H108c.09-7.18-.23-37.51-.18-41.33.31-22.59-18.26-22.29-20.7-19.28-5,6.2,2.62,5.65,2.72,18.61,0,6.21.45,36.27.42,42"/><path class="cls-1" d="M91.49,683.09c-3.51-3.79-3.34-6.88-2-8.38,2-2.27,9.23-1.12,14.1,1.55,15,8.24-.88,49.72,6.14,52.39C133,737.56,128,708.38,127.86,706c-.23-5.64,18.82,21.28,15.73,29.87C139.22,748,89.86,750.88,92.77,726c.65-5.62,4.42-36.7-1.28-42.87"/><path class="cls-1" d="M77.62,681.71c-.57-3.29-2.29-5.57-1-7.63,2.37-3.87,13.53-4.19,16.79,2.39,7.58,15.3-23.19,74.39-40.46,68.08C48.52,743,42.58,732.77,50.8,727c7.85-5.48,29.33-30.88,26.82-45.31"/><path class="cls-1" d="M61.32,622c-1.24-2.82-3.28-4.49-2.61-6.6,1.28-4,11.19-6.71,15.54-1.54,10.13,12-6.63,68-23.46,66.18-4.27-.47-11.81-8.28-5.71-15.22,5.81-6.61,21.63-30.47,16.24-42.82"/><path class="cls-1" d="M46.69,681.9C44,679.15,37.84,676.35,33,675c-9-4,1.15-6,5.11-8,3.62-1.8,6.8-9.52,5.26-11.73-1.72-2.46-12.78-4.77-20.68-1,5.69,4.12,6.67,5.59,6.32,7.2-.55,2.48-8.55,3.33-11.18,6.46-8.08,9.62,6.74,9.23,13.4,16.46a10.78,10.78,0,0,1,2,2.9c5.45,17.12-15.8,34-21.35,41.24-6.2,8.11,2.71,16.14,7.46,16.34C38.07,745.76,58.78,694.4,46.69,681.9Z"/><path class="cls-1" d="M105.89,9.24c3.35-2.53,19.22-1.71,26.88,6.81,5.25,5.83,7.36,12.37,1.57,16-2.93,1.82-11.19-1.1-14.84-6.67-9.67-14.77-19.44-11.72-13.61-16.12"/><path class="cls-1" d="M37.67,117c5.29-7.61,11.8,8.09,5.66,14-16.61,15.92-29.78,15.73-28.39,5,1.7-13.16,5.81-.24,22.73-19"/><path class="cls-1" d="M69,27.73c-4.93-.32-28.68.41-35.17,1.68-.5.09-1,.19-1.53.31-4.17.92-8.29,2.21-13,.47-.72-.27-4.86-1.8-4.83-4a2.5,2.5,0,0,1,.83-1.69,7.69,7.69,0,0,1,3.82-1.93,10,10,0,0,1,4.26.27c4.11.73,26.55-5.79,33.11-6.17,19.22-1.1,27.26,3.89,27.87,8,.73,4.88-5.37,3.67-15.36,3"/><path class="cls-1" d="M70.08,105.73c-4.9-.47-28.53-.43-35,.63l-1.53.26c-4.17.8-8.31,2-12.93.09-.71-.29-4.78-1.93-4.69-4.12a2.51,2.51,0,0,1,.88-1.65,7.64,7.64,0,0,1,3.85-1.8,9.78,9.78,0,0,1,4.23.39c4.07.84,26.57-5,33.1-5.16,19.14-.54,27,4.66,27.47,8.79C86,108,80,106.65,70.08,105.73"/><path class="cls-1" d="M71.06,121.68c-5.35-.42-31.16,0-38.23,1.15l-1.67.3c-4.54.88-10.36,2.58-15.44.71-.78-.29-4.81-2.81-4.75-5.07a5.54,5.54,0,0,1,5.1-4.08c1.83,0,2.62.42,4.63.78,4.46.81,29.81-5.09,36.94-5.37,20.9-.83,29.55,4.44,30.15,8.71.71,5-5.89,3.69-16.73,2.87"/><path class="cls-1" d="M21.94,76.19c-6.42-2.48-2.14-6,4.61-5.2,4.19.5,13.5-1.31,24.54-3.34,16-3,28.79,1.65,29.34,4.79,1,5.73-11.9.89-29.41,3.91C35.83,79,25.68,77.63,21.94,76.19"/><path class="cls-1" d="M85.8,77.16s.25,11.55-10.35,11.74c-1.61,0,1.42-1,.3-1.41-4-1.27-5.53-4.9-5.58-10.13,0-2.65,1.09-8.38.52-11.29a5.32,5.32,0,0,0-2.09-3.64c-1.44-.92-3.78-1-7.43-.18-7,1.63-34.28,4.34-40.64,1.07-4.94-2.54-2.88-6.77,5.74-6.85,5.69,0,23.51-5.46,35.31-4.8,7.85.44,17.06,3,21.67,8.8,1.33,1.66,2.24,5.3,2.63,9.64,0,3.21-.08,7-.08,7"/><path class="cls-1" d="M79.25,82.6C76,80.53,72,79.7,65,80.48c-3.52.39-26.56,3.26-30.5,3.3a10.19,10.19,0,0,1-5.16-.93C27.91,82,25.51,78,26,75.26c1.05-5.32,1.33-14.61-3.64-17.71-4.46-2.78-7.67-1-6.42,5.18.85,4.1-1.12,7.61.18,16.49.62,4.27,3.73,9.34,12.18,11.75,2.42.7,7.38.79,13.19.4,4.26-.49,52.53.74,37.72-8.77"/><path class="cls-1" d="M42.31,44.62H55c.1-9.3.2-17.88.25-21.87.23-16.18-13.08-16-14.83-13.81-3.59,4.44,1.88,4,2,13.33.06,7.2,0,14.87,0,22.35"/><path class="cls-1" d="M41.94,63.16a19.37,19.37,0,0,1,.32,3.12c.18,7.2.28,14.87.35,22.35l12.67-.22c-.07-9.31-.12-17.89-.13-21.87a26.55,26.55,0,0,0-.27-3.61Z"/><path class="cls-1" d="M30.6,89.32a18.92,18.92,0,0,1,.27,3.13c.05,7.2,0,14.88-.05,22.35H43.5c.1-9.3.19-17.88.25-21.87a24,24,0,0,0-.21-3.61Z"/><path class="cls-1" d="M56.84,89.32a18.92,18.92,0,0,1,.27,3.13c.06,7.2,0,14.88,0,22.35H69.74c.1-9.3.19-17.88.25-21.87a24,24,0,0,0-.21-3.61Z"/><path class="cls-1" d="M125.58,99.74c-1.15,4.82-21.43,42.54-34.61,39.55-9.47-2.14-8.76-24-7.68-23.95,2.47.06,4.57,1.75,6.83,3.08,9.23-8.55,31-38.85,28.46-52.27-.62-3.28-2.38-5.54-1.16-7.61,2.31-3.92,13.46-4.42,16.82,2.11s-1.08,23.06-8.66,39.09"/><path class="cls-1" d="M131.49,142.05c-5.65,1.93-21.67-12.66-29.62-30.17-9.72-21.39-13-88-14.31-92.13-1-3.2-3.3-5-2.32-7.18,1.86-4.15,14.93-4.88,18.55,1.51,6,10.57,2.8,77.89,14.43,96,11.34,17.66,19.66,1.61,24.58,1.74,1.26,0-.64,26.6-11.31,30.24"/><path class="cls-1" d="M116.14,51.31c-13.72-1.28-37.37-8.17-79.35-.56-5.95,1.09-15.61,2.62-22.29.25-1-.37-6.25-2.69-6.2-5.68,0-1.18-.66-5.34,5.93-4.67,2.38.23,3.87,1.32,6.74.56,4.2-1.12,75.23-7.68,82.64-9.61,21-5.45,38,6.92,38.54,12.33,1.06,9.89-3.81,9.45-26,7.38"/><path class="cls-1" d="M44.21,118.15C48,116,67.81,120.1,76.29,128.48c5.67,5.59,5.74,12.43-2.2,15.13-5.83,2-13.13-7.91-17.28-13.14-11-13.88-10.9-12.5-8.7-12.42"/></g></g></svg>