<svg xmlns="http://www.w3.org/2000/svg" viewBox="0 0 431.43 467.63"><defs><style>.cls-1{fill:#fff;}</style></defs><g id="圖層_2" data-name="圖層 2"><g id="圖層_1-2" data-name="圖層 1"><path class="cls-1" d="M123.25,21.7c8.76-.51,35.4,19.31,38.86,43,2.37,16.23-1.54,30-15.8,29.62-7.2-.22-18.18-14.88-18.07-28.79.3-36.9-20.22-42.94-5-43.82"/><path class="cls-1" d="M73,27.25C79.69,9.9,99.88,37.38,90.73,51.79,66,90.74,40.25,96.68,37.82,75.1,34.84,48.67,60.18,60.71,73,27.25"/><path class="cls-1" d="M108.06,252.77c11.5-14.61,22.66,17.61,9.65,28.67-35.15,29.89-98.14,50.48-86.87,13.49,7.76-25.45,55.05-14,77.22-42.16"/><path class="cls-1" d="M270.93,148.36c-15.64-8.72-4.71-19.56,11.91-16.19,10.31,2.09,35.42-2.66,62.92-7.91,40-7.63,71,8.68,72.09,18.85,1.93,18.54-29.51,1.48-73.11,9.15-37.82,6.65-64.71,1.17-73.81-3.9"/><path class="cls-1" d="M78,231.78c-6.6,3.1-29.49-.11-47.95-18.2a4,4,0,0,1,3.28-6.81c4.35.44,9.14.88,13.64,1.32,7.07.74,13-3.62,13.26-10.77.4-12.6,3.09-31.42-2.66-36.4-2.28-2-6-2.28-11.86-.62-11.28,3.21-31.49,8-41.57.74-7.81-5.61-4.42-14.6,9.37-14.43,13.61.17,51.42-27.38,73.11,10.69,6.67,11.7,6.26,67.48-8.62,74.48"/><path class="cls-1" d="M181,205.83s1.48,23-15.46,23a14.73,14.73,0,0,1-6.49-1.27c-6.28-2.87-8-10.69-7.93-21.89,0-5.69,1.27-35.69.44-41.94-.5-3.52-1.45-6.34-3.23-7.88-2.28-2-6-2.31-11.88-.65-11.28,3.23-31.48,8-41.55.77-7.82-5.63-4.41-14.6,9.36-14.45,9.09.11,29-12.15,47.66-8.95,9.26,1.6,18.27,7,25.46,19.64,2.08,3.61,3.44,11.43,3.95,20.73-.06,6.87-.33,32.88-.33,32.88"/><path class="cls-1" d="M214.07,45.09C213.85,16,196.69,17.2,208,3.27c5.48-6.79,47.24-7.46,46.53,43.32-.48,34.42-1.94,178-1.94,178s1.95,29.8-20.62,29.8c-15.53,0-19.26-11.4-19.19-30,.14-40.09,1.81-115.56,1.33-179.23"/><path class="cls-1" d="M254.49,308.92c0,.74-.18,13.71-.27,21.29,0,.18-1.09,97.83-1.18,108-1.25,14.31-5.3,22.51-16.8,27.93-4.14,2-12.76,2.17-23.37-.38A99.36,99.36,0,0,1,167.47,440a5.76,5.76,0,0,1,4.71-9.77c6.22.62,13.09,1.24,19.55,1.89a17.56,17.56,0,0,0,19.4-16.91c.59-18.07,3.73-104.47,2.37-115.84,0-.39-1.43-6.81-1.43-6.84-4.23-14.43-13-16-4.11-27,2.6-3.22,13.33-5.06,23.84-.71,11.67,4.83,23.07,17.3,22.69,44"/><path class="cls-1" d="M276.1,327.67c-8-6-4.2-19.64,13.62-14.2,38.5,11.76,161.48,104,104.73,123.77-22.4,7.78-33.61-23.2-57.56-52.32-26.88-32.68-41.48-42.74-60.79-57.25"/><path class="cls-1" d="M303.61,32.88c-3.09-10.35-7-14.38-4.21-17.52,4.2-4.75,19.29-2.35,29.46,3.25,31.27,17.21-14.81,61.67,44.57,59.08,35.48-1.54,20.61-26.27,25.38-33.1,1.23-1.76,37,25.68,32.18,44.16-4.89,18.79-130.79,27-124.7-25,1.37-11.75,1.57-16.58-2.68-30.82"/><path class="cls-1" d="M124,336.41c2.66-6.47,2.15-12.42,6.66-14.65,8.51-4.22,28.6,7.65,27,22.91C154,380.18,42.77,436.19,19.24,405.8c-6-7.72-5.15-32.34,15.81-33.34,20-1,77.3-7.75,88.94-36"/><path class="cls-1" d="M406.46,335.83c-11.34,5.21-47.74-21.74-68-56.45-24.74-42.41-18.25-75.86-21.77-84.15-2.73-6.43-7.91-9.66-6.34-14.42,3-9,30-13.33,38.89-.81,14.7,20.7-5.17,57,22.84,92.15,27.32,34.31,41.23-.83,51.47-1.6,2.64-.18,4.33,55.45-17.09,65.28"/></g></g></svg>