<svg xmlns="http://www.w3.org/2000/svg" viewBox="0 0 903.48 151.43"><defs><style>.cls-1{fill:#fff;}</style></defs><g id="圖層_2" data-name="圖層 2"><g id="圖層_1-2" data-name="圖層 1"><polygon class="cls-1" points="150.93 150.93 150.93 150.43 1 150.43 1 1 150.43 1 150.43 150.93 150.93 150.93 150.93 150.43 150.93 150.93 151.43 150.93 151.43 0 0 0 0 151.43 151.43 151.43 151.43 150.93 150.93 150.93"/><polygon class="cls-1" points="301.36 150.93 301.36 150.43 151.43 150.43 151.43 1 300.86 1 300.86 150.93 301.36 150.93 301.36 150.43 301.36 150.93 301.86 150.93 301.86 0 150.43 0 150.43 151.43 301.86 151.43 301.86 150.93 301.36 150.93"/><polygon class="cls-1" points="451.79 150.93 451.79 150.43 301.86 150.43 301.86 1 451.29 1 451.29 150.93 451.79 150.93 451.79 150.43 451.79 150.93 452.29 150.93 452.29 0 300.86 0 300.86 151.43 452.29 151.43 452.29 150.93 451.79 150.93"/><polygon class="cls-1" points="602.19 150.93 602.19 150.43 452.26 150.43 452.26 1 601.69 1 601.69 150.93 602.19 150.93 602.19 150.43 602.19 150.93 602.69 150.93 602.69 0 451.26 0 451.26 151.43 602.69 151.43 602.69 150.93 602.19 150.93"/><polygon class="cls-1" points="752.59 150.93 752.59 150.43 602.66 150.43 602.66 1 752.09 1 752.09 150.93 752.59 150.93 752.59 150.43 752.59 150.93 753.09 150.93 753.09 0 601.66 0 601.66 151.43 753.09 151.43 753.09 150.93 752.59 150.93"/><polygon class="cls-1" points="902.98 150.93 902.98 150.43 753.05 150.43 753.05 1 902.48 1 902.48 150.93 902.98 150.93 902.98 150.43 902.98 150.93 903.48 150.93 903.48 0 752.05 0 752.05 151.43 903.48 151.43 903.48 150.93 902.98 150.93"/><path class="cls-1" d="M105.59,9.86c3.35-2.52,19.22-1.7,26.88,6.81,5.25,5.83,7.36,12.37,1.57,16-2.93,1.83-11.19-1.09-14.83-6.66-9.67-14.77-19.45-11.73-13.62-16.13"/><path class="cls-1" d="M37.38,118.38c5.29-7.61,11.79,8.09,5.65,14-16.61,15.92-29.77,15.74-28.39,5,1.7-13.15,5.81-.23,22.74-19"/><path class="cls-1" d="M372,57.12c-6.72-3.75-2-8.41,5.13-7,4.43.89,15.23-1.15,27.06-3.41,17.18-3.28,30.55,3.74,31,8.11.83,8-12.69.64-31.44,3.93-16.27,2.87-27.83.51-31.75-1.67"/><path class="cls-1" d="M68.65,28.36C63.72,28,40,28.77,33.48,30L32,30.34c-4.17.92-8.29,2.21-13,.47-.72-.27-4.86-1.8-4.83-4A2.5,2.5,0,0,1,15,25.13a7.65,7.65,0,0,1,3.82-1.93,9.81,9.81,0,0,1,4.26.27c4.11.72,26.55-5.79,33.11-6.17,19.22-1.11,27.26,3.89,27.87,8,.73,4.88-5.37,3.68-15.36,3"/><path class="cls-1" d="M69.78,106.35c-4.9-.47-28.53-.43-35,.63l-1.53.27c-4.17.79-8.3,2-12.93.08-.71-.29-4.78-1.93-4.69-4.11a2.56,2.56,0,0,1,.88-1.65,7.7,7.7,0,0,1,3.85-1.81,9.93,9.93,0,0,1,4.23.39c4.07.84,26.57-5,33.1-5.16,19.14-.53,27,4.67,27.47,8.8.57,4.87-5.45,3.49-15.36,2.56"/><path class="cls-1" d="M517.88,96.54c-7.08-1.51-28.95,2-35.5,3.54l-1.54.37c-4.21,1.09-8.38,2.17-13.16.22-.73-.3-4.93-2-4.93-4.52a3.09,3.09,0,0,1,.83-1.94A7.44,7.44,0,0,1,467.42,92c1.67-.37,2.43-.09,4.31.27,4.17.78,33.35-7.09,40-7.58,19.43-1.44,21.05,4.42,21.71,9.14.79,5.56-5.64,4.84-15.53,2.73"/><path class="cls-1" d="M512.43,112.3c-3.93-.23-22.74,1.33-27.84,3-.38.12-.78.25-1.19.4-3.27,1.18-6.48,2.77-10.29.92-.59-.28-3.94-1.9-4-4.41a3.41,3.41,0,0,1,.59-2,5.72,5.72,0,0,1,2.94-2.32c1.3-.4,1.9-.13,3.39.18,3.3.7,23.76-5.23,28.95-5.86,15.2-1.84,18.85,1.44,19.52,6.14.79,5.55-4.1,4.35-12.05,3.93"/><path class="cls-1" d="M70.76,122.3c-5.35-.41-31.16,0-38.23,1.16-.54.09-1.1.18-1.67.29-4.54.88-10.36,2.58-15.44.71-.78-.29-4.81-2.81-4.75-5.07a5.56,5.56,0,0,1,5.11-4.08c1.83,0,2.61.42,4.63.79,4.45.81,29.8-5.09,36.93-5.38,20.9-.82,29.55,4.44,30.15,8.71.71,5-5.89,3.69-16.73,2.87"/><path class="cls-1" d="M516.86,27.15c-5-.32-29.29.41-35.92,1.67l-1.56.32c-4.25.92-8.46,2.21-13.27.46-.73-.27-5-1.8-4.93-4a2.49,2.49,0,0,1,.85-1.69,7.91,7.91,0,0,1,3.9-1.93,10.38,10.38,0,0,1,4.35.27c4.2.73,28.72-6.19,35.42-6.57,19.62-1.1,26.23,4.29,26.85,8.43.74,4.88-5.49,3.67-15.69,3"/><path class="cls-1" d="M593.82,50.71c0,.33-.09,26.45-.13,29.83,0,.08-.48,43.7-.52,48.24-.56,6.39-2.37,10-7.5,12.46-1.85.88-5.71,1-10.44-.16A44.36,44.36,0,0,1,555,129.59a2.58,2.58,0,0,1,2.11-4.37l8.73.86a7.86,7.86,0,0,0,8.66-7.57c.19-5.81,2.18-45.7,1.82-64-.16-7.89-3.74-12.75-11.58-11.89-1.52.17-19.3,7.44-24.93,5.36-.87-.32-7.81-1.26-6.86-6.68a3.65,3.65,0,0,1,1-2,9.25,9.25,0,0,1,4.56-2.29c2-.38,2.88-.08,5.09.31,3.53.62,32.27-19.25,44.15-9.84,7.23,5.72,6.16,19.83,6.12,23.3"/><path class="cls-1" d="M410.2,92.24c-5.46-.34-43.34-1.1-62.89,3-4.62,1-9.18,2.34-14.39.49-.8-.28-5.38-2.76-5.35-5.08a2.65,2.65,0,0,1,.93-1.79,8.57,8.57,0,0,1,4.22-2c1.83-.34,2.66-.06,4.72.28,4.55.77,51.65-6.14,58.91-6.54,21.28-1.17,30.18,4.12,30.86,8.51.8,5.16-5.95,3.89-17,3.21"/><path class="cls-1" d="M21.64,76.81c-6.42-2.47-2.14-6,4.61-5.19,4.19.49,13.5-1.32,24.54-3.35,16.05-3,28.79,1.65,29.35,4.79,1,5.73-11.91.9-29.41,3.92-15.19,2.61-25.35,1.28-29.09-.17"/><path class="cls-1" d="M85.5,77.78s.25,11.55-10.35,11.74c-1.61,0,1.42-1,.3-1.4-4-1.28-5.53-4.9-5.58-10.14,0-2.65,1.09-8.37.52-11.28a5.34,5.34,0,0,0-2.09-3.65c-1.44-.91-3.78-1-7.43-.17-7,1.63-34.28,4.33-40.64,1.07-4.94-2.55-2.88-6.78,5.74-6.86,5.69,0,23.51-5.45,35.31-4.79,7.85.43,17.06,3,21.67,8.79,1.33,1.67,2.24,5.31,2.63,9.65,0,3.21-.08,7-.08,7"/><path class="cls-1" d="M79,83.23c-3.22-2.08-7.3-2.91-14.24-2.13-3.52.39-26.55,3.27-30.5,3.31a10.19,10.19,0,0,1-5.16-.93c-1.44-.9-3.84-4.83-3.31-7.59,1.05-5.32,1.33-14.61-3.64-17.71-4.46-2.78-7.67-1-6.42,5.17.85,4.11-1.12,7.62.18,16.49.63,4.28,3.74,9.34,12.19,11.75,2.41.7,7.38.79,13.18.4,4.26-.49,52.53.74,37.72-8.76"/><path class="cls-1" d="M522.3,78.15c-4.21.3-.71-4.57-.68-9.58,0-2.55.22-10.07-12.4-7.93-7.25,1.23-32.77,3.74-39.2.51-5-2.52.3-10.84,5.74-5.64s22.05-4.72,34.1-5.38c13.22-.73,17.87.95,21.2,7.44,1.88,3.63,9.65,19.25-8.76,20.58"/><path class="cls-1" d="M530.17,71.72c-2.51-3.07-4.87-4.4-12-3.75-3.6.33-38.06,9-40.59,3-2-4.75.81-15.43-4.23-18.77-4.52-3-7.82-1.28-6.62,5.24.81,4.3.59,6.94.56,12.68,0,4.5,3,9.85,8,10.62,10.93,1.66,62-.26,54.83-9"/><path class="cls-1" d="M518.91,35.89c-2.9-2.6-7.56-2.62-14.62-1.59-3.57.53-9.06,1.29-13.08,1.48-2.28.09-4.15-.08-5.3-.74-1.5-.84-4-3.47-3.59-6.25.88-5.36-.81-14.57-6-17.47-4.66-2.61-7.87-.76-6.36,5.41,1,4.07-.83,8.45.82,17.28.79,4.24,3.39,10,12.1,12.12,2.49.61,8.32-.33,14.23-.94,4.33-.65,33.25,1,21.79-9.3"/><path class="cls-1" d="M428.29,96.74s-.38,8.93-12.53,8.54c-1.84-.06,1.69-1,.43-1.52-4.45-1.62-6.05-1.92-5.8-7.66.12-2.92,1.73-12.89,1.25-16.12a5.78,5.78,0,0,0-2.18-4.11c-1.6-1.08-7.68-1.58-15.81-.63-15.55,1.82-54.07,4.26-61.16.32-5.5-3.06-4.67-11.5,4.07-7.09,5.74,2.9,62.23-8,75.7-6.6,9,.92,17.16,5.38,16.53,23.39-.16,3.52-.5,11.48-.5,11.48"/><path class="cls-1" d="M428.16,100.67c-3-3.2-12.93-5.17-20.88-4.34-4,.43-53.72,3.53-58.24,3.55-2.55,0-4.65-.29-5.92-1.09-1.65-1-4.39-4-3.79-7.08,1.18-6,.88-24-5.17-26.89-5.31-2.59-11.32-1.25-7.37,4.84,3,4.56-.3,16.4,1.22,26.48.74,4.85,4.33,10.62,14,13.41,2.77.8,8.46.94,15.12.53,17.07-1.94,84.7,5.11,71-9.41"/><path class="cls-1" d="M421.4,42c-1.61,0,4.87-.72,3.69-.7-10.61.17.3-11.88-5.65-19.36-4.86-6.1-28-.1-44.27,1.18-10.89.85-45.35,2.49-51.65-.71-4.9-2.49-.36-13.88,5.85-8,7.32,6.93,63.77-2.18,88.78-6.1,17.08-2.68,18.48,14.39,18.8,18.5C437,34.8,432,42,421.4,42"/><path class="cls-1" d="M429.53,33.69a25.4,25.4,0,0,0-16-4.2c-3.53.33-73.12,11.27-80.89,4-2.52-2.37-4.08-5.53-3.5-8.28,1.14-5.3,2-10.17-2.93-13.35-4.41-2.86-7.66-1.19-6.51,5.06.78,4.12-1.25,2.37-.11,11.27.55,4.28,1.86,12.93,9.76,16.78,8.56,4.18,53.77.11,59.59-.18,4.26-.41,55.26-1.32,40.62-11.08"/><path class="cls-1" d="M487.79,129.65h17.57c.1-9.22.65-61.95.85-75.51a26.85,26.85,0,0,0-1.63-10.25H486.19a19.83,19.83,0,0,1,2.18,9.6c.21,26.85-.49,58.54-.58,76.16"/><path class="cls-1" d="M512.4,22.23c1.68-9.64-4.42-10.32.37-14.2,2.33-1.89,17,.55,13.73,17.27-2.24,11.33-2.39,9.26-2.39,9.26s-1.1,10-9,8.53c-5.45-1-5.59-7.11-5.59-7.11s-.75,7.3,2.9-13.75"/><path class="cls-1" d="M360,75.49h17.74c.09-7.19.17-13.41.22-17.23C378.32,35.67,359.74,36,357.3,39c-5,6.2,2.63,5.64,2.72,18.61q.08,9.3,0,17.9"/><path class="cls-1" d="M385.38,108.06H367.65c-.09,6.06-.17,20.52-.19,25.65,0,8.28,1.63,13.36,8.54,13.36,10,0,9.17-13.26,9.17-13.26s.09-11.94.21-21.73"/><path class="cls-1" d="M42,45.25H54.68c.1-9.31.2-17.89.26-21.88.22-16.18-13.09-16-14.83-13.8C36.52,14,42,13.61,42.05,22.9c.06,7.2,0,14.87,0,22.35"/><path class="cls-1" d="M41.64,63.78A19.5,19.5,0,0,1,42,66.91c.18,7.2.28,14.87.35,22.35L55,89c-.06-9.3-.12-17.88-.13-21.87a26.27,26.27,0,0,0-.27-3.6Z"/><path class="cls-1" d="M30.3,90a18.72,18.72,0,0,1,.27,3.13c.05,7.2,0,14.87-.05,22.35H43.2c.1-9.31.19-17.89.25-21.87A23.87,23.87,0,0,0,43.24,90Z"/><path class="cls-1" d="M56.54,90a18.72,18.72,0,0,1,.27,3.13c.06,7.2,0,14.87,0,22.35H69.44c.1-9.31.2-17.89.25-21.87A23.87,23.87,0,0,0,69.48,90Z"/><path class="cls-1" d="M352.6,17.09a18.51,18.51,0,0,1,.31,3.33c0,7.2,0,14.87-.05,22.35h12.67c.1-9.31.2-17.89.26-21.87a26.44,26.44,0,0,0-.23-3.81Z"/><path class="cls-1" d="M386.57,17.09a18.51,18.51,0,0,1,.31,3.33c.06,7.2,0,14.87,0,22.35h12.67c.1-9.31.2-17.89.25-21.87a25.08,25.08,0,0,0-.23-3.81Z"/><path class="cls-1" d="M839,58.63c0,.33-1.29,6.08-1.33,9.45,0,.08.72,63.48.68,68-.55,6.34-2.35,10-7.45,12.39-1.84.86-6.86.95-11.57-.18a44,44,0,0,1-20.14-11.4,2.56,2.56,0,0,1,2.09-4.34c2.76.28,5.81.56,8.67.84a7.79,7.79,0,0,0,8.61-7.5c.26-8,1.65-70.44,1-75.48,0-.17-.63-3-.63-3-1.88-6.4-5.77-7.09-1.83-12,1.16-1.43,5.73-1.72,10.58-.31,7.77,2.27,10.23,7.67,10.06,19.52"/><path class="cls-1" d="M573.66,25.93c-.76.14-1.56,4.33-2.38,4.51.65-.25,1.46-4.44,2.38-4.51"/><path class="cls-1" d="M520,117.74c2-1.41,4.68-4.65,7.07-3.76,3.54,1.31-4.11,5.75,1.87,10.25,0,0-.21,11.31-6.06,1.41-1-1.76-2.9.52-6,3.2-14.44,12.55-53,16.22-56.72,6.69-2.1-5.39,2.86-11.74,10.6-11.08,7.37.63,35.68,2.81,49.22-6.71"/><path class="cls-1" d="M125.28,100.36c-1.15,4.82-21.43,42.55-34.61,39.56-9.47-2.15-8.75-24-7.68-23.95,2.47,0,4.57,1.74,6.83,3.07,9.23-8.54,31-38.84,28.46-52.26-.62-3.29-2.38-5.54-1.16-7.61,2.31-3.93,13.46-4.42,16.82,2.11s-1.08,23.06-8.66,39.08"/><path class="cls-1" d="M568.74,49.43c-1.11,56.19-16.57,91.75-29.63,93.52-9.39,1.28-18-19.83-17-20.18,1.18-.43,4.4.1,6.45.71,2.9.86,6.21.9,8.13-1.41C548,108.49,558.36,46.48,550,21.12c-1.07-3.25-4.2-4.45-3.85-6.84.65-4.55,10.6-8.93,16.05-3.89s7.53,21.12,6.54,39"/><path class="cls-1" d="M131.19,141.87c-5.65,1.93-21.67-12.66-29.62-30.17-9.72-21.39-13-88-14.31-92.13-1-3.19-3.3-5-2.32-7.18,1.87-4.15,14.93-4.88,18.55,1.51,6,10.57,2.81,77.89,14.43,96,11.34,17.66,19.66,1.61,24.58,1.74,1.26,0-.64,26.6-11.31,30.24"/><path class="cls-1" d="M115.84,51.93c-13.72-1.28-37.36-8.17-79.34-.55-6,1.08-15.62,2.62-22.3.25-1-.37-6.24-2.7-6.2-5.69,0-1.17-.66-5.34,5.93-4.67,2.38.24,3.87,1.32,6.74.56,4.21-1.12,75.24-7.68,82.65-9.6,21-5.46,38,6.91,38.53,12.33,1.06,9.89-3.81,9.45-26,7.37"/><path class="cls-1" d="M417.45,130.55c-13.72-1.18-37.36-6.3-79.34.7-6,1-15.62,2.4-22.3.22-1-.33-6.24-3.67-6.2-6.42,0-1.08-.66-6.11,5.94-5.5,2.37.22,3.3,2.49,6.24,2.15,3.23-.38,66.44-6,83.14-7.64,23.9-2.29,37.72,7.46,38.83,11,2,6.36-4.11,7.44-26.31,5.54"/><path class="cls-1" d="M869.22,102.14c-13.72-1.45-35.39-.49-77.34,2.07-6,.37-31.31,7.9-31.31-7.23,0-1.33,1.46-10.26,6.74-9.69,3.24.34,3,1.43,5.42,3.34,8.06,6.44,65.25-7.4,81.95-9.37,23.9-2.83,39.73,9.77,40.84,14.06,2,7.84-4.1,9.17-26.3,6.82"/><path class="cls-1" d="M860.22,65.49c-10.5-1-29.45,1.54-60.3,6.76-4.59.77-22,6.82-22.09-6.84,0-1.4.78-4.6,3.42-5.25s4.33-.29,7.16,1.87c4.37,3.34,48.51-12,61.09-14.74,18-3.95,29.19,8.09,30.28,12.55,2,8.14-2.55,7.2-19.56,5.65"/><path class="cls-1" d="M280.24,99.77s3.7,19.66-14.34,19.66c-2.74,0,2.44-1.7.55-2.38-6.68-2.28-14.23,5.17-14.17-3.73,0-4.52,4.58-57,3.69-62-.53-2.8-1.54-5-3.43-6.26-2.43-1.6-6.4-1.84-12.65-.52-12,2.57-55.93,10.94-66.65,5.19-8.33-4.47,3.55-25.45,14.11-15.28,11.41,11,76.82-30.31,92.66-.62,4.79,9,.23,65.95.23,65.95"/><path class="cls-1" d="M285.18,110c-5.19-8.28-14.16-7.26-25.71-6.17-5.86.55-53.78,17-61.84,6.36-1.7-2.26-4-8.13-3.06-12.71,1.89-8.81,3.25-59.21-14.12-69.22-7.79-4.48-26.61-1-12.28,12.82,6.93,6.69,1.8,54.32,3.7,69.11.92,7.12,5.93,20.08,20.52,20.65,7.44.29,42.83,1,70.49-1.66,20.62-2,35.24,1.45,22.3-19.18"/><path class="cls-1" d="M842.83,6c0-3.13,4.15-5.22,8.08-4.17s9.22,5.4,9.79,8.5c.51,2.81,1,8.37-5.74,11-24,9.38-59.84,31.84-71.47,15.82-2.43-3.35-1.37-8.86,1.72-10.92,2.35-1.56,5.19,0,8.51-.27,13.39-1.05,49.09-11.09,49.11-20"/><path class="cls-1" d="M615.81,22.21c-9.68-2.17,3-15.34,11.37-11.59C649.72,20.76,655,34.17,643.91,37.27c-13.62,3.79-9.45-10.89-28.1-15.06"/><path class="cls-1" d="M623.87,36.26c-7.9-3.65-20.41,8.4-11.2,10.59,5,1.2,8.87,3.95,11.82,6.18.33-.09,1.88-.38,2.26-.43,1.87-.25,1-.58,2.24.23A6.14,6.14,0,0,1,631.48,54a6.17,6.17,0,0,1,3.89,1.8,7.31,7.31,0,0,1,3.27,5.76l.57-.12c10.73-2.68,6-15.28-15.34-25.16"/><path class="cls-1" d="M718.26,43c-4.93-.47-24.7-.23-31.19,1.58-.5.14-1,.28-1.53.45-4.17,1.32-8.3,3.17-13,.66-.72-.39-4.86-2.6-4.84-5.76a4.4,4.4,0,0,1,.84-2.43,7.1,7.1,0,0,1,3.81-2.77c1.66-.45,2.41,2.33,4.27,2.8,4.12,1,29.33-9.48,35.88-10.2,15.55-1.71,21.75,5.35,22.37,11.32.73,7-6.58,5.28-16.59,4.35"/><path class="cls-1" d="M724.5,79.76c-6.39-.48-37.25-.06-45.7,1.32-.64.1-1.31.21-2,.34-5.43,1-15.66,2.85-22.11,2.5-10-.53-16.35-8.2-10.65-17.54.37-.61,6.93,3.36,11.17,3.32a54.34,54.34,0,0,1,8.07,1.08c5.32.94,42.61-10.7,51.13-11.1,19.93-.93,29.37,11.84,30.09,16.77.85,5.82-7,4.27-20,3.31"/><path class="cls-1" d="M691.18,70h17.74c.09-7.19-.23-37.51-.18-41.34C709.06,6,690.48,6.34,688,9.36c-5,6.2,2.63,5.64,2.72,18.61,0,6.2.45,36.26.42,42"/><path class="cls-1" d="M692.44,81.14c-3.51-3.79-3.34-6.88-2-8.38,2-2.28,9.23-1.13,14.1,1.55,15,8.23-.87,49.71,6.15,52.39,23.32,8.9,18.24-20.27,18.14-22.7-.23-5.64,18.83,21.27,15.73,29.87-4.37,12.14-53.73,15-50.82-9.87.66-5.62,4.42-36.69-1.28-42.86"/><path class="cls-1" d="M678.58,79.76c-.58-3.3-2.3-5.58-1-7.63,2.36-3.88,13.52-4.2,16.78,2.38,7.58,15.31-23.18,74.39-40.46,68.08-4.39-1.6-10.33-11.77-2.1-17.52,7.84-5.48,29.32-30.89,26.82-45.31"/><path class="cls-1" d="M663.07,22.87c-1.23-2.83-2.07-4.49-1.39-6.6,1.27-4,10-6.71,14.33-1.54,10.12,12-7.43,65.23-24.26,63.37-4.28-.48-11.82-8.28-5.72-15.22,5.82-6.62,22.44-27.66,17-40"/><path class="cls-1" d="M647.65,79.94C645,77.19,638.79,74.4,634,73.07c-9-4,1.14-6,5.1-7.95,3.62-1.8,6.8-9.52,5.26-11.73-1.72-2.47-12.78-4.77-20.67-1,5.69,4.13,6.66,5.59,6.31,7.2-.55,2.49-8.54,3.33-11.18,6.47-8.08,9.62,6.74,9.22,13.4,16.46a10.37,10.37,0,0,1,2,2.9c5.46,17.11-15.8,34-21.35,41.23-6.2,8.12,2.72,16.15,7.46,16.34C639,143.8,659.73,92.44,647.65,79.94Z"/><path class="cls-1" d="M43.91,119.58c3.74-2.14,23.6,2,32.08,10.33,5.67,5.59,5.74,12.43-2.2,15.13-5.83,2-13.13-7.91-17.28-13.14-11-13.89-10.9-12.5-8.7-12.42"/></g></g></svg>