<svg xmlns="http://www.w3.org/2000/svg" width="100.889" height="100.889" viewBox="0 0 100.889 100.889">
  <path id="build_circle_FILL0_wght400_GRAD0_opsz48" d="M75,80.549l5.549-5.171a2.606,2.606,0,0,0,0-3.909L61.381,52.3a30.615,30.615,0,0,0,1.009-3.4,15.1,15.1,0,0,0,.378-3.405A17.653,17.653,0,0,0,45.112,27.835a15.13,15.13,0,0,0-4.288.631,19.957,19.957,0,0,0-4.162,1.766L47.761,41.2l-6.81,6.432L30.105,36.915a17.712,17.712,0,0,0-1.7,4.162,17.176,17.176,0,0,0-.568,4.414,16.451,16.451,0,0,0,5.044,12.17,16.765,16.765,0,0,0,12.233,4.981,19.006,19.006,0,0,0,3.468-.315,22.5,22.5,0,0,0,3.468-.946L71.091,80.549a2.9,2.9,0,0,0,3.909,0ZM54.444,104.889A48.81,48.81,0,0,1,34.9,100.916,50.823,50.823,0,0,1,7.973,73.992,48.81,48.81,0,0,1,4,54.444,49.12,49.12,0,0,1,7.973,34.771,50.413,50.413,0,0,1,18.818,18.755,51.71,51.71,0,0,1,34.9,7.973,48.81,48.81,0,0,1,54.444,4,49.12,49.12,0,0,1,74.118,7.973a50.366,50.366,0,0,1,26.8,26.8,49.121,49.121,0,0,1,3.973,19.673,48.81,48.81,0,0,1-3.973,19.547A51.71,51.71,0,0,1,90.134,90.071a50.413,50.413,0,0,1-16.016,10.846A49.121,49.121,0,0,1,54.444,104.889Zm0-7.567A41.26,41.26,0,0,0,84.837,84.774a41.426,41.426,0,0,0,12.485-30.33A41.365,41.365,0,0,0,84.837,24.052,41.365,41.365,0,0,0,54.444,11.567a41.426,41.426,0,0,0-30.33,12.485A41.26,41.26,0,0,0,11.567,54.444a41.32,41.32,0,0,0,12.548,30.33A41.32,41.32,0,0,0,54.444,97.322ZM54.444,54.444Z" transform="translate(-4 -4)" fill="#e36c6c"/>
</svg>
