<svg id="圖層_1" data-name="圖層 1" xmlns="http://www.w3.org/2000/svg" xmlns:xlink="http://www.w3.org/1999/xlink" viewBox="0 0 1804.81 2176.7"><defs><style>.cls-1,.cls-23,.cls-24,.cls-49,.cls-50,.cls-55,.cls-59,.cls-60,.cls-63,.cls-64,.cls-66,.cls-67,.cls-68,.cls-69,.cls-77,.cls-80,.cls-81,.cls-83,.cls-85,.cls-87,.cls-89,.cls-90{fill:none;}.cls-2,.cls-54,.cls-56,.cls-57,.cls-58,.cls-76,.cls-82,.cls-91{fill:#fff;}.cls-12,.cls-15,.cls-16,.cls-17,.cls-18,.cls-26,.cls-29,.cls-3,.cls-4,.cls-41,.cls-5,.cls-51,.cls-61,.cls-76,.cls-78,.cls-79,.cls-8,.cls-82,.cls-84,.cls-86,.cls-88,.cls-9,.cls-91{isolation:isolate;}.cls-18,.cls-29,.cls-4{font-size:30px;}.cls-12,.cls-15,.cls-18,.cls-29,.cls-4,.cls-5,.cls-61,.cls-8,.cls-9{fill:#0d0d0d;}.cls-17,.cls-4{font-family:Georgia-Bold, Georgia;}.cls-16,.cls-17,.cls-4,.cls-5{font-weight:700;}.cls-5{font-size:45px;}.cls-16,.cls-5{font-family:Roboto-Bold, Roboto;}.cls-6{letter-spacing:-0.01em;}.cls-7{letter-spacing:-0.01em;}.cls-8,.cls-91{font-size:21px;}.cls-76,.cls-78,.cls-79,.cls-8,.cls-91{font-family:Roboto-Medium, Roboto;font-weight:500;}.cls-9{font-size:16px;}.cls-12,.cls-41,.cls-51,.cls-61,.cls-82,.cls-84,.cls-86,.cls-88,.cls-9{font-family:Roboto-Regular, Roboto;}.cls-10{letter-spacing:-0.01em;}.cls-11{letter-spacing:-0.06em;}.cls-12,.cls-41,.cls-51{font-size:14px;}.cls-13{letter-spacing:-0.02em;}.cls-14{letter-spacing:-0.05em;}.cls-15{font-size:12px;font-family:Roboto-Light, Roboto;font-weight:300;}.cls-16,.cls-17{font-size:35px;fill:#081426;}.cls-18,.cls-29{font-family:Apercu;}.cls-18{letter-spacing:-0.06em;}.cls-19{letter-spacing:0em;}.cls-20{letter-spacing:0.01em;}.cls-21{letter-spacing:0em;}.cls-22{letter-spacing:-0.01em;}.cls-23,.cls-63,.cls-64{stroke:#081426;}.cls-23{stroke-width:0.5px;stroke-dasharray:2;}.cls-24,.cls-66,.cls-80{stroke:#707070;}.cls-25,.cls-26{fill:#133466;}.cls-26{font-size:33px;font-family:Helvetica;}.cls-27{letter-spacing:-0.07em;}.cls-28{letter-spacing:-0.05em;}.cls-30{letter-spacing:-0.01em;}.cls-31{letter-spacing:0.01em;}.cls-32{letter-spacing:-0.01em;}.cls-33{letter-spacing:-0.01em;}.cls-34{letter-spacing:-0.02em;}.cls-35{letter-spacing:-0.03em;}.cls-36,.cls-78,.cls-79{fill:#cb4042;}.cls-37,.cls-84{fill:#f59c9d;}.cls-38,.cls-51,.cls-62,.cls-86{fill:#467bcb;}.cls-39{fill:#ffe3e4;}.cls-40{fill:#d8e7ff;}.cls-41{fill:#707070;}.cls-42{letter-spacing:0em;}.cls-43{letter-spacing:-0.01em;}.cls-44{letter-spacing:-0.01em;}.cls-45{letter-spacing:0em;}.cls-46{letter-spacing:-0.01em;}.cls-47{letter-spacing:-0.01em;}.cls-48{letter-spacing:-0.01em;}.cls-49,.cls-55,.cls-56,.cls-58,.cls-83{stroke:#f59c9d;}.cls-49,.cls-50,.cls-54,.cls-56,.cls-59,.cls-60,.cls-62{stroke-miterlimit:10;}.cls-49,.cls-50,.cls-54,.cls-56,.cls-62,.cls-83,.cls-85,.cls-87,.cls-89{stroke-width:2px;}.cls-50,.cls-54,.cls-57,.cls-62,.cls-85{stroke:#467bcb;}.cls-52{letter-spacing:-0.02em;}.cls-53{letter-spacing:0.01em;}.cls-55{stroke-miterlimit:10;stroke-width:2px;}.cls-57,.cls-58{stroke-miterlimit:10;stroke-width:2px;}.cls-59{stroke:#4c74b5;}.cls-59,.cls-60,.cls-67,.cls-68,.cls-69,.cls-90{stroke-width:1.5px;}.cls-60{stroke:#e09b9b;}.cls-61,.cls-82,.cls-84,.cls-86{font-size:20px;}.cls-63{stroke-width:3px;}.cls-64,.cls-66{stroke-width:3px;}.cls-65{fill:#dbdbdb;}.cls-67,.cls-68,.cls-69{stroke:#133466;}.cls-67,.cls-69{stroke-linecap:round;}.cls-67{stroke-linejoin:round;}.cls-70{clip-path:url(#clip-path);}.cls-71{letter-spacing:0em;}.cls-72{letter-spacing:0.01em;}.cls-73{letter-spacing:-0.01em;}.cls-74{letter-spacing:-0.02em;}.cls-75{letter-spacing:-0.01em;}.cls-76,.cls-78{font-size:26px;}.cls-77,.cls-89{stroke:#cb4042;}.cls-79{font-size:27px;}.cls-80,.cls-81{stroke-width:4px;}.cls-81{stroke:#fff;}.cls-87,.cls-90{stroke:#b7b7b7;}.cls-88{font-size:24px;fill:#b7b7b7;}.cls-91{letter-spacing:0.09em;}</style><clipPath id="clip-path"><path class="cls-1" d="M1672.33,1915.4H1684a.74.74,0,0,1,.74.73h0a.73.73,0,0,1-.74.73h-11.68a.72.72,0,0,1-.73-.73h0A.73.73,0,0,1,1672.33,1915.4Z"/></clipPath></defs><g id="Group_2681" data-name="Group 2681"><rect id="Rectangle_1351-2" data-name="Rectangle 1351-2" class="cls-2" x="-203.27" y="-117.45" width="2266" height="2363"/><g id="Heading_2_Georgia_30px" data-name="Heading 2 Georgia 30px" class="cls-3"><text class="cls-4" transform="translate(616.73 290.72)">Heading 2</text><text class="cls-4" transform="translate(616.73 325.72)">Georgia, 30px</text></g><g id="Heading_1_Roboto_45px" data-name="Heading 1 Roboto 45px" class="cls-3"><text class="cls-5" transform="translate(616.73 180.72)">Heading 1</text><text class="cls-5" transform="translate(616.73 233.72)">Robo<tspan class="cls-6" x="104.94" y="0">t</tspan><tspan x="119.49" y="0">o, 45</tspan><tspan class="cls-7" x="218.76" y="0">p</tspan><tspan x="243.76" y="0">x</tspan></text></g><g id="Heading_3_Roboto_Medium_21px" data-name="Heading 3 Roboto Medium 21px" class="cls-3"><text class="cls-8" transform="translate(616.73 373.72)">Heading 3</text><text class="cls-8" transform="translate(616.73 397.72)">Robo<tspan class="cls-6" x="48.84" y="0">t</tspan><tspan x="55.51" y="0">o Medium, 21</tspan><tspan class="cls-7" x="183.23" y="0">p</tspan><tspan x="194.9" y="0">x</tspan></text></g><g id="Heading_4_Roboto_Regular_16px" data-name="Heading 4 Roboto Regular 16px" class="cls-3"><text class="cls-9" transform="translate(616.73 440.72)">Heading 4</text><text class="cls-9" transform="translate(616.73 459.72)">Robo<tspan class="cls-10" x="37.08" y="0">t</tspan><tspan x="42.15" y="0">o Regula</tspan><tspan class="cls-11" x="103.95" y="0">r</tspan><tspan x="108.4" y="0">, 16</tspan><tspan class="cls-7" x="133.47" y="0">p</tspan><tspan x="142.33" y="0">x</tspan></text></g><g id="Body_Text_Roboto_Regular_14px" data-name="Body Text Roboto Regular 14px" class="cls-3"><text class="cls-12" transform="translate(616.73 496.72)">Body<tspan class="cls-13" x="31.22" y="0"> </tspan><tspan class="cls-14" x="34.41" y="0">T</tspan><tspan x="42.09" y="0">ext</tspan></text><text class="cls-12" transform="translate(616.73 512.72)">Robo<tspan class="cls-10" x="32.44" y="0">t</tspan><tspan x="36.88" y="0">o Regula</tspan><tspan class="cls-11" x="90.95" y="0">r</tspan><tspan x="94.85" y="0">, 14</tspan><tspan class="cls-7" x="116.79" y="0">p</tspan><tspan x="124.54" y="0">x</tspan></text></g><g id="Sub-Body_Text_Roboto_Light_12px" data-name="Sub-Body Text Roboto Light 12px" class="cls-3"><text class="cls-15" transform="translate(616.73 547.72)">Sub-Body<tspan class="cls-13" x="50.23" y="0"> </tspan><tspan class="cls-14" x="52.91" y="0">T</tspan><tspan x="59.5" y="0">ext</tspan></text><text class="cls-15" transform="translate(616.73 561.72)">Robo<tspan class="cls-10" x="27.71" y="0">t</tspan><tspan x="31.45" y="0">o Light, 12</tspan><tspan class="cls-7" x="85.71" y="0">p</tspan><tspan x="92.27" y="0">x</tspan></text></g><g id="Aa" class="cls-3"><text class="cls-16" transform="translate(768.25 84.72)">Aa</text></g><g id="Aa-2" class="cls-3"><text class="cls-17" transform="translate(846.55 84.72)">Aa</text></g><g id="Text" class="cls-3"><text class="cls-18" transform="translate(616.73 88.72)">T<tspan class="cls-19" x="13.74" y="0">e</tspan><tspan class="cls-20" x="30.39" y="0">x</tspan><tspan class="cls-21" x="44.52" y="0">t</tspan></text></g><g id="Roboto" class="cls-3"><text class="cls-15" transform="translate(770.65 36.55)">Robo<tspan class="cls-10" x="27.71" y="0">t</tspan><tspan x="31.45" y="0">o</tspan></text></g><g id="Georgia" class="cls-3"><text class="cls-15" transform="translate(850.32 36.55)">Geo<tspan class="cls-22" x="21.12" y="0">r</tspan><tspan x="25.05" y="0">gia</tspan></text></g><g id="Rectangle_1328" data-name="Rectangle 1328"><rect class="cls-1" x="760.73" y="43.72" width="58" height="58"/><rect class="cls-23" x="760.98" y="43.97" width="57.5" height="57.5"/></g><g id="Rectangle_1329" data-name="Rectangle 1329"><rect class="cls-1" x="838.73" y="43.72" width="64" height="58"/><rect class="cls-23" x="838.98" y="43.97" width="63.5" height="57.5"/></g><line id="Line_831" data-name="Line 831" class="cls-24" x1="617.23" y1="108.72" x2="903.23" y2="108.72"/><g id="圖層_2" data-name="圖層 2"><g id="圖層_2-2" data-name="圖層 2-2"><path id="Path_15" data-name="Path 15" class="cls-25" d="M191,240.07h2.23l3.65,10.74,1.18,3.74h0c0-1.68-.26-3.65-.26-5.42v-9.06h2v17.31h-2.23l-3.74-10.69-1.18-3.8h0c0,1.76.26,3.65.26,5.41v9.08H191Z"/><path id="Path_16" data-name="Path 16" class="cls-25" d="M209.24,252.17h-4.39l-1.11,5.24h-2.07l4.07-17.34h2.94l3.92,17.31h-2.12Zm-.39-1.77-.55-2.65c-.45-1.94-.83-3.83-1.21-5.89h0c-.35,2-.8,3.89-1.21,5.89l-.56,2.65Z"/><path id="Path_17" data-name="Path 17" class="cls-25" d="M217.75,242h-4.12v-1.88h10.45V242H220v15.43h-2.21Z"/><path id="Path_18" data-name="Path 18" class="cls-25" d="M225.82,255.11l1.38-1.47a4.56,4.56,0,0,0,3.47,2.12,2.35,2.35,0,0,0,2.53-2.17c0-.1,0-.2,0-.3a4,4,0,0,0-2.27-3.48l-1.65-1.15a5,5,0,0,1-2.94-4.5,4.21,4.21,0,0,1,4.05-4.37h.37A5.42,5.42,0,0,1,235,242l-1.18,1.41a4,4,0,0,0-3-1.65,2.18,2.18,0,0,0-2.26,2.09.54.54,0,0,0,0,.18c0,1.47.67,2.15,2.3,3.21l1.68,1.09a5.16,5.16,0,0,1,2.94,4.71,4.51,4.51,0,0,1-4.32,4.69h-.42A6.14,6.14,0,0,1,225.82,255.11Z"/><path id="Path_19" data-name="Path 19" class="cls-25" d="M237.92,252.17v-12.1h2.21v12.1c0,2.73,1,3.65,2.27,3.65s2.44-.92,2.44-3.65V240.09H247v12.08c0,4.18-2,5.59-4.53,5.59S237.92,256.26,237.92,252.17Z"/><path id="Path_20" data-name="Path 20" class="cls-25" d="M190.57,277c0-6.1,2.74-8.83,5.89-8.83a4.85,4.85,0,0,1,3.74,1.88l-1.3,1.35a2.94,2.94,0,0,0-2.35-1.32c-2,0-3.77,2.12-3.77,7s1.68,7.07,3.83,7.07a3.13,3.13,0,0,0,2.56-1.54l1.3,1.33a5.08,5.08,0,0,1-4.06,2.12C193.25,286,190.57,283.17,190.57,277Z"/><path id="Path_21" data-name="Path 21" class="cls-25" d="M202.79,283.85h3V270.22h-3v-1.89h8.45v1.89h-3.06v13.63h3.12v1.8h-8.51Z"/><path id="Path_22" data-name="Path 22" class="cls-25" d="M214.57,268.33h2.24l3.65,10.75,1.18,3.74h0c0-1.68-.27-3.65-.27-5.42v-9.07h2v17.31h-2.24L217.43,275l-1.18-3.8h0c0,1.77.27,3.65.27,5.42v9.07h-2Z"/><path id="Path_23" data-name="Path 23" class="cls-25" d="M226.76,268.33h8.42v1.89h-6.24v5.5H234v1.86h-5.07v6.3h6.24v1.85h-8.42Z"/><path id="Path_24" data-name="Path 24" class="cls-25" d="M237.8,268.33H240l1.77,7,.59,3h0l.62-3,1.73-7H247v17.31h-1.77v-9.77c0-1.41.3-3.89.39-5.3h0l-.83,3.68L243,280.79H241.9l-1.69-6.54-.91-3.68h0c0,1.41.41,3.89.41,5.3v9.77H238Z"/><path id="Path_25" data-name="Path 25" class="cls-25" d="M256.35,280.4H252l-1.12,5.24h-2.06l4.06-17.31h2.94l3.92,17.31h-2.12Zm-.38-1.76-.56-2.65c-.44-1.94-.83-3.83-1.21-5.89h0c-.35,2-.8,3.89-1.21,5.89l-.56,2.65Z"/><path id="Path_26" data-name="Path 26" class="cls-25" d="M189,160.89a12.23,12.23,0,0,0,2.33.26,8.61,8.61,0,0,1,8.57,6.84,1.67,1.67,0,0,1-.27,1.32,8.81,8.81,0,0,1-6.6,4.21c-5.88.74-11.18-1.53-16.78-2.23a72.39,72.39,0,0,0-8.83-.3c-1.65,0-3.3.44-4.92.3a35.12,35.12,0,0,0-13,2c-2.12.59-2.24,1.18-.8,2.68.91.91,6.89,5.3,9.42,4.8,0,0,14.72,2.24,16.46,2.77a4.53,4.53,0,0,1,3.8,5c0,5.24-.24,10.48-.33,15.73v11.92c0,2.94-.41,5.89-.35,8.83,0,3.77.41,7.54.59,11.34v4.24c0,.35-.24.73-.18,1.06a35.45,35.45,0,0,1-.85,13.45c-2.45,15.34-9.39,9.16-10.19,7.95a12,12,0,0,1-1.91-8.54q.53-3.41.8-6.8a10.65,10.65,0,0,0-.5-2.56c-3.33,2.5-29.07,25.83-35,32.63a74.49,74.49,0,0,1-29.95,21.88c-3.5,1.32-18.23,6.56-14.72-2.33.38-.94,1.67-1.44,2.59-2.12s10.54-7.45,10.6-7.39c16.07-5.48,27.18-17.34,39.75-28.33a8.62,8.62,0,0,0-2,0c-4.33,1.86-8.54,4-13,5.57-4.86,1.82-9.86,3.32-14.84,4.77a6.45,6.45,0,0,1-3.27-.56A60.68,60.68,0,0,1,98.91,267a35.59,35.59,0,0,1-4-2.39l.21-.91c2.06-.38,4.12-.82,6.18-1.18,4.42-.73,8.83-1.12,13.25-2.24a118.28,118.28,0,0,0,13.16-4.68c4-1.56,8-3.27,12-5a51.46,51.46,0,0,0,4.66-2.57c1.12-.61,2.23-1.2,3.32-1.91a40.05,40.05,0,0,0,3.92-2.94c1.88-1.45,3.56-3.71,5.65-4.18a8.82,8.82,0,0,1,7.77.47,4,4,0,0,0,.86.47c.2-.15.41-.24.41-.33,0-4,0-8.06.24-12.07.58-8-.33-15.84-.33-23.76,0-2.95,0-5.89-.18-8.83,0-1.48-.26-2.33-2.32-2.71-2.95-.56-6.36-.21-8.84-3.21-2-2.3-3.56-1.53-5.68.88a38.81,38.81,0,0,1-3.77,3.36l-.59-.39a18,18,0,0,1,.36-2.18c.41-1.53-.45-2-1.59-1.59-1.68.53-20.23,15.46-20.23,20.62a33.09,33.09,0,0,0,2.38,14.72c.86,1.83.77,4.09,2.45,5.89.47.44,0,1.91,0,2.94-1.09,4.27-2.33,8.51-3.39,12.78-.8,3.27-3.42,4.24-6.15,4.83a2.74,2.74,0,0,1-3.31-2,2.61,2.61,0,0,1-.08-.55,88.12,88.12,0,0,1-.21-11.49,50.6,50.6,0,0,1,1.09-11.18,55.27,55.27,0,0,0,1.06-9.84,90.69,90.69,0,0,1,1.74-10.1,6.31,6.31,0,0,1,1.74-2.74,55.1,55.1,0,0,0,9.39-12.1c1.77-3.5,3.86-6.63,5.75-10,1.06-2,1.94-4,3.18-6.54l-21.06,6.75c-3.8,1.2-7.65,2.23-11.36,3.68-2.95,1.12-12.43,7.51-16.43,4.74-2.63-1.83-5.13-2.15-5.13-11,0-1.3,1.27-4.53,2-4.71,9.54-2.94,0,8,25.55,1.86,1.8-.44,3.63-.68,5.45-1.06,4.57-.91,9.13-1.92,13.72-2.77,3.5-.62,7.1-.8,10.54-1.65,7.19-1.74,14.31-3.8,21.47-5.65,2.94-.8,5.89-1.44,9-2.15l7.24-1.53Z"/><path id="Path_27" data-name="Path 27" class="cls-25" d="M207,331.67c-5.89-.53-26.3-13-30.57-16.23-.91-.67-1.85-1.3-2.77-2-1.47-1.08-2.94-2.2-4.32-3.38-2.63-2.24-5-4.68-7.75-6.74a5.5,5.5,0,0,0-7.78-.14,5.3,5.3,0,0,0-1,1.4,24.78,24.78,0,0,1-2.92,3.53,11.15,11.15,0,0,1-3.12,1.42,5.65,5.65,0,0,0-1.24.53c-1.06.8-1.94,2-3.12,2.41-3.8,1.36-7.71,2.39-11.54,3.62a7.4,7.4,0,0,1-6.27-.26c-.41-.24-1.21.29-1.83.29a13.2,13.2,0,0,1-2.15-.35,8.23,8.23,0,0,1,1.3-1.74,27.64,27.64,0,0,1,9.9-4.27,14.77,14.77,0,0,0,3.36-1.65c2.94-1.88,5.88-3.77,9-5.71a50.37,50.37,0,0,0,4.62-3.36c1.27-1,.91-2.38-.18-3.71a24.16,24.16,0,0,0-11.92-6.5,31.41,31.41,0,0,1-5.69-2.27,2.58,2.58,0,0,1,0-2.68,6.4,6.4,0,0,1,3.16-2,16.18,16.18,0,0,1,10.45,2.27,79.14,79.14,0,0,0,7.92,3.56c2.47.85,3.18,0,3.92-2.41a20.23,20.23,0,0,0-.65-10.55,9.46,9.46,0,0,0-7.3-5.88,2.42,2.42,0,0,1-1.18-.65,18,18,0,0,1,1.38-4,2,2,0,0,1,2.66-1.1,2.16,2.16,0,0,1,.44.25l6.94,4.5a8.35,8.35,0,0,0,1.65,1,8.21,8.21,0,0,1,6.48,9.27,47.91,47.91,0,0,1-1.4,8.83c-.61,2.77-.29,3.56,2.27,4.62,3.53,1.42,7,2.95,10.51,4.42s23.56,11,27,12.25,7.18,2.33,10.78,3.42,15.48,2.3,19.11,3.15c5.89,1.38,11.92,2.53,17.9,3.77a6.83,6.83,0,0,1,5.33,3.12v.85a35.91,35.91,0,0,0-4.66,2.59,24.61,24.61,0,0,1-11.4,3.95c-5.35.94-19.11,1.68-24.5,2.47Z"/><path id="Path_28" data-name="Path 28" class="cls-25" d="M132.13,210a17.78,17.78,0,0,1,4.21-.85,25.87,25.87,0,0,0,11.77-2.24,9.42,9.42,0,0,1,9,.18c2.18,1.17,2.48,2.94.33,4a28,28,0,0,1-8.69,3.32,20.57,20.57,0,0,1-14.72-2.3c-.71-.44-1.35-.94-2.06-1.41Z"/><path id="Path_29" data-name="Path 29" class="cls-25" d="M129.71,233.79a8.27,8.27,0,0,1,1.39-.94c5.71-2,11-5.33,17.43-5.06h5c1.65,0,2.47.14,2.47,1.85a2.93,2.93,0,0,1-2.5,3.09c-4.41,1.15-8.83,2.12-13.36,3a15.36,15.36,0,0,1-9-1,6.28,6.28,0,0,1-1.42-.92Z"/></g></g><g id="圖層_2-3" data-name="圖層 2-3"><g id="圖層_2-4" data-name="圖層 2-4"><path id="Path_30" data-name="Path 30" class="cls-25" d="M85,393.83h8.38l5.78,21.74,2.6,10.52h.29c-.4-4.46-.86-10.29-.86-15V393.72h6.93v43.06h-8.5L93.68,415l-2.6-10.52H91c.4,4.51.86,10.24.86,15v17.34H85Z"/><path id="Path_31" data-name="Path 31" class="cls-25" d="M129.46,425.79h-8.21l-1.73,11h-8.15l8.15-42.95h11.73l8.21,42.95h-8.21Zm-1.1-6.65-.75-4.68c-.81-4.45-1.44-9.36-2.2-14h-.23c-.58,4.68-1.39,9.59-2.14,14l-.75,4.68Z"/><path id="Path_32" data-name="Path 32" class="cls-25" d="M150,401h-9v-7.17h26.59V401h-9v35.78H150Z"/><path id="Path_33" data-name="Path 33" class="cls-25" d="M170.56,431.23l5.26-5.78A10.14,10.14,0,0,0,183,430a3.61,3.61,0,0,0,4-3.21,4,4,0,0,0,0-.49,8.09,8.09,0,0,0-4.74-7.16l-3.7-2.55a13.24,13.24,0,0,1-6.82-11.73,11.57,11.57,0,0,1,11.37-11.75c.28,0,.56,0,.83,0a14.91,14.91,0,0,1,10.92,5.49L190.5,404a9.51,9.51,0,0,0-6.53-3.52,3.55,3.55,0,0,0-3.59,3.52v.24c0,2.89,1.45,3.93,5.26,6.64l3.41,2.49a12.89,12.89,0,0,1,6.7,11.79,12.11,12.11,0,0,1-11.88,12.33c-.3,0-.59,0-.88,0A16.62,16.62,0,0,1,170.56,431.23Z"/><path id="Path_34" data-name="Path 34" class="cls-25" d="M200.33,423.48V393.77h8.5v30.52c0,4.45,1.38,5.78,3.29,5.78s3.58-1.44,3.58-5.78V393.77h8.21v29.71c0,9.95-4.56,14-11.79,14S200.33,433.42,200.33,423.48Z"/><path id="Path_35" data-name="Path 35" class="cls-25" d="M257.78,415.57c0-15.73,7.28-22.43,15.55-22.43a13.32,13.32,0,0,1,9.94,4.74l-4.86,5.32a6,6,0,0,0-4.74-2.72c-3.46,0-7.1,4-7.1,14.74s3.46,14.85,7.51,14.85a5.78,5.78,0,0,0,4.8-2.89l4.85,5.15a13.27,13.27,0,0,1-10.46,5.14C265.06,437.47,257.78,431.34,257.78,415.57Z"/><path id="Path_36" data-name="Path 36" class="cls-25" d="M287.32,429.73h7.1V401h-7.1v-7.17h23.12V401H303v28.73h7.4v7H287.32Z"/><path id="Path_37" data-name="Path 37" class="cls-25" d="M316.22,393.83h8.38l5.78,21.74,2.6,10.52h.23c-.4-4.46-.87-10.29-.87-15V393.72h7v43.06H331L324.89,415l-2.6-10.52h-.23c.4,4.51.86,10.24.86,15v17.34h-6.7Z"/><path id="Path_38" data-name="Path 38" class="cls-25" d="M346.1,393.83h21.56V401h-13v10h10.81v7.17H354.71v11.56h13.53v7H346.1Z"/><path id="Path_39" data-name="Path 39" class="cls-25" d="M373.09,393.83h7.69l3.41,14.1,1.21,6.7h.18l1.27-6.7,3.41-14.1H398v42.95h-6.59V419.9c0-4.34,1.1-13.41,1.5-17.69h-.23l-2.55,11.16-2.89,11.1h-3.64l-2.89-11.1-2.6-11h-.23c.4,4.28,1.62,13.35,1.62,17.69v16.76h-6.36Z"/><path id="Path_40" data-name="Path 40" class="cls-25" d="M418.47,425.79h-8.22l-1.73,11h-8.15l8.15-42.95h11.73l8.15,42.95h-8.15Zm-1.1-6.65-.76-4.68c-.8-4.45-1.44-9.36-2.2-14h-.23c-.57,4.68-1.38,9.59-2.14,14l-.75,4.68Z"/></g></g><g id="圖層_2-5" data-name="圖層 2-5"><g id="圖層_2-6" data-name="圖層 2-6"><g id="NATSU_CINEMA" data-name="NATSU CINEMA" class="cls-3"><text class="cls-26" transform="translate(173.55 546.54)">N<tspan class="cls-27" x="23.83" y="0">A</tspan><tspan x="43.41" y="0">TSU CINEM</tspan><tspan class="cls-28" x="224.91" y="0">A</tspan></text></g><path id="Path_10" data-name="Path 10" class="cls-2" d="M142.87,574.12c2.53-.38,5.09-.73,7.61-1.17a11.68,11.68,0,0,0,5.36-1.86,16.86,16.86,0,0,1,2.2-1.22v4.25Z"/><path id="Path_11" data-name="Path 11" class="cls-25" d="M137.2,497.66a5.81,5.81,0,0,0,1.1.14,4.06,4.06,0,0,1,4,3.2.92.92,0,0,1-.14.63,4.26,4.26,0,0,1-3.12,2c-2.75.33-5.22-.73-7.9-1.06a33.53,33.53,0,0,0-4.13-.14c-.77,0-1.55.21-2.3.14a16.71,16.71,0,0,0-6.15.95c-1,.28-1.06.56-.36,1.28.42.43,3.24,2.49,4.44,2.26,0,0,6.88,1,7.75,1.29a2.16,2.16,0,0,1,1.74,2.35c0,2.47-.13,4.93-.16,7.4v5.62c0,1.41-.19,2.82-.17,4.23,0,1.74.19,3.49.27,5.33v2c0,.18-.12.35-.08.49a17,17,0,0,1-.35,6.27c-1.13,7.22-4.41,4.39-4.79,3.74a5.56,5.56,0,0,1-.9-4c.15-1.06.3-2.12.38-3.2a6.08,6.08,0,0,0-.24-1.2c-1.57,1.18-13.69,12.18-16.47,15.35A35.16,35.16,0,0,1,95.52,563c-1.66.63-8.6,3.08-7-1.1.17-.45.8-.7,1.24-1s5-3.48,5-3.48c7.7-2.58,12.92-8.17,18.75-13.34a3.7,3.7,0,0,0-.94,0c-2,.87-4,1.88-6.11,2.63s-4.65,1.5-7,2.14a3.2,3.2,0,0,1-1.53-.23,27.11,27.11,0,0,1-3.15-1.06,14,14,0,0,1-1.9-1.13V546l2.91-.56c2.07-.34,4.21-.52,6.23-1.06a52.43,52.43,0,0,0,6.2-2.19c1.92-.73,3.8-1.53,5.68-2.37.75-.33,1.46-.8,2.17-1.2s1.07-.57,1.57-.9,1.25-.88,1.85-1.35c.88-.67,1.74-1.74,2.66-2a4.11,4.11,0,0,1,3.65.22,2.3,2.3,0,0,0,.4.23.21.21,0,0,0,.19-.16c0-1.9,0-3.8.12-5.67.28-3.75-.15-7.47-.13-11.22,0-1.35,0-2.73-.09-4.11,0-.7-.14-1.1-1.1-1.27-1.43-.28-3-.1-4.22-1.51-.94-1.08-1.74-.72-2.68.42a15.7,15.7,0,0,1-1.74,1.51l-.21-.12a8.87,8.87,0,0,1,.18-1c.19-.71-.21-.92-.75-.75s-9.52,7.3-9.52,9.68a15.81,15.81,0,0,0,1.11,7c.4.87.37,1.93,1.17,2.73.21.21,0,.91,0,1.34-.5,2-1.1,4-1.59,6-.38,1.55-1.6,2-2.9,2.26a1.29,1.29,0,0,1-1.57-.93,1.07,1.07,0,0,1,0-.25,42.6,42.6,0,0,1-.09-5.42,22.94,22.94,0,0,1,.57-5.22,26.75,26.75,0,0,0,.49-4.63,47.6,47.6,0,0,1,.75-4.76,3,3,0,0,1,.82-1.28,25.91,25.91,0,0,0,4.4-5.71c.84-1.6,1.75-3.12,2.7-4.7.5-.91.93-1.89,1.5-3.07l-9.89,3.17c-1.74.57-3.6,1.06-5.34,1.74-1.38.52-2.65,1.31-4,1.92-1.74.78-3.57,1.53-5.38,2.26a4.62,4.62,0,0,1-5-2c-.69-1.26-1.47-2.65-2.17-4a5.21,5.21,0,0,1-.26-1.17v-1.74c.31-.14.61-.31.92-.42,4.5-1.32,6.67,3.83,18.7.94.86-.21,1.75-.31,2.58-.49,2.18-.5,4.3-1,6.46-1.35,1.66-.3,3.34-.39,5-.79,3.49-.82,6.74-1.74,10.12-2.66,1.39-.37,2.8-.68,4.21-1l3.49-.75Z"/><path id="Path_12" data-name="Path 12" class="cls-25" d="M137.81,574.12c-2.74-.26-4.53-2.18-6.53-3.71l-1.31-.94c-.68-.54-1.38-1-2-1.6-1.23-1.06-2.37-2.21-3.65-3.19a2.61,2.61,0,0,0-3.67,0,2.33,2.33,0,0,0-.46.62,12.86,12.86,0,0,1-1.38,1.74,5.45,5.45,0,0,1-1.46.64,2.85,2.85,0,0,0-.59.26c-.5.37-.93.94-1.48,1.13-1.74.65-3.62,1.14-5.44,1.75a3.49,3.49,0,0,1-3-.13c-.19-.12-.55.14-.85.14a5,5,0,0,1-1-.17,4.06,4.06,0,0,1,.61-.82,13.28,13.28,0,0,1,4.67-2,6.65,6.65,0,0,0,1.5-.77c1.41-.87,2.82-1.74,4.23-2.7a23.93,23.93,0,0,0,2.17-1.57c.6-.48.42-1.13-.08-1.74a11.16,11.16,0,0,0-5.63-3.06,15.93,15.93,0,0,1-2.66-1.12,1.32,1.32,0,0,1,0-1.25,2.88,2.88,0,0,1,1.48-1,7.62,7.62,0,0,1,4.91,1.06,40.93,40.93,0,0,0,3.74,1.75c1.17.38,1.5,0,1.85-1.15a9.56,9.56,0,0,0-.19-5,4.44,4.44,0,0,0-3.48-2.82,1.09,1.09,0,0,1-.56-.32,7.1,7.1,0,0,1,.61-1.91,1,1,0,0,1,1.25-.53,1.18,1.18,0,0,1,.19.11l3.26,2.18a3.85,3.85,0,0,0,.78.47,3.88,3.88,0,0,1,3.05,4.37A23.51,23.51,0,0,1,126,557c-.3,1.3-.16,1.74,1.06,2.16,1.65.68,3.29,1.42,4.94,2.09s3.24,1.27,4.88,1.84,3.38,1.1,5.06,1.6,3.37,1.08,5.09,1.48c2.78.66,5.61,1.2,8.41,1.74a3.21,3.21,0,0,1,2.52,1.47v.4a16.68,16.68,0,0,0-2.19,1.21,11.61,11.61,0,0,1-5.36,1.87c-2.53.43-5.09.78-7.61,1.16Z"/><path id="Path_13" data-name="Path 13" class="cls-25" d="M110.4,520.8a9.53,9.53,0,0,1,2-.4,11.83,11.83,0,0,0,5.56-1.06,4.5,4.5,0,0,1,4.26.09c1,.57,1.15,1.34.14,1.9a13.65,13.65,0,0,1-4.09,1.57,9.77,9.77,0,0,1-7-1.08l-1-.67Z"/><path id="Path_14" data-name="Path 14" class="cls-25" d="M109.3,532a2.82,2.82,0,0,1,.65-.43c2.7-1,5.22-2.53,8.21-2.39h2.36c.78,0,1.16,0,1.16.89a1.44,1.44,0,0,1-1.18,1.44c-2.09.54-4.2,1-6.3,1.47a7.47,7.47,0,0,1-4.23-.49A2.69,2.69,0,0,1,109.3,532Z"/></g></g><g id="Logos" class="cls-3"><text class="cls-29" transform="translate(83.23 88.72)">L<tspan class="cls-30" x="15.63" y="0">o</tspan><tspan class="cls-31" x="33.18" y="0">g</tspan><tspan class="cls-32" x="48.57" y="0">o</tspan><tspan class="cls-21" x="66.06" y="0">s</tspan></text></g><line id="Line_832" data-name="Line 832" class="cls-24" x1="82.73" y1="108.72" x2="353.73" y2="108.72"/><g id="Colors" class="cls-3"><text class="cls-29" transform="translate(1048.73 88.72)">C<tspan class="cls-33" x="20.64" y="0">o</tspan><tspan class="cls-32" x="38.01" y="0">l</tspan><tspan class="cls-34" x="45.48" y="0">o</tspan><tspan class="cls-35" x="62.64" y="0">r</tspan><tspan x="74.07" y="0">s</tspan></text></g><rect id="Rectangle_1332" data-name="Rectangle 1332" class="cls-36" x="1048.73" y="148.72" width="186" height="186"/><rect id="Rectangle_1333" data-name="Rectangle 1333" class="cls-25" x="1048.73" y="421.72" width="186" height="186"/><rect id="Rectangle_1330" data-name="Rectangle 1330" class="cls-37" x="1292.86" y="148.72" width="185.74" height="185.74"/><rect id="Rectangle_1334" data-name="Rectangle 1334" class="cls-38" x="1284.67" y="421.87" width="185.74" height="185.74"/><rect id="Rectangle_1331" data-name="Rectangle 1331" class="cls-39" x="1536.99" y="148.72" width="185.74" height="185.74"/><rect id="Rectangle_1335" data-name="Rectangle 1335" class="cls-40" x="1535.97" y="421.87" width="185.74" height="185.74"/><g id="_CB4042" data-name=" CB4042" class="cls-3"><text class="cls-41" transform="translate(1108.22 358.39)">#CB4042</text></g><g id="_133466" data-name=" 133466" class="cls-3"><text class="cls-41" transform="translate(1109.27 631.54)">#133466</text></g><g id="_467BCB" data-name=" 467BCB" class="cls-3"><text class="cls-41" transform="translate(1348.16 631.54)">#467BCB</text></g><g id="_D8E7FF" data-name=" D8E7FF" class="cls-3"><text class="cls-41" transform="translate(1601.38 631.54)">#D8E7FF</text></g><g id="_F59C9D" data-name=" F59C9D" class="cls-3"><text class="cls-41" transform="translate(1353.88 358.39)">#F59C9D</text></g><g id="_FFE3E4" data-name=" FFE3E4" class="cls-3"><text class="cls-41" transform="translate(1600.97 358.39)">#FFE3E4</text></g><line id="Line_833" data-name="Line 833" class="cls-24" x1="1048.73" y1="108.72" x2="1722.73" y2="108.72"/><g id="Iconography" class="cls-3"><text class="cls-29" transform="translate(85.73 774.22)"><tspan class="cls-33">I</tspan><tspan class="cls-42" x="8.07" y="0">c</tspan><tspan class="cls-30" x="24.33" y="0">o</tspan><tspan class="cls-43" x="41.88" y="0">n</tspan><tspan class="cls-30" x="58.83" y="0">o</tspan><tspan x="76.38" y="0">g</tspan><tspan class="cls-44" x="91.59" y="0">r</tspan><tspan class="cls-45" x="103.65" y="0">a</tspan><tspan class="cls-46" x="119.1" y="0">p</tspan><tspan class="cls-47" x="136.83" y="0">h</tspan><tspan x="154.14" y="0">y</tspan></text></g><g id="Account_page" data-name="Account page" class="cls-3"><text class="cls-9" transform="translate(82.73 859.72)">Account page</text></g><g id="Menu" class="cls-3"><text class="cls-9" transform="translate(764.73 859.72)">Menu</text></g><g id="Payment" class="cls-3"><text class="cls-9" transform="translate(1458.73 859.72)"><tspan class="cls-48">P</tspan><tspan class="cls-7" x="10.01" y="0">a</tspan><tspan x="18.59" y="0">yment</tspan></text></g><g id="Group_2642" data-name="Group 2642"><path id="Path_72" data-name="Path 72" class="cls-49" d="M194,975H143.12"/><path id="Path_73" data-name="Path 73" class="cls-49" d="M194,963.6H143.12"/><path id="Path_74" data-name="Path 74" class="cls-49" d="M194,952.24H143.12"/><path id="Path_75" data-name="Path 75" class="cls-50" d="M174,895.4a4.15,4.15,0,0,0-3.13-1.19c-8.8,0-17.6,0-26.4,0a11.9,11.9,0,0,0-8.23,2.87,11,11,0,0,0-3.53,7,35.43,35.43,0,0,0-.13,4.83q0,35.2,0,70.4c0,4,1.32,7.37,4.59,9.75a11.46,11.46,0,0,0,6.91,2.1c16.38,0,32.76.08,49.14,0,6,0,10-3.23,11.35-9.22a10.85,10.85,0,0,0,.14-2.48q0-25.87,0-51.76a6.09,6.09,0,0,0-.5-2c-.86-2.57-2.76-4.3-4.6-6.13q-11.46-11.37-22.88-22.8c-.73-.74-1.42-1.54-2.61-1.44"/><path id="Path_76" data-name="Path 76" class="cls-50" d="M173.77,895.53a6.57,6.57,0,0,0-.53,2.87c0,6.73.06,13.47,0,20.21a6.54,6.54,0,0,0,6.14,6.92,5.21,5.21,0,0,0,.79,0c6.74-.06,13.47,0,20.2,0a6.55,6.55,0,0,0,2.87-.53"/><circle id="Ellipse_40" data-name="Ellipse 40" class="cls-50" cx="148.94" cy="908.84" r="5.29"/></g><g id="Group_2643" data-name="Group 2643"><path id="Path_70" data-name="Path 70" class="cls-49" d="M508.66,917.83c-12.42.21-22.77,9-24.49,22.2-1.61,12.42,7,25,19.85,27.1,10,1.63,18.21-1.11,24.47-8.88a24.87,24.87,0,0,0-.6-31.44c-5-6-11.6-8.72-19.23-9"/><path id="Path_71" data-name="Path 71" class="cls-50" d="M557.12,935.23l-11.5-3.37a38.28,38.28,0,0,0-3.21-7.75l5.4-11.13a4.05,4.05,0,0,0-.67-4.63l-4.71-4.71a4,4,0,0,0-4.82-.57l-10.51,5.75a38.33,38.33,0,0,0-7.76-3.2l-4.05-11.7a4,4,0,0,0-3.75-2.8h-6.66a4,4,0,0,0-3.81,3l-3.37,11.5a38.74,38.74,0,0,0-7.76,3.22l-11.13-5.4a4,4,0,0,0-4.62.67l-4.71,4.71a4,4,0,0,0-.57,4.82l5.74,10.51a38.67,38.67,0,0,0-3.2,7.76L459.75,936A4,4,0,0,0,457,939.7v6.66a4,4,0,0,0,3,3.81l11.5,3.38a38.28,38.28,0,0,0,3.21,7.75l-5.4,11.13a4,4,0,0,0,.67,4.62l4.71,4.71a4,4,0,0,0,4.82.58L490,976.59a38.33,38.33,0,0,0,7.76,3.2l4.05,11.7a4,4,0,0,0,3.75,2.79h6.67a4,4,0,0,0,3.81-3l3.37-11.5a38.28,38.28,0,0,0,7.75-3.21l11.13,5.4a4,4,0,0,0,4.62-.67l4.72-4.71a4,4,0,0,0,.57-4.82l-5.75-10.51a38.09,38.09,0,0,0,3.2-7.76l11.7-4a4,4,0,0,0,2.79-3.74v-6.66A4,4,0,0,0,557.12,935.23Z"/><circle id="Ellipse_41" data-name="Ellipse 41" class="cls-50" cx="508.43" cy="942.7" r="6.44"/></g><g id="Group_2644" data-name="Group 2644"><path id="Path_77" data-name="Path 77" class="cls-49" d="M348.13,914.54c.68-.64,1.25-1.21,1.86-1.74a13.24,13.24,0,0,1,10.76-3.32,13.51,13.51,0,0,1,11.58,10.34A14.35,14.35,0,0,1,368,934.18l-16.92,15.88a3.94,3.94,0,0,1-5.58.09l-.1-.09q-8.52-8-17-16a14,14,0,0,1-4.16-6.75c-2.16-8.41,2.5-16.24,10.83-17.78a13.06,13.06,0,0,1,12.14,3.92C347.5,913.82,347.8,914.18,348.13,914.54Z"/><path id="Path_78" data-name="Path 78" class="cls-50" d="M307.91,995.71V892.62a4.05,4.05,0,0,1,4-4.1h70.85a4.06,4.06,0,0,1,4,4.1V995.71a2,2,0,0,1-1.95,2,1.94,1.94,0,0,1-1.29-.44l-36.18-16.74-36.18,16.74a2,2,0,0,1-3.23-1.6Z"/><path id="Path_79" data-name="Path 79" class="cls-50" d="M307.91,987.16l39.41-19,39.41,19"/></g><g id="My_Watchlist" data-name="My Watchlist" class="cls-3"><text class="cls-51" transform="translate(306.57 1044.98)">My <tspan class="cls-52" x="22.31" y="0">W</tspan><tspan x="34.51" y="0">atchlist</tspan></text></g><g id="Combos" class="cls-3"><text class="cls-51" transform="translate(979.21 1046.05)">Combos</text></g><g id="Purchase_history" data-name="Purchase history" class="cls-3"><text class="cls-51" transform="translate(116.66 1044.98)">Pu<tspan class="cls-22" x="16.55" y="0">r</tspan><tspan x="21.16" y="0">chase his</tspan><tspan class="cls-10" x="80.24" y="0">t</tspan><tspan x="84.68" y="0">o</tspan><tspan class="cls-53" x="92.66" y="0">r</tspan><tspan x="97.52" y="0">y</tspan></text></g><g id="Drinks" class="cls-3"><text class="cls-51" transform="translate(745.06 1046.05)">Drinks</text></g><g id="Settings" class="cls-3"><text class="cls-51" transform="translate(483.2 1046.03)">Settings</text></g><g id="Snacks" class="cls-3"><text class="cls-51" transform="translate(1148.57 1046.97)">Snacks</text></g><path id="Path_13784" data-name="Path 13784" class="cls-49" d="M842.92,910.76l4.85-18.66a5.15,5.15,0,0,1,5-3.86h9.57"/><path id="Path_13787" data-name="Path 13787" class="cls-49" d="M995.53,907.64l4.39-16.88a4.64,4.64,0,0,1,4.5-3.49h8.67"/><path id="Path_13785" data-name="Path 13785" class="cls-54" d="M873.35,916.48l-7.29,83.79a5.14,5.14,0,0,1-5.12,4.7h-42.5a5.15,5.15,0,0,1-5.13-4.7L806,916.48"/><path id="Path_13788" data-name="Path 13788" class="cls-54" d="M1023.06,912.81l-6.59,75.82a4.66,4.66,0,0,1-4.64,4.25H973.38a4.66,4.66,0,0,1-4.64-4.25l-6.59-75.82"/><rect id="Rectangle_1336" data-name="Rectangle 1336" class="cls-54" x="800.55" y="910.76" width="78.27" height="9.38" rx="3.88"/><rect id="Rectangle_1339" data-name="Rectangle 1339" class="cls-54" x="957.2" y="907.64" width="70.82" height="8.49" rx="3.88"/><rect id="Rectangle_1337" data-name="Rectangle 1337" class="cls-49" x="823.25" y="949.94" width="13.31" height="13.31" rx="2.68"/><rect id="Rectangle_1340" data-name="Rectangle 1340" class="cls-49" x="977.73" y="943.09" width="12.04" height="12.04" rx="2.68"/><rect id="Rectangle_1338" data-name="Rectangle 1338" class="cls-55" x="838.69" y="967.08" width="13.31" height="13.31" rx="2.68" transform="translate(-443.93 950.39) rotate(-48)"/><rect id="Rectangle_1341" data-name="Rectangle 1341" class="cls-55" x="991.7" y="958.59" width="12.04" height="12.04" rx="2.68" transform="translate(-386.73 1060.61) rotate(-48)"/><path id="Path_13786" data-name="Path 13786" class="cls-50" d="M842.08,938.63H814.72L819.58,993a5.42,5.42,0,0,0,5.4,4.94h29.83a5.42,5.42,0,0,0,5.4-4.94l4.85-54.37Z"/><path id="Path_13789" data-name="Path 13789" class="cls-50" d="M994.77,932.86H970l4.39,49.19a4.9,4.9,0,0,0,4.88,4.47h27a4.9,4.9,0,0,0,4.88-4.47l4.39-49.19Z"/><path id="Path_13790" data-name="Path 13790" class="cls-56" d="M1175,917l0-.16c-1.19-5.22-4.9-8.65-9-8.78-.15-.32-.31-.64-.49-.95-2.53-4.39-6.94-6-10.8-4.36-.23-.24-.47-.46-.72-.68a8,8,0,0,0-11.32.59,9,9,0,0,0-.86-.33c-4.16-1.3-8.36,1.06-10.48,5.46a8.66,8.66,0,0,0-.89.07c-4.12.55-7.33,4.33-8.28,9.14Z"/><path id="Path_13791" data-name="Path 13791" class="cls-54" d="M1169.54,992.61h-42a3.61,3.61,0,0,1-3.32-3.6l-4.51-67.85c-.16-2.27,1.37-4.2,3.31-4.2h51c1.94,0,3.46,1.93,3.31,4.2L1172.85,989A3.6,3.6,0,0,1,1169.54,992.61Z"/><path id="Path_13792" data-name="Path 13792" class="cls-56" d="M1149.84,929h0a2.2,2.2,0,0,1,3.48,2h0a2.22,2.22,0,0,0,1.3,2.25h0a2.2,2.2,0,0,1,0,4h0a2.18,2.18,0,0,0-1.3,2.24h0a2.19,2.19,0,0,1-2,2.42,2.14,2.14,0,0,1-1.53-.41h0a2.22,2.22,0,0,0-2.6,0h0a2.2,2.2,0,0,1-3.48-2h0a2.18,2.18,0,0,0-1.3-2.24h0a2.2,2.2,0,0,1,0-4h0a2.21,2.21,0,0,0,1.3-2.25h0a2.2,2.2,0,0,1,2-2.42,2.18,2.18,0,0,1,1.52.41h0A2.19,2.19,0,0,0,1149.84,929Z"/><line id="Line_834" data-name="Line 834" class="cls-50" x1="1119.76" y1="922.98" x2="1177.32" y2="922.98"/><rect id="Rectangle_1342" data-name="Rectangle 1342" class="cls-57" x="1134.59" y="946.5" width="93.76" height="38.71" rx="9.18" transform="translate(-344.27 936.26) rotate(-38.15)"/><rect id="Rectangle_1343" data-name="Rectangle 1343" class="cls-58" x="1119.8" y="954.37" width="122.33" height="24.03" rx="8.74" transform="translate(-344.7 936.07) rotate(-38.15)"/><path id="Path_13793" data-name="Path 13793" class="cls-49" d="M1188.45,960.5a12,12,0,0,1,11.85-12.13,11.74,11.74,0,0,1,3.12.37,12,12,0,0,0,14.6-8.64,11.64,11.64,0,0,0,.37-3.12"/><path id="Path_13794" data-name="Path 13794" class="cls-49" d="M1158.51,984a12,12,0,0,1,11.85-12.14,11.75,11.75,0,0,1,3.12.38,12,12,0,0,0,14.6-8.64,11.74,11.74,0,0,0,.37-3.12"/><path id="Path_13795" data-name="Path 13795" class="cls-49" d="M1173.48,972.27a12,12,0,0,0-14.59,8.63,12.25,12.25,0,0,0-.38,3.13,12,12,0,0,1-11.85,12.14,12.17,12.17,0,0,1-3.12-.38"/><path id="Path_13796" data-name="Path 13796" class="cls-56" d="M1047.59,941l0-.13c-1-4.51-4.23-7.47-7.75-7.58-.13-.28-.27-.56-.42-.82-2.18-3.8-6-5.19-9.33-3.77-.2-.2-.4-.4-.62-.59a6.93,6.93,0,0,0-9.78.51h0a6.61,6.61,0,0,0-.74-.28c-3.6-1.13-7.22.91-9,4.71l-.78.06c-3.55.48-6.32,3.74-7.14,7.89Z"/><path id="Path_13797" data-name="Path 13797" class="cls-54" d="M1042.91,1006.35h-36.28a3.1,3.1,0,0,1-2.86-3.11l-3.9-58.61a3.2,3.2,0,0,1,2.71-3.62h44.24a3.19,3.19,0,0,1,2.87,3.48.77.77,0,0,0,0,.15l-3.9,58.61A3.1,3.1,0,0,1,1042.91,1006.35Z"/><path id="Path_13798" data-name="Path 13798" class="cls-56" d="M1025.89,951.38h0a1.91,1.91,0,0,1,3,1.74h0a1.89,1.89,0,0,0,1.12,1.94h0a1.9,1.9,0,0,1,1,2.51,1.87,1.87,0,0,1-1,1h0a1.9,1.9,0,0,0-1.12,1.94h0a1.9,1.9,0,0,1-3,1.74h0a1.89,1.89,0,0,0-2.24,0h0a1.9,1.9,0,0,1-2.66-.42,1.93,1.93,0,0,1-.35-1.32h0a1.9,1.9,0,0,0-1.12-1.94h0a1.9,1.9,0,0,1-1-2.51,1.87,1.87,0,0,1,1-1h0a1.89,1.89,0,0,0,1.12-1.94h0a1.9,1.9,0,0,1,1.69-2.09,1.93,1.93,0,0,1,1.32.35h0A1.89,1.89,0,0,0,1025.89,951.38Z"/><line id="Line_835" data-name="Line 835" class="cls-50" x1="999.91" y1="946.2" x2="1049.63" y2="946.2"/><g id="Group_2645" data-name="Group 2645"><path id="Path_146" data-name="Path 146" class="cls-59" d="M1467.63,894.46a12.71,12.71,0,0,0-6.58,2.53,10.7,10.7,0,0,0-4.23,8.7c-.09,15-.14,30,0,44.94.07,6.53,4.76,11.18,11.47,11.2q41.51.12,83,0c6.75,0,11.41-4.84,11.51-11.6,0-3.12-.06-6.24,0-9.36a1.85,1.85,0,0,0-1.5-2.13l-.14,0a10.17,10.17,0,0,1-6.94-5.89,11.11,11.11,0,0,1,6.54-15.24c2.07-.72,2-.43,2-2.67,0-2.76,0-5.53,0-8.29a11.88,11.88,0,0,0-3-8.52,11.66,11.66,0,0,0-8.93-3.65h-83.15"/><line id="Line_93" data-name="Line 93" class="cls-60" x1="1500.07" y1="914.82" x2="1482.12" y2="943.56"/><ellipse id="Ellipse_58" data-name="Ellipse 58" class="cls-60" cx="1482.12" cy="917.88" rx="5.97" ry="7.56"/><ellipse id="Ellipse_59" data-name="Ellipse 59" class="cls-60" cx="1500.62" cy="938.58" rx="5.97" ry="7.56"/><line id="Line_94" data-name="Line 94" class="cls-60" x1="1530.93" y1="899.64" x2="1530.93" y2="909.07"/><line id="Line_95" data-name="Line 95" class="cls-60" x1="1530.93" y1="915.11" x2="1530.93" y2="924.54"/><line id="Line_96" data-name="Line 96" class="cls-60" x1="1530.93" y1="930.59" x2="1530.93" y2="940.02"/><line id="Line_97" data-name="Line 97" class="cls-60" x1="1530.93" y1="946.06" x2="1530.93" y2="955.49"/></g><g id="Group_2646" data-name="Group 2646"><g id="Group_209" data-name="Group 209"><path id="Path_142" data-name="Path 142" class="cls-60" d="M1719.22,910.67H1614.16"/><path id="Path_143" data-name="Path 143" class="cls-60" d="M1719.22,923.39H1614.16"/><path id="Path_144" data-name="Path 144" class="cls-60" d="M1684.84,948.5h-30.32"/><path id="Path_145" data-name="Path 145" class="cls-60" d="M1648.5,948.5h-18.09"/><path id="Path_141" data-name="Path 141" class="cls-59" d="M1614,929.7a3.3,3.3,0,0,0-.38,1.8c0,8.59,0,17.19,0,25.78a9.31,9.31,0,0,0,6.3,9.23,13.16,13.16,0,0,0,4.92.9h83.55c5.42,0,9.85-2.65,11-7.87a10.63,10.63,0,0,0,.25-2.25c0-8.59.11-17.19,0-25.78,0-3.16.19-6.3.08-9.46s.14-6.24-.07-9.34.4-6.46-.08-9.69a9.51,9.51,0,0,0-6.94-7.9,16.91,16.91,0,0,0-4.8-.66h-82.66c-3.76,0-7,1.07-9.33,3.83a9.53,9.53,0,0,0-2.16,6.18,36.47,36.47,0,0,0,0,4c.31,3.2-.16,6.38,0,9.58s0,6.3,0,9.45a3.86,3.86,0,0,0,.45,2"/></g></g><line id="Line_836" data-name="Line 836" class="cls-24" x1="82.73" y1="794.22" x2="1723.23" y2="794.22"/><g id="Account" class="cls-3"><text class="cls-61" transform="translate(972.81 1862.72)">Account</text></g><g id="Ticket_used" data-name="Ticket used" class="cls-3"><text class="cls-61" transform="translate(1398.98 1862.72)">Tic<tspan class="cls-10" x="27.26" y="0">k</tspan><tspan x="37.2" y="0">et used</tspan></text></g><g id="Social_media_Link" data-name="Social media Link" class="cls-3"><text class="cls-9" transform="translate(1127.77 1860.72)">Social media &amp; Link</text></g><g id="Component_25_1" data-name="Component 25 1"><path id="Path_49" data-name="Path 49" class="cls-25" d="M1018,1890.85A45.15,45.15,0,1,0,1063.1,1936h0a45.16,45.16,0,0,0-45.14-45.15Zm-.43,27.09c9.3,0,16,6.82,16,16s-6.73,15.81-16,16.08c-9.27-.27-16-6.84-16-16.08s6.88-16,16-16ZM991,1970.14a19.74,19.74,0,0,1,1.39-2.94,21.61,21.61,0,0,1,12.28-9.92,26.22,26.22,0,0,1,8.16-1.18c3.24,0,6.48,0,9.72,0a23.67,23.67,0,0,1,11.86,3,21.07,21.07,0,0,1,9.69,11.57,43.46,43.46,0,0,1-53.1-.57Z"/></g><g id="Group_2651" data-name="Group 2651"><path id="Path_57" data-name="Path 57" class="cls-25" d="M1289.05,1888.26a45.15,45.15,0,1,1-45.19,45.22,45.15,45.15,0,0,1,45.19-45.22Zm-41.66,45.17a41.61,41.61,0,1,0,0-.09Z"/><path id="Path_61" data-name="Path 61" class="cls-25" d="M1299.77,1924.18c-.3,3.16-.57,6.14-.86,9.21h-6.79v23H1283v-22.93h-4.6v-9.2h4.53c0-1.4-.06-2.67,0-3.93a17.59,17.59,0,0,1,.48-3.68c.9-3.13,2.94-5.37,6.19-5.82s6.65-.38,10-.53v8H1295c-1.87,0-2.5.63-2.52,2.53,0,1,0,2,0,3a2.7,2.7,0,0,0,.08.39Z"/></g><g id="Group_2653" data-name="Group 2653"><path id="Path_58" data-name="Path 58" class="cls-25" d="M1174.24,2004.75a45.15,45.15,0,1,1-45.19,45.23,45.15,45.15,0,0,1,45.19-45.23Zm-41.66,45.18a41.61,41.61,0,1,0,0-.1Z"/><path id="Path_62" data-name="Path 62" class="cls-25" d="M1194.38,2050c0,3.05.11,6.11,0,9.16-.2,4.28-1.88,7.8-5.78,10a11.64,11.64,0,0,1-5.56,1.48c-6.22.07-12.44.14-18.65,0a11,11,0,0,1-9.67-5.4,11.92,11.92,0,0,1-1.69-6c-.11-5.34-.14-10.69-.13-16a18.68,18.68,0,0,1,.93-6.63,10.6,10.6,0,0,1,8.61-7,34.35,34.35,0,0,1,5.27-.4q6.21-.08,12.44,0a19.7,19.7,0,0,1,7.07,1,10.57,10.57,0,0,1,6.89,8.52,38.37,38.37,0,0,1,.41,5.46c.07,2,0,3.93,0,5.9Zm-3.57-.06h-.09c0-1.7,0-3.41,0-5.11s-.1-3.4-.27-5.09a6.89,6.89,0,0,0-5.4-6.29,22.23,22.23,0,0,0-4.53-.52c-2.92-.09-5.84-.09-8.77,0-2.77,0-5.54.1-8.3.31a6.8,6.8,0,0,0-6.25,5.35,22.75,22.75,0,0,0-.53,4.79c-.07,4.3,0,8.6,0,12.9a28.76,28.76,0,0,0,.27,4c.49,3.13,2.15,5.38,5.33,6.15a20.18,20.18,0,0,0,4.58.53c4.56.07,9.13,0,13.69,0a25.25,25.25,0,0,0,3.25-.24c4.33-.55,6.54-3.41,6.78-7.49.19-3.09.19-6.2.26-9.29Z"/><path id="Path_63" data-name="Path 63" class="cls-25" d="M1184.41,2050a10.74,10.74,0,1,1-10.74-10.72A10.73,10.73,0,0,1,1184.41,2050Zm-17.68,0a6.95,6.95,0,1,0,7-6.93,6.95,6.95,0,0,0-7,6.93Z"/><path id="Path_64" data-name="Path 64" class="cls-25" d="M1184.81,2041.32a2.41,2.41,0,0,1-2.5-2.32v-.12a2.44,2.44,0,0,1,2.33-2.54h.08a2.47,2.47,0,0,1,2.58,2.35v.11a2.43,2.43,0,0,1-2.33,2.53Z"/></g><g id="Group_2652" data-name="Group 2652"><path id="Path_59" data-name="Path 59" class="cls-25" d="M1290.33,2004.75a45.15,45.15,0,1,1-45.18,45.23,45.14,45.14,0,0,1,45.18-45.23Zm-41.65,45.18a41.62,41.62,0,1,0,0-.09v.09Z"/><path id="Path_65" data-name="Path 65" class="cls-25" d="M1314.6,2049.9h-1.41a22.89,22.89,0,1,1-6.7-16.19,22.89,22.89,0,0,1,6.7,16.19H1316a25.7,25.7,0,1,0-25.7,25.7,25.7,25.7,0,0,0,25.7-25.7Z"/><path id="Path_66" data-name="Path 66" class="cls-25" d="M1302.54,2049.9h-1.41a37.8,37.8,0,0,1-3.43,16.55,15.18,15.18,0,0,1-3.54,4.76,5.52,5.52,0,0,1-7.72,0,18.54,18.54,0,0,1-5-8.18,41.48,41.48,0,0,1-2-13.13,37.77,37.77,0,0,1,3.43-16.55,14.81,14.81,0,0,1,3.54-4.76,5.5,5.5,0,0,1,7.72,0,18.48,18.48,0,0,1,5,8.18,41.48,41.48,0,0,1,2,13.13H1304a40.57,40.57,0,0,0-3.74-17.82,17.8,17.8,0,0,0-4.24-5.65,8.31,8.31,0,0,0-11.34,0c-2.48,2.1-4.43,5.39-5.81,9.43a44,44,0,0,0-2.17,14,40.52,40.52,0,0,0,3.74,17.81,17.69,17.69,0,0,0,4.24,5.65,8.29,8.29,0,0,0,11.34,0c2.48-2.09,4.43-5.38,5.81-9.42a44.05,44.05,0,0,0,2.17-14Z"/><path id="Path_67" data-name="Path 67" class="cls-25" d="M1288.89,2025.6v48.6h2.82v-48.6"/><path id="Path_68" data-name="Path 68" class="cls-25" d="M1264.59,2048.05a2.51,2.51,0,0,0,.3,1.13,3.93,3.93,0,0,0,1.37,1.35A14.32,14.32,0,0,0,1270,2052a57.52,57.52,0,0,0,8.74,1.44c3.46.35,7.39.54,11.56.54a99.88,99.88,0,0,0,17.44-1.35,25.85,25.85,0,0,0,5.52-1.53,6.51,6.51,0,0,0,1.8-1.09,3.06,3.06,0,0,0,.65-.82,2.25,2.25,0,0,0,.3-1.13h-2.37l-.39-.22a.42.42,0,0,0,0,.22h.44l-.39-.22.07,0-.07,0h0l.07,0-.07,0a1.89,1.89,0,0,1-.5.38,12.89,12.89,0,0,1-3.06,1.11,56,56,0,0,1-8.25,1.33c-3.32.32-7.1.51-11.13.51a97.81,97.81,0,0,1-16.92-1.3,23.7,23.7,0,0,1-4.9-1.34,4.33,4.33,0,0,1-1-.6l-.07-.08h0l-.35.22h.4a.54.54,0,0,0-.05-.22l-.36.22h-2.42Z"/></g><g id="Group_2654" data-name="Group 2654"><path id="Path_60" data-name="Path 60" class="cls-25" d="M1173,1888.26a45.15,45.15,0,1,1-45.18,45.22,45.15,45.15,0,0,1,45.18-45.22Zm-41.65,45.17a41.61,41.61,0,1,0,0-.09Z"/><path id="Path_69" data-name="Path 69" class="cls-25" d="M1153.94,1933.74v-.62c0-.2,0-.4.07-.6.1-.94.14-1.88.32-2.8a19.23,19.23,0,0,1,18-15.64,18.69,18.69,0,0,1,10.2,2.24,18.37,18.37,0,0,1,3.8,2.8l-5.25,5.05-.17-.12a11,11,0,0,0-11.37-2.2,12.28,12.28,0,0,0-3.85,20.9,11.74,11.74,0,0,0,10.71,2.5,10,10,0,0,0,7.67-6.9c.11-.34.17-.69.27-1.1h-11v-6.64h17.71a.75.75,0,0,1,.26,0c.12.07.29.17.31.27a12.52,12.52,0,0,1,.19,1.35,20.56,20.56,0,0,1-1,8.42c-2.38,6.86-7.25,10.73-14.37,11.86-.89.14-1.8.18-2.71.27h-.7l-1.53-.12a19.22,19.22,0,0,1-8.9-3.14,18.94,18.94,0,0,1-8.42-13.25C1154.07,1935.43,1154,1934.58,1153.94,1933.74Z"/></g><g id="Component_26_1" data-name="Component 26 1"><path id="Path_98" data-name="Path 98" class="cls-50" d="M689.28,1476.35c.62-.59,1.15-1.11,1.7-1.6a12.29,12.29,0,0,1,9.9-3.06,12.46,12.46,0,0,1,10.66,9.52,13.22,13.22,0,0,1-4,13.21L692,1509a3.64,3.64,0,0,1-5.14.09l-.09-.09q-7.83-7.33-15.64-14.69a12.91,12.91,0,0,1-3.84-6.21c-2-7.74,2.3-14.94,10-16.36a12,12,0,0,1,11.17,3.61C688.7,1475.69,689,1476,689.28,1476.35Z"/></g><g id="Component_28_1" data-name="Component 28 1"><circle id="Ellipse_43-2" data-name="Ellipse 43-2" class="cls-38" cx="695.8" cy="1651.39" r="29.02"/><path id="Polygon_8" data-name="Polygon 8" class="cls-2" d="M708.24,1650.39a1,1,0,0,1,0,1.74l-18,10.4a1,1,0,0,1-1.37-.37,1.06,1.06,0,0,1-.13-.5v-20.8a1,1,0,0,1,1-1,1,1,0,0,1,.5.14Z"/></g><g id="Like" class="cls-3"><text class="cls-9" transform="translate(666.78 1443.82)">Li<tspan class="cls-10" x="12.49" y="0">k</tspan><tspan x="20.45" y="0">e</tspan></text></g><g id="Play" class="cls-3"><text class="cls-9" transform="translate(666.78 1595.63)">Pl<tspan class="cls-7" x="13.98" y="0">a</tspan><tspan x="22.56" y="0">y</tspan></text></g><g id="Cancel" class="cls-3"><text class="cls-9" transform="translate(666.78 1764.96)">Cancel</text></g><g id="Add_Eliminate" data-name="Add Eliminate" class="cls-3"><text class="cls-9" transform="translate(666.78 1935.24)">Add &amp; Eliminate</text></g><g id="Component_26_2" data-name="Component 26 2"><path id="Path_98-2" data-name="Path 98-2" class="cls-50" d="M689.28,1476.35c.62-.59,1.15-1.11,1.7-1.6a12.29,12.29,0,0,1,9.9-3.06,12.46,12.46,0,0,1,10.66,9.52,13.22,13.22,0,0,1-4,13.21L692,1509a3.64,3.64,0,0,1-5.14.09l-.09-.09q-7.83-7.33-15.64-14.69a12.91,12.91,0,0,1-3.84-6.21c-2-7.74,2.3-14.94,10-16.36a12,12,0,0,1,11.17,3.61C688.7,1475.69,689,1476,689.28,1476.35Z"/></g><path id="Path_13800" data-name="Path 13800" class="cls-62" d="M760.22,1476.35c.63-.59,1.16-1.11,1.71-1.6a12.29,12.29,0,0,1,9.9-3.06,12.46,12.46,0,0,1,10.66,9.52,13.22,13.22,0,0,1-4,13.21L762.92,1509a3.64,3.64,0,0,1-5.14.09l-.09-.09q-7.85-7.33-15.65-14.69a12.9,12.9,0,0,1-3.83-6.21c-2-7.74,2.3-14.94,10-16.36a12,12,0,0,1,11.17,3.61C759.65,1475.69,759.92,1476,760.22,1476.35Z"/><g id="Component_42_1" data-name="Component 42 1"><circle id="Ellipse_43-3" data-name="Ellipse 43-3" class="cls-37" cx="695.8" cy="1821.72" r="29.02"/><line id="Line_80" data-name="Line 80" class="cls-63" x1="686.16" y1="1831.35" x2="705.44" y2="1812.08"/><line id="Line_81" data-name="Line 81" class="cls-63" x1="686.16" y1="1812.08" x2="705.44" y2="1831.36"/></g><g id="Component_43_1" data-name="Component 43 1"><circle id="Ellipse_43-4" data-name="Ellipse 43-4" class="cls-37" cx="695.8" cy="1991.99" r="29.02"/><line id="Line_80-2" data-name="Line 80-2" class="cls-64" x1="682.17" y1="1991.99" x2="709.43" y2="1991.99"/><line id="Line_81-2" data-name="Line 81-2" class="cls-64" x1="695.8" y1="1978.36" x2="695.8" y2="2005.62"/></g><g id="Component_44_1" data-name="Component 44 1"><circle id="Ellipse_43-5" data-name="Ellipse 43-5" class="cls-37" cx="779.65" cy="1991.99" r="29.02"/><line id="Line_80-3" data-name="Line 80-3" class="cls-64" x1="766.02" y1="1991.99" x2="793.28" y2="1991.99"/></g><g id="Component_45_1" data-name="Component 45 1"><circle id="Ellipse_43-6" data-name="Ellipse 43-6" class="cls-65" cx="863.5" cy="1991.99" r="29.02"/><line id="Line_80-4" data-name="Line 80-4" class="cls-66" x1="849.87" y1="1991.99" x2="877.13" y2="1991.99"/></g><g id="Group_2648" data-name="Group 2648"><g id="Group_207" data-name="Group 207"><line id="Line_102" data-name="Line 102" class="cls-67" x1="1434.58" y1="1934.37" x2="1445.54" y2="1926.16"/><line id="Line_103" data-name="Line 103" class="cls-67" x1="1434.58" y1="1939.58" x2="1445.54" y2="1947.79"/><circle id="Ellipse_60" data-name="Ellipse 60" class="cls-67" cx="1452.76" cy="1922.53" r="7.22"/><circle id="Ellipse_61" data-name="Ellipse 61" class="cls-67" cx="1452.76" cy="1951.43" r="7.22"/><circle id="Ellipse_62" data-name="Ellipse 62" class="cls-67" cx="1427.36" cy="1936.98" r="7.22"/></g><g id="Ellipse_98" data-name="Ellipse 98"><circle class="cls-1" cx="1444.27" cy="1935.86" r="45.29"/><circle class="cls-68" cx="1444.27" cy="1935.86" r="44.54"/></g></g><g id="Group_2649" data-name="Group 2649"><g id="Union_7" data-name="Union 7"><path class="cls-1" d="M1560.08,1949.57l-16-17.07a1,1,0,0,1,0-1.42,1,1,0,0,1,.69-.27H1554v-15.08a1.49,1.49,0,0,1,1.48-1.49h10.76a1.48,1.48,0,0,1,1.48,1.48h0v15.08h9.14a1,1,0,0,1,1,1,1,1,0,0,1-.27.69l-16,17.07a1,1,0,0,1-1.41,0l-.05,0Z"/><path class="cls-25" d="M1560.81,1948.15l14.84-15.84h-9.48v-16.56h-10.72v16.56H1546l14.84,15.84m0,1.73a1,1,0,0,1-.73-.31l-16-17.07a1,1,0,0,1,.73-1.69H1554v-15.08a1.48,1.48,0,0,1,1.48-1.48h10.76a1.48,1.48,0,0,1,1.48,1.48v15.08h9.14a1,1,0,0,1,.73,1.69l-16,17.07A1,1,0,0,1,1560.81,1949.88Z"/></g><line id="Line_114" data-name="Line 114" class="cls-69" x1="1549.51" y1="1955.65" x2="1571.72" y2="1955.65"/><g id="Ellipse_99" data-name="Ellipse 99"><circle class="cls-1" cx="1561.5" cy="1935.86" r="45.29"/><circle class="cls-68" cx="1561.5" cy="1935.86" r="44.54"/></g></g><g id="Group_2650" data-name="Group 2650"><g id="Ellipse_100" data-name="Ellipse 100"><circle class="cls-1" cx="1677.44" cy="1935.86" r="45.29"/><circle class="cls-68" cx="1677.44" cy="1935.86" r="44.54"/></g><g id="Rectangle_256" data-name="Rectangle 256"><rect class="cls-1" x="1661.37" y="1911.02" width="32.14" height="49.68" rx="2"/><rect class="cls-68" x="1662.12" y="1911.77" width="30.64" height="48.18" rx="1.25"/></g><g id="Rectangle_257" data-name="Rectangle 257"><path id="fill" class="cls-1" d="M1672.33,1915.4H1684a.74.74,0,0,1,.74.73h0a.73.73,0,0,1-.74.73h-11.68a.72.72,0,0,1-.73-.73h0A.73.73,0,0,1,1672.33,1915.4Z"/><g class="cls-70"><path class="cls-68" d="M1671.6,1916.11h13.14m-.75-.71v1.46m.75-.71H1671.6m.75.71v-1.46"/></g></g><g id="Rectangle_258" data-name="Rectangle 258"><path class="cls-1" d="M1677.44,1954.85h1.46a1.46,1.46,0,0,1,1.46,1.46h0a1.46,1.46,0,0,1-1.46,1.46h-1.46a1.46,1.46,0,0,1-1.46-1.46h0A1.46,1.46,0,0,1,1677.44,1954.85Z"/><path class="cls-68" d="M1677.44,1955.6h1.46a.71.71,0,0,1,.71.71h0a.71.71,0,0,1-.71.71h-1.46a.71.71,0,0,1-.71-.71h0A.71.71,0,0,1,1677.44,1955.6Z"/></g><line id="Line_115" data-name="Line 115" class="cls-69" x1="1664.04" y1="1952.15" x2="1692.04" y2="1952.15"/></g><g id="Buttons" class="cls-3"><text class="cls-29" transform="translate(82.73 1177.72)">B<tspan class="cls-71" x="18.54" y="0">u</tspan><tspan class="cls-72" x="35.94" y="0">t</tspan><tspan class="cls-32" x="47.52" y="0">t</tspan><tspan class="cls-73" x="58.59" y="0">o</tspan><tspan class="cls-74" x="76.14" y="0">n</tspan><tspan class="cls-21" x="92.91" y="0">s</tspan></text></g><g id="Filter" class="cls-3"><text class="cls-9" transform="translate(82.73 1251.72)">Filter</text></g><g id="Dropdown" class="cls-3"><text class="cls-9" transform="translate(82.73 1439.25)">D<tspan class="cls-10" x="10.49" y="0">r</tspan><tspan x="15.75" y="0">opdown</tspan></text></g><g id="Next" class="cls-3"><text class="cls-9" transform="translate(972.81 1249.65)">Next</text></g><g id="Button" class="cls-3"><text class="cls-9" transform="translate(972.81 1535.13)">But<tspan class="cls-10" x="24.01" y="0">t</tspan><tspan x="29.08" y="0">on</tspan></text></g><g id="Disabled" class="cls-3"><text class="cls-41" transform="translate(945.82 1406.47)">Disabled</text></g><g id="Enabled" class="cls-3"><text class="cls-41" transform="translate(1089.77 1405.18)">Enabled</text></g><g id="Mobile_size" data-name="Mobile size" class="cls-3"><text class="cls-41" transform="translate(1571.35 1551.51)">Mobile si<tspan class="cls-75" x="56.36" y="0">z</tspan><tspan x="63.18" y="0">e</tspan></text></g><g id="filter1"><rect id="Rectangle_120" data-name="Rectangle 120" class="cls-36" x="82.73" y="1279.45" width="386.99" height="69.66"/><g id="Label" class="cls-3"><text class="cls-76" transform="translate(243.98 1322.8)">Label</text></g></g><g id="filter2"><g id="Rectangle_121" data-name="Rectangle 121"><rect class="cls-1" x="482.62" y="1279.45" width="386.99" height="69.66"/><rect class="cls-77" x="483.12" y="1279.95" width="385.99" height="68.66"/></g><g id="Label-2" class="cls-3"><text class="cls-78" transform="translate(643.87 1322.8)">Label</text></g></g><g id="Dropdown-2"><g id="Rectangle_122" data-name="Rectangle 122"><rect class="cls-1" x="82.73" y="1466.98" width="473" height="76.47"/><rect class="cls-77" x="83.23" y="1467.48" width="472" height="75.47"/></g><g id="Label-3" class="cls-3"><text class="cls-79" transform="translate(247.01 1513.22)">Label</text></g><path id="Polygon_7" data-name="Polygon 7" class="cls-36" d="M507.16,1523.71a2,2,0,0,1-2.76.65,1.9,1.9,0,0,1-.64-.65l-18.36-29.6a2,2,0,0,1,.64-2.76,2.1,2.1,0,0,1,1.06-.3h36.71a2,2,0,0,1,1.7,3.06Z"/></g><g id="Component_21_1" data-name="Component 21 1"><circle id="Ellipse_9" data-name="Ellipse 9" class="cls-65" cx="1024.41" cy="1328.97" r="51.6"/><path id="Path_2" data-name="Path 2" class="cls-80" d="M1014.09,1349.82l20.64-20.64-15.48-15.48-5.16-5.16"/></g><g id="Component_23_1" data-name="Component 23 1"><circle id="Ellipse_36-2" data-name="Ellipse 36-2" class="cls-37" cx="1166.31" cy="1328.97" r="51.6"/><path id="Path_42" data-name="Path 42" class="cls-81" d="M1156,1349.82l20.64-20.64-15.48-15.48-5.16-5.16"/></g><g id="btn1"><rect id="Rectangle_14-2" data-name="Rectangle 14-2" class="cls-37" x="972.81" y="1559.85" width="206.39" height="58.05" rx="4"/><g id="Label-4" class="cls-3"><text class="cls-82" transform="translate(1051.34 1596.13)">Label</text></g></g><g id="btn2"><rect id="Rectangle_124-2" data-name="Rectangle 124-2" class="cls-38" x="972.81" y="1656.6" width="206.39" height="58.05" rx="4"/><g id="Label-5" class="cls-3"><text class="cls-82" transform="translate(1051.34 1692.88)">Label</text></g></g><g id="btn1-1"><g id="Rectangle_123" data-name="Rectangle 123"><rect class="cls-1" x="1214.03" y="1563.72" width="202.52" height="54.18" rx="4"/><rect class="cls-83" x="1213.03" y="1562.72" width="204.52" height="56.18" rx="5"/></g><g id="Lable" class="cls-3"><text class="cls-84" transform="translate(1291.27 1598.2)">Lable</text></g></g><g id="btn2-1"><g id="Rectangle_125" data-name="Rectangle 125"><rect class="cls-1" x="1214.03" y="1656.6" width="206.39" height="58.05" rx="4"/><rect class="cls-85" x="1215.03" y="1657.6" width="204.39" height="56.05" rx="3"/></g><g id="Label-6" class="cls-3"><text class="cls-86" transform="translate(1292.56 1692.88)">Label</text></g></g><g id="Component_30_1" data-name="Component 30 1"><g id="Rectangle_125-2" data-name="Rectangle 125-2"><rect class="cls-1" x="1453.96" y="1655.31" width="206.39" height="58.05" rx="4"/><rect class="cls-87" x="1454.96" y="1656.31" width="204.39" height="56.05" rx="3"/></g><g id="Label-7" class="cls-3"><text class="cls-88" transform="translate(1526.98 1691.85)">Label</text></g></g><g id="Group_2647" data-name="Group 2647"><g id="Rectangle_131" data-name="Rectangle 131"><rect class="cls-2" x="82.73" y="1614.97" width="473" height="480.08"/><rect class="cls-77" x="83.23" y="1615.47" width="472" height="479.08"/></g><rect id="Rectangle_130-6" data-name="Rectangle 130-6" class="cls-2" x="82.73" y="1614.97" width="473" height="76.47"/><g id="Label-8" class="cls-3"><text class="cls-79" transform="translate(207.36 1661.21)">Label</text></g><g id="Ellipse_37" data-name="Ellipse 37"><circle class="cls-2" cx="496.25" cy="1653.2" r="21.24"/><circle class="cls-89" cx="496.25" cy="1653.2" r="20.24"/></g><rect id="Rectangle_130-7" data-name="Rectangle 130-7" class="cls-2" x="82.73" y="1695.69" width="473" height="76.47"/><g id="Label-9" class="cls-3"><text class="cls-79" transform="translate(207.36 1741.93)">Label</text></g><g id="Ellipse_37-2" data-name="Ellipse 37-2"><circle class="cls-2" cx="496.25" cy="1733.92" r="21.24"/><circle class="cls-89" cx="496.25" cy="1733.92" r="20.24"/></g><circle id="Ellipse_38" data-name="Ellipse 38" class="cls-37" cx="496.25" cy="1733.92" r="14.16"/><rect id="Rectangle_130-8" data-name="Rectangle 130-8" class="cls-2" x="82.73" y="1776.41" width="473" height="76.47"/><g id="Label-10" class="cls-3"><text class="cls-79" transform="translate(207.36 1822.65)">Label</text></g><g id="Ellipse_37-3" data-name="Ellipse 37-3"><circle class="cls-2" cx="496.25" cy="1814.64" r="21.24"/><circle class="cls-89" cx="496.25" cy="1814.64" r="20.24"/></g><rect id="Rectangle_130-9" data-name="Rectangle 130-9" class="cls-2" x="82.73" y="1857.13" width="473" height="76.47"/><g id="Label-11" class="cls-3"><text class="cls-79" transform="translate(207.36 1903.37)">Label</text></g><g id="Ellipse_37-4" data-name="Ellipse 37-4"><circle class="cls-2" cx="496.25" cy="1895.37" r="21.24"/><circle class="cls-89" cx="496.25" cy="1895.37" r="20.24"/></g><rect id="Rectangle_130-10" data-name="Rectangle 130-10" class="cls-2" x="82.73" y="1937.85" width="473" height="76.47"/><g id="Label-12" class="cls-3"><text class="cls-79" transform="translate(207.36 1984.09)">Label</text></g><g id="Ellipse_37-5" data-name="Ellipse 37-5"><circle class="cls-2" cx="496.25" cy="1976.09" r="21.24"/><circle class="cls-89" cx="496.25" cy="1976.09" r="20.24"/></g><rect id="Rectangle_130-11" data-name="Rectangle 130-11" class="cls-2" x="82.73" y="2018.57" width="473" height="76.47"/><g id="Label-13" class="cls-3"><text class="cls-79" transform="translate(207.36 2064.81)">Label</text></g><g id="Ellipse_37-6" data-name="Ellipse 37-6"><circle class="cls-2" cx="496.25" cy="2056.81" r="21.24"/><circle class="cls-89" cx="496.25" cy="2056.81" r="20.24"/></g><g id="Rectangle_133" data-name="Rectangle 133"><rect class="cls-39" x="545.82" y="1614.97" width="9.91" height="480.08"/><rect class="cls-77" x="546.32" y="1615.47" width="8.91" height="479.08"/></g><rect id="Rectangle_134" data-name="Rectangle 134" class="cls-36" x="545.82" y="1614.97" width="9.91" height="143.03"/><g id="Rectangle_132" data-name="Rectangle 132"><rect class="cls-1" x="82.73" y="1614.97" width="473" height="480.08"/><rect class="cls-77" x="83.23" y="1615.47" width="472" height="479.08"/></g></g><line id="Line_837" data-name="Line 837" class="cls-90" x1="1509.43" y1="1684.98" x2="1604.89" y2="1684.98"/><g id="Enabled-2"><g id="Container"><g id="Light_Elevation_02dp" data-name="Light Elevation 02dp"><g id="Shadow"><rect id="Rectangle-4" class="cls-37" x="1571.35" y="1572.05" width="91" height="40" rx="4"/><rect id="Rectangle-5" class="cls-37" x="1571.35" y="1572.05" width="91" height="40" rx="4"/><rect id="Rectangle-6" class="cls-37" x="1571.35" y="1572.05" width="91" height="40" rx="4"/></g></g><rect id="_Color" data-name=" Color" class="cls-37" x="1571.35" y="1572.05" width="91" height="40" rx="4"/><g id="_States" data-name=" States"><rect id="States_Light_Primary_Container_100_Overlay" data-name="States Light Primary Container 100 Overlay" class="cls-37" x="1571.35" y="1572.05" width="91" height="40" rx="4"/></g></g><g id="_Label" data-name=" Label" class="cls-3"><text class="cls-91" transform="translate(1587.35 1599.05)">Lable</text></g></g><line id="Line_838" data-name="Line 838" class="cls-24" x1="82.73" y1="1197.72" x2="1723.23" y2="1197.72"/></g></svg>