<svg xmlns="http://www.w3.org/2000/svg" xmlns:xlink="http://www.w3.org/1999/xlink" width="2284" height="2381" viewBox="0 0 2284 2381">
  <defs>
    <filter id="Rectangle_1351" x="0" y="0" width="2284" height="2381" filterUnits="userSpaceOnUse">
      <feOffset dy="-1" input="SourceAlpha"/>
      <feGaussianBlur stdDeviation="3" result="blur"/>
      <feFlood flood-opacity="0.161"/>
      <feComposite operator="in" in2="blur"/>
      <feComposite in="SourceGraphic"/>
    </filter>
    <filter id="Ellipse_43" x="878.045" y="1748.813" width="64.048" height="64.049" filterUnits="userSpaceOnUse">
      <feOffset dx="2" dy="2" input="SourceAlpha"/>
      <feGaussianBlur stdDeviation="1" result="blur-2"/>
      <feFlood flood-color="#133466" flood-opacity="0.553"/>
      <feComposite operator="in" in2="blur-2"/>
      <feComposite in="SourceGraphic"/>
    </filter>
    <filter id="Ellipse_36" x="1317.971" y="1398.826" width="121.197" height="121.197" filterUnits="userSpaceOnUse">
      <feOffset dy="3" input="SourceAlpha"/>
      <feGaussianBlur stdDeviation="3" result="blur-3"/>
      <feFlood flood-opacity="0.161"/>
      <feComposite operator="in" in2="blur-3"/>
      <feComposite in="SourceGraphic"/>
    </filter>
    <filter id="Rectangle_14" x="1182.575" y="1685.805" width="215.394" height="67.049" filterUnits="userSpaceOnUse">
      <feOffset dx="2" dy="3" input="SourceAlpha"/>
      <feGaussianBlur stdDeviation="1.5" result="blur-4"/>
      <feFlood flood-color="#d06a6c" flood-opacity="0.506"/>
      <feComposite operator="in" in2="blur-4"/>
      <feComposite in="SourceGraphic"/>
    </filter>
    <filter id="Rectangle_124" x="1182.575" y="1782.552" width="215.394" height="67.049" filterUnits="userSpaceOnUse">
      <feOffset dx="2" dy="3" input="SourceAlpha"/>
      <feGaussianBlur stdDeviation="1.5" result="blur-5"/>
      <feFlood flood-color="#2d61af" flood-opacity="0.627"/>
      <feComposite operator="in" in2="blur-5"/>
      <feComposite in="SourceGraphic"/>
    </filter>
    <filter id="Rectangle_130" x="293.5" y="1741.916" width="475.998" height="79.473" filterUnits="userSpaceOnUse">
      <feOffset dy="1" input="SourceAlpha"/>
      <feGaussianBlur stdDeviation="0.5" result="blur-6"/>
      <feFlood flood-color="#efc8c9"/>
      <feComposite operator="in" in2="blur-6"/>
      <feComposite in="SourceGraphic"/>
    </filter>
    <filter id="Rectangle_130-2" x="293.5" y="1822.638" width="475.998" height="79.473" filterUnits="userSpaceOnUse">
      <feOffset dy="1" input="SourceAlpha"/>
      <feGaussianBlur stdDeviation="0.5" result="blur-7"/>
      <feFlood flood-color="#efc8c9"/>
      <feComposite operator="in" in2="blur-7"/>
      <feComposite in="SourceGraphic"/>
    </filter>
    <filter id="Rectangle_130-3" x="293.5" y="1903.358" width="475.998" height="79.473" filterUnits="userSpaceOnUse">
      <feOffset dy="1" input="SourceAlpha"/>
      <feGaussianBlur stdDeviation="0.5" result="blur-8"/>
      <feFlood flood-color="#efc8c9"/>
      <feComposite operator="in" in2="blur-8"/>
      <feComposite in="SourceGraphic"/>
    </filter>
    <filter id="Rectangle_130-4" x="293.5" y="1984.08" width="475.998" height="79.473" filterUnits="userSpaceOnUse">
      <feOffset dy="1" input="SourceAlpha"/>
      <feGaussianBlur stdDeviation="0.5" result="blur-9"/>
      <feFlood flood-color="#efc8c9"/>
      <feComposite operator="in" in2="blur-9"/>
      <feComposite in="SourceGraphic"/>
    </filter>
    <filter id="Rectangle_130-5" x="293.5" y="2064.801" width="475.998" height="79.473" filterUnits="userSpaceOnUse">
      <feOffset dy="1" input="SourceAlpha"/>
      <feGaussianBlur stdDeviation="0.5" result="blur-10"/>
      <feFlood flood-color="#efc8c9"/>
      <feComposite operator="in" in2="blur-10"/>
      <feComposite in="SourceGraphic"/>
    </filter>
    <filter id="Rectangle" x="1776.118" y="1692.999" width="106" height="55" filterUnits="userSpaceOnUse">
      <feOffset dy="1" input="SourceAlpha"/>
      <feGaussianBlur stdDeviation="2.5" result="blur-11"/>
      <feFlood flood-opacity="0.2"/>
      <feComposite operator="in" in2="blur-11"/>
      <feComposite in="SourceGraphic"/>
    </filter>
    <filter id="Rectangle-2" x="1782.118" y="1699.499" width="94" height="44.5" filterUnits="userSpaceOnUse">
      <feOffset dy="3" input="SourceAlpha"/>
      <feGaussianBlur stdDeviation="0.5" result="blur-12"/>
      <feFlood flood-opacity="0.122"/>
      <feComposite operator="in" in2="blur-12"/>
      <feComposite in="SourceGraphic"/>
    </filter>
    <filter id="Rectangle-3" x="1780.618" y="1698.499" width="97" height="46" filterUnits="userSpaceOnUse">
      <feOffset dy="2" input="SourceAlpha"/>
      <feGaussianBlur stdDeviation="1" result="blur-13"/>
      <feFlood flood-opacity="0.141"/>
      <feComposite operator="in" in2="blur-13"/>
      <feComposite in="SourceGraphic"/>
    </filter>
    <clipPath id="clip">
      <use xlink:href="#fill"/>
    </clipPath>
  </defs>
  <g id="Group_2681" data-name="Group 2681" transform="translate(155 -7703)">
    <g transform="matrix(1, 0, 0, 1, -155, 7703)" filter="url(#Rectangle_1351)">
      <rect id="Rectangle_1351-2" data-name="Rectangle 1351" width="2266" height="2363" transform="translate(9 10)" fill="#fff"/>
    </g>
    <text id="Heading_2_Georgia_30px" data-name="Heading 2
Georgia, 30px" transform="translate(674 8093.169)" fill="#0d0d0d" font-size="30" font-family="Georgia-Bold, Georgia" font-weight="700"><tspan x="0" y="28">Heading 2</tspan><tspan x="0" y="63">Georgia, 30px</tspan></text>
    <text id="Heading_1_Roboto_45px" data-name="Heading 1
Roboto, 45px" transform="translate(674 7969.169)" fill="#0d0d0d" font-size="45" font-family="Roboto-Bold, Roboto" font-weight="700"><tspan x="0" y="42">Heading 1</tspan><tspan x="0" y="95">Roboto, 45px</tspan></text>
    <text id="Heading_3_Roboto_Medium_21px" data-name="Heading 3
Roboto Medium, 21px" transform="translate(674 8185.169)" fill="#0d0d0d" font-size="21" font-family="Roboto-Medium, Roboto" font-weight="500"><tspan x="0" y="19">Heading 3</tspan><tspan x="0" y="43">Roboto Medium, 21px</tspan></text>
    <text id="Heading_4_Roboto_Regular_16px" data-name="Heading 4
Roboto Regular, 16px" transform="translate(674 8256.169)" fill="#0d0d0d" font-size="16" font-family="Roboto-Regular, Roboto"><tspan x="0" y="15">Heading 4</tspan><tspan x="0" y="34">Roboto Regular, 16px</tspan></text>
    <text id="Body_Text_Roboto_Regular_14px" data-name="Body Text
Roboto Regular, 14px" transform="translate(674 8314.169)" fill="#0d0d0d" font-size="14" font-family="Roboto-Regular, Roboto"><tspan x="0" y="13">Body Text</tspan><tspan x="0" y="29">Roboto Regular, 14px</tspan></text>
    <text id="Sub-Body_Text_Roboto_Light_12px" data-name="Sub-Body Text
Roboto Light, 12px" transform="translate(674 8367.169)" fill="#0d0d0d" font-size="12" font-family="Roboto-Light, Roboto" font-weight="300"><tspan x="0" y="11">Sub-Body Text</tspan><tspan x="0" y="25">Roboto Light, 12px</tspan></text>
    <text id="Sticker_Sheet" data-name="Sticker Sheet" transform="translate(140 7830)" fill="#0d0d0d" font-size="45" font-family="Roboto-Bold, Roboto" font-weight="700"><tspan x="0" y="0">Sticker Sheet</tspan></text>
    <text id="Aa" transform="translate(824 7883.169)" fill="#081426" font-size="35" font-family="Roboto-Bold, Roboto" font-weight="700"><tspan x="-21.157" y="32">Aa</tspan></text>
    <text id="Aa-2" data-name="Aa" transform="translate(902 7883.169)" fill="#081426" font-size="35" font-family="Georgia-Bold, Georgia" font-weight="700"><tspan x="-23.695" y="32">Aa</tspan></text>
    <text id="Text" transform="translate(674 7891.169)" fill="#0d0d0d" font-size="30" font-family="Apercu"><tspan x="0" y="28">Text</tspan></text>
    <text id="Roboto" transform="translate(818 7856)" fill="#0d0d0d" font-size="12" font-family="Roboto-Light, Roboto" font-weight="300"><tspan x="9.916" y="11">Roboto</tspan></text>
    <text id="Georgia" transform="translate(899 7856)" fill="#0d0d0d" font-size="12" font-family="Roboto-Light, Roboto" font-weight="300"><tspan x="8.589" y="11">Georgia</tspan></text>
    <g id="Rectangle_1328" data-name="Rectangle 1328" transform="translate(818 7874.169)" fill="none" stroke="#081426" stroke-width="0.5" stroke-dasharray="2">
      <rect width="58" height="58" stroke="none"/>
      <rect x="0.25" y="0.25" width="57.5" height="57.5" fill="none"/>
    </g>
    <g id="Rectangle_1329" data-name="Rectangle 1329" transform="translate(896 7874.169)" fill="none" stroke="#081426" stroke-width="0.5" stroke-dasharray="2">
      <rect width="64" height="58" stroke="none"/>
      <rect x="0.25" y="0.25" width="63.5" height="57.5" fill="none"/>
    </g>
    <line id="Line_831" data-name="Line 831" x2="286" transform="translate(674.5 7939.169)" fill="none" stroke="#707070" stroke-width="1"/>
    <g id="圖層_2" data-name="圖層 2" transform="translate(142.28 7991.338)">
      <g id="圖層_2-2" data-name="圖層 2">
        <path id="Path_15" data-name="Path 15" d="M36,26.89h2.238l3.651,10.747,1.178,3.74h0c0-1.678-.265-3.651-.265-5.418V26.89h2.032V44.2H42.6l-3.74-10.689-1.178-3.8h0c0,1.767.265,3.651.265,5.418V44.2H36Z" transform="translate(70.002 52.288)" fill="#133466"/>
        <path id="Path_16" data-name="Path 16" d="M47.187,38.992H42.8l-1.119,5.241H39.62L43.683,26.89h2.945L50.544,44.2h-2.12ZM46.8,37.225l-.559-2.65c-.442-1.943-.824-3.828-1.207-5.889h0c-.353,2-.8,3.887-1.207,5.889l-.559,2.65Z" transform="translate(77.041 52.288)" fill="#133466"/>
        <path id="Path_17" data-name="Path 17" d="M47.8,28.774H43.68V26.89H54.133v1.884H50.011V44.2H47.8Z" transform="translate(84.936 52.288)" fill="#133466"/>
        <path id="Path_18" data-name="Path 18" d="M47.82,42.115,49.2,40.643a4.564,4.564,0,0,0,3.475,2.12,2.356,2.356,0,0,0,2.532-2.473,3.946,3.946,0,0,0-2.267-3.475l-1.649-1.148a5.006,5.006,0,0,1-2.944-4.505A4.211,4.211,0,0,1,52.767,26.8a5.447,5.447,0,0,1,4.181,2.149L55.77,30.366a3.975,3.975,0,0,0-2.945-1.649,2.179,2.179,0,0,0-2.267,2.267c0,1.472.677,2.149,2.3,3.21l1.678,1.089a5.153,5.153,0,0,1,2.945,4.711,4.505,4.505,0,0,1-4.741,4.682A6.154,6.154,0,0,1,47.82,42.115Z" transform="translate(92.986 52.109)" fill="#133466"/>
        <path id="Path_19" data-name="Path 19" d="M51.93,38.992V26.89h2.208v12.1c0,2.738,1,3.651,2.267,3.651s2.444-.913,2.444-3.651V26.919h2.12V38.992c0,4.181-2,5.595-4.535,5.595S51.93,43.085,51.93,38.992Z" transform="translate(100.978 52.288)" fill="#133466"/>
        <path id="Path_20" data-name="Path 20" d="M35.85,45.274c0-6.1,2.738-8.834,5.889-8.834a4.858,4.858,0,0,1,3.74,1.884l-1.3,1.354a2.944,2.944,0,0,0-2.356-1.325c-1.973,0-3.769,2.12-3.769,6.978S39.737,52.4,41.886,52.4a3.121,3.121,0,0,0,2.562-1.531l1.3,1.325a5.065,5.065,0,0,1-4.063,2.12C38.529,54.2,35.85,51.428,35.85,45.274Z" transform="translate(69.71 70.858)" fill="#133466"/>
        <path id="Path_21" data-name="Path 21" d="M40,52.008h2.945V38.374H40V36.49h8.451v1.884H45.388V52.008H48.51v1.8H40Z" transform="translate(77.78 70.955)" fill="#133466"/>
        <path id="Path_22" data-name="Path 22" d="M44,36.49h2.238l3.651,10.747,1.178,3.74h0c0-1.678-.265-3.651-.265-5.418V36.49h2.032V53.8H50.6l-3.74-10.689-1.178-3.8h0c0,1.767.265,3.651.265,5.418V53.8H44Z" transform="translate(85.558 70.955)" fill="#133466"/>
        <path id="Path_23" data-name="Path 23" d="M48.14,36.49h8.421v1.884H50.319v5.506h5.065v1.855H50.319v6.3h6.242v1.855H48.14Z" transform="translate(93.608 70.955)" fill="#133466"/>
        <path id="Path_24" data-name="Path 24" d="M51.89,36.49h2.179L55.836,43.5l.589,2.945h0l.618-2.945L58.78,36.49h2.267V53.8H59.281V44.028c0-1.413.294-3.887.383-5.3h0l-.824,3.681L57.1,48.945H55.983L54.3,42.408l-.913-3.681h0c0,1.413.412,3.887.412,5.3V53.8H52.067Z" transform="translate(100.9 70.955)" fill="#133466"/>
        <path id="Path_25" data-name="Path 25" d="M63.187,48.562H58.8L57.681,53.8H55.62L59.683,36.49h2.945L66.544,53.8h-2.12ZM62.8,46.8l-.559-2.65c-.442-1.943-.824-3.828-1.207-5.889h0c-.353,2-.8,3.887-1.207,5.889l-.559,2.65Z" transform="translate(108.153 70.955)" fill="#133466"/>
        <path id="Path_26" data-name="Path 26" d="M103.941,0a12.809,12.809,0,0,0,2.326.265A8.6,8.6,0,0,1,114.836,7.1a1.678,1.678,0,0,1-.265,1.325,8.833,8.833,0,0,1-6.6,4.211c-5.889.736-11.189-1.531-16.784-2.238a72.14,72.14,0,0,0-8.833-.294c-1.649,0-3.3.442-4.917.294a35.334,35.334,0,0,0-13.015,2.032c-2.12.589-2.238,1.178-.8,2.68.913.913,6.89,5.3,9.422,4.8,0,0,14.723,2.238,16.46,2.768a4.535,4.535,0,0,1,3.8,4.976c0,5.241-.236,10.482-.324,15.724V55.3c0,2.945-.412,5.889-.353,8.834,0,3.769.412,7.538.589,11.336v4.24c0,.353-.236.736-.177,1.06a35.334,35.334,0,0,1-.854,13.456c-2.444,15.341-9.393,9.157-10.188,7.95a12.014,12.014,0,0,1-1.914-8.539q.53-3.416.8-6.8a10.483,10.483,0,0,0-.5-2.562c-3.327,2.5-29.062,25.823-34.951,32.625a74.467,74.467,0,0,1-29.946,21.878c-3.5,1.325-18.226,6.566-14.723-2.326.383-.942,1.678-1.443,2.591-2.12s10.541-7.45,10.6-7.391c16.077-5.477,27.178-17.343,39.751-28.326a7.979,7.979,0,0,0-2.032,0c-4.328,1.855-8.539,3.975-12.956,5.565-4.858,1.826-9.864,3.327-14.84,4.77a6.331,6.331,0,0,1-3.268-.559A59.8,59.8,0,0,1,13.9,106.15a35.332,35.332,0,0,1-4.034-2.385l.206-.913c2.061-.383,4.122-.824,6.183-1.178,4.417-.736,8.834-1.119,13.25-2.238a120.725,120.725,0,0,0,13.162-4.682c4.034-1.561,8.039-3.268,12.014-5.035a51.352,51.352,0,0,0,4.652-2.562c1.119-.618,2.238-1.207,3.327-1.914A39.965,39.965,0,0,0,66.575,82.3c1.884-1.443,3.563-3.71,5.653-4.181A8.834,8.834,0,0,1,80,78.589a4.123,4.123,0,0,0,.854.471c.206-.147.412-.236.412-.324,0-4,0-8.068.236-12.072.589-7.95-.324-15.841-.324-23.762,0-2.945,0-5.889-.177-8.834,0-1.472-.265-2.326-2.326-2.709-2.945-.559-6.36-.206-8.834-3.21-2-2.3-3.563-1.531-5.683.883a38.662,38.662,0,0,1-3.769,3.357l-.589-.383a17.67,17.67,0,0,1,.353-2.179c.412-1.531-.442-1.973-1.59-1.59-1.678.53-20.229,15.459-20.229,20.612a33.1,33.1,0,0,0,2.385,14.723c.854,1.826.766,4.093,2.444,5.889.471.442,0,1.914,0,2.944-1.089,4.27-2.326,8.51-3.386,12.779-.8,3.268-3.416,4.24-6.154,4.829a2.738,2.738,0,0,1-3.386-2.562,87.866,87.866,0,0,1-.206-11.484,50.056,50.056,0,0,1,1.089-11.189,56.123,56.123,0,0,0,1.06-9.835,90.484,90.484,0,0,1,1.737-10.1,6.213,6.213,0,0,1,1.737-2.738A55.15,55.15,0,0,0,45.051,30c1.767-3.5,3.857-6.625,5.742-9.982,1.06-1.973,1.943-4,3.18-6.537L32.92,20.229c-3.8,1.207-7.656,2.238-11.366,3.681-2.945,1.119-12.426,7.508-16.43,4.741C2.5,26.824,0,26.5,0,17.667c0-1.3,1.266-4.535,1.973-4.711,9.54-2.945,0,7.98,25.558,1.855,1.8-.442,3.622-.677,5.447-1.06,4.564-.913,9.128-1.914,13.721-2.768,3.5-.618,7.1-.8,10.541-1.649,7.185-1.737,14.31-3.8,21.465-5.653,2.945-.8,5.889-1.443,8.981-2.149L94.931,0Z" fill="#133466"/>
        <path id="Path_27" data-name="Path 27" d="M98.481,103.378c-5.889-.53-26.294-12.956-30.564-16.224-.913-.677-1.855-1.3-2.768-2-1.472-1.089-2.945-2.208-4.328-3.386-2.621-2.238-5.035-4.682-7.744-6.743a5.506,5.506,0,0,0-8.834,1.266,25.175,25.175,0,0,1-2.915,3.533,11.218,11.218,0,0,1-3.121,1.413,5.889,5.889,0,0,0-1.237.53c-1.06.8-1.943,2-3.121,2.414-3.8,1.354-7.715,2.385-11.542,3.622a7.42,7.42,0,0,1-6.272-.265c-.412-.236-1.207.294-1.826.294a13.1,13.1,0,0,1-2.149-.353,7.862,7.862,0,0,1,1.3-1.737,27.679,27.679,0,0,1,9.894-4.27,14.723,14.723,0,0,0,3.357-1.649c2.944-1.884,5.889-3.769,8.981-5.712a51.318,51.318,0,0,0,4.623-3.357c1.266-1.031.913-2.385-.177-3.71a24.2,24.2,0,0,0-11.925-6.507,31.772,31.772,0,0,1-5.683-2.267,2.564,2.564,0,0,1,0-2.679,6.36,6.36,0,0,1,3.151-2.032,16.2,16.2,0,0,1,10.453,2.267,79.5,79.5,0,0,0,7.921,3.563c2.473.854,3.18,0,3.916-2.414a20.111,20.111,0,0,0-.648-10.541,9.452,9.452,0,0,0-7.3-5.889,2.326,2.326,0,0,1-1.178-.648,17.667,17.667,0,0,1,1.384-3.975,2.032,2.032,0,0,1,3.092-.854l6.949,4.505a7.832,7.832,0,0,0,1.649.972,8.215,8.215,0,0,1,6.478,9.275A47.936,47.936,0,0,1,56.9,58.651c-.618,2.768-.294,3.563,2.267,4.623,3.533,1.413,6.978,2.945,10.512,4.417S93.24,78.733,96.715,79.94s7.185,2.326,10.777,3.416,15.488,2.3,19.11,3.151c5.889,1.384,11.925,2.532,17.9,3.769a6.831,6.831,0,0,1,5.33,3.121v.854a35.568,35.568,0,0,0-4.652,2.591,24.586,24.586,0,0,1-11.4,3.946c-5.359.942-19.11,1.678-24.5,2.473Z" transform="translate(23.451 67.403)" fill="#133466"/>
        <path id="Path_28" data-name="Path 28" d="M16.1,19.432a18.138,18.138,0,0,1,4.211-.854A25.912,25.912,0,0,0,32.086,16.34a9.422,9.422,0,0,1,9.01.177c2.179,1.178,2.473,2.945.324,4a27.914,27.914,0,0,1-8.686,3.327,20.611,20.611,0,0,1-14.723-2.3c-.707-.442-1.354-.942-2.061-1.413Z" transform="translate(31.015 29.712)" fill="#133466"/>
        <path id="Path_29" data-name="Path 29" d="M15.18,28.737a8.274,8.274,0,0,1,1.384-.942c5.712-2,11.042-5.33,17.431-5.065H39c1.649,0,2.473.147,2.473,1.855a2.945,2.945,0,0,1-2.5,3.092c-4.417,1.148-8.834,2.12-13.368,2.945a15.282,15.282,0,0,1-9.01-.972,6.124,6.124,0,0,1-1.413-.913Z" transform="translate(29.518 44.169)" fill="#133466"/>
      </g>
    </g>
    <g id="圖層_2-3" data-name="圖層 2" transform="translate(142.28 8223.57)">
      <g id="圖層_2-4" data-name="圖層 2" transform="translate(0 0)">
        <path id="Path_30" data-name="Path 30" d="M0,.316H8.381l5.78,21.733,2.6,10.52h.289c-.4-4.451-.867-10.289-.867-15.028V.2H23.12V43.262h-8.5L8.67,21.528l-2.6-10.52H5.953c.4,4.508.867,10.231.867,14.97v17.34H0Z" transform="translate(0 0.396)" fill="#133466"/>
        <path id="Path_31" data-name="Path 31" d="M27.212,32.2H19L17.27,43.186H9.12L17.27.24H29l8.208,42.946H29Zm-1.1-6.647-.751-4.682c-.809-4.451-1.445-9.364-2.2-14.046h-.231c-.578,4.682-1.387,9.595-2.139,14.046l-.751,4.682Z" transform="translate(17.237 0.471)" fill="#133466"/>
        <path id="Path_32" data-name="Path 32" d="M28.4,7.407H19.38V.24H45.968V7.407H37.009V43.186h-8.67Z" transform="translate(36.629 0.471)" fill="#133466"/>
        <path id="Path_33" data-name="Path 33" d="M29.6,38.1l5.26-5.78a10.144,10.144,0,0,0,7.167,4.566,3.613,3.613,0,0,0,3.988-3.7,8.121,8.121,0,0,0-4.74-7.167l-3.7-2.543a13.236,13.236,0,0,1-6.82-11.734A11.56,11.56,0,0,1,42.952.012,14.941,14.941,0,0,1,53.876,5.5l-4.335,5.375A9.537,9.537,0,0,0,43.01,7.352a3.555,3.555,0,0,0-3.584,3.757c0,2.89,1.445,3.93,5.26,6.647l3.41,2.485a12.918,12.918,0,0,1,6.7,11.791A12.109,12.109,0,0,1,42.027,44.345,16.618,16.618,0,0,1,29.6,38.1Z" transform="translate(55.945 0.006)" fill="#133466"/>
        <path id="Path_34" data-name="Path 34" d="M39.9,29.93V.22h8.5V30.739c0,4.451,1.387,5.78,3.295,5.78s3.584-1.445,3.584-5.78V.22h8.208V29.93c0,9.942-4.566,13.988-11.791,13.988S39.9,39.871,39.9,29.93Z" transform="translate(75.412 0.433)" fill="#133466"/>
        <path id="Path_35" data-name="Path 35" d="M59.78,22.427C59.78,6.7,67.063,0,75.328,0A13.323,13.323,0,0,1,85.27,4.74l-4.855,5.318a6.04,6.04,0,0,0-4.74-2.717c-3.468,0-7.109,3.988-7.109,14.739s3.468,14.855,7.514,14.855a5.78,5.78,0,0,0,4.8-2.89l4.855,5.144a13.265,13.265,0,0,1-10.462,5.144C67.063,44.333,59.78,38.206,59.78,22.427Z" transform="translate(112.986 0.018)" fill="#133466"/>
        <path id="Path_36" data-name="Path 36" d="M70,36.134h7.109V7.407H70V.24H93.12V7.407h-7.4V36.134h7.4v7.052H70Z" transform="translate(132.302 0.471)" fill="#133466"/>
        <path id="Path_37" data-name="Path 37" d="M80,.316h8.381l5.78,21.733,2.6,10.52h.231c-.4-4.451-.867-10.289-.867-15.028V.2h6.994V43.262H94.739L88.67,21.528l-2.6-10.52h-.231c.4,4.508.867,10.231.867,14.97v17.34H80Z" transform="translate(151.203 0.396)" fill="#133466"/>
        <path id="Path_38" data-name="Path 38" d="M90.34.24H111.9V7.407H98.952v10h10.809v7.167H98.952v11.56h13.525v7.052H90.34Z" transform="translate(170.746 0.471)" fill="#133466"/>
        <path id="Path_39" data-name="Path 39" d="M99.68.24h7.687l3.41,14.1,1.214,6.7h.173l1.272-6.7,3.41-14.1h7.688V43.186h-6.589V26.308c0-4.335,1.1-13.41,1.5-17.687h-.231l-2.543,11.156-2.89,11.1h-3.641l-2.89-11.1-2.6-11.04h-.231c.4,4.277,1.618,13.352,1.618,17.687V43.186H99.68Z" transform="translate(188.399 0.471)" fill="#133466"/>
        <path id="Path_40" data-name="Path 40" d="M127.212,32.2H119L117.27,43.186h-8.15L117.27.24H129l8.15,42.946H129Zm-1.1-6.647-.751-4.682c-.809-4.451-1.445-9.364-2.2-14.046h-.231c-.578,4.682-1.387,9.595-2.139,14.046l-.751,4.682Z" transform="translate(206.24 0.471)" fill="#133466"/>
      </g>
    </g>
    <g id="圖層_2-5" data-name="圖層 2" transform="translate(138.848 8328.113)">
      <g id="圖層_2-6" data-name="圖層 2">
        <text id="NATSU_CINEMA" data-name="NATSU CINEMA" transform="translate(91.971 48.878)" fill="#133466" font-size="33" font-family="Helvetica"><tspan x="0" y="0">NATSU CINEMA</tspan></text>
        <path id="Path_10" data-name="Path 10" d="M28.859,38.248c2.525-.383,5.084-.731,7.609-1.167a11.718,11.718,0,0,0,5.363-1.863A16.8,16.8,0,0,1,44.025,34v4.249Z" transform="translate(32.432 38.209)" fill="#fff"/>
        <path id="Path_11" data-name="Path 11" d="M55.614,0a5.92,5.92,0,0,0,1.1.139,4.04,4.04,0,0,1,4,3.2.836.836,0,0,1-.139.627A4.231,4.231,0,0,1,57.46,5.955c-2.751.331-5.224-.731-7.905-1.062a36.184,36.184,0,0,0-4.127-.139c-.766,0-1.55.209-2.3.139a16.716,16.716,0,0,0-6.146.958c-.992.279-1.062.557-.366,1.271.418.435,3.239,2.49,4.44,2.264,0,0,6.878,1.045,7.748,1.288a2.159,2.159,0,0,1,1.741,2.351c0,2.473-.122,4.928-.157,7.4v5.624c0,1.41-.192,2.821-.174,4.231,0,1.741.192,3.482.279,5.328v2c0,.174-.122.348-.087.488a16.855,16.855,0,0,1-.348,6.268c-1.132,7.226-4.405,4.388-4.788,3.744a5.589,5.589,0,0,1-.905-4.022c.157-1.062.3-2.124.383-3.2a5.554,5.554,0,0,0-.244-1.2C42.938,40.866,30.819,51.871,28.034,55.04a35.1,35.1,0,0,1-14.1,10.325c-1.654.627-8.6,3.082-6.965-1.1.174-.453.8-.7,1.236-1.01s4.962-3.482,5-3.482c7.7-2.577,12.92-8.166,18.753-13.338a3.813,3.813,0,0,0-.94,0c-2.037.871-4.04,1.881-6.112,2.629s-4.649,1.5-6.965,2.142a3.169,3.169,0,0,1-1.532-.226,27.858,27.858,0,0,1-3.152-1.062,13.93,13.93,0,0,1-1.9-1.132v-.418l2.908-.557c2.072-.348,4.214-.522,6.234-1.062a52.41,52.41,0,0,0,6.2-2.194c1.915-.731,3.8-1.532,5.676-2.368.749-.331,1.463-.8,2.177-1.2s1.062-.575,1.567-.905,1.254-.871,1.846-1.341c.888-.679,1.741-1.741,2.664-1.968A4.109,4.109,0,0,1,44.279,37a2.333,2.333,0,0,0,.4.226.208.208,0,0,0,.192-.157c0-1.9,0-3.8.122-5.676.279-3.744-.157-7.47-.139-11.213,0-1.358,0-2.734-.087-4.109,0-.7-.139-1.1-1.1-1.271-1.428-.279-2.995-.1-4.214-1.515-.94-1.08-1.741-.714-2.681.418a16.211,16.211,0,0,1-1.741,1.515l-.209-.122A6.669,6.669,0,0,1,35,14.069c.192-.714-.209-.923-.749-.749s-9.524,7.3-9.524,9.681a15.671,15.671,0,0,0,1.114,6.965c.4.871.366,1.933,1.167,2.734.209.209,0,.905,0,1.341-.5,2.02-1.1,4-1.585,6.025-.383,1.55-1.6,2-2.908,2.264a1.288,1.288,0,0,1-1.6-1.184,43.235,43.235,0,0,1-.087-5.415,23.158,23.158,0,0,1,.575-5.224,27.859,27.859,0,0,0,.488-4.632,44.47,44.47,0,0,1,.749-4.754,3.012,3.012,0,0,1,.818-1.288,26.014,26.014,0,0,0,4.405-5.711c.836-1.6,1.741-3.117,2.7-4.7.5-.905.923-1.881,1.5-3.065l-9.89,3.169c-1.741.575-3.6,1.062-5.346,1.741-1.376.522-2.647,1.306-4,1.915-1.741.784-3.569,1.532-5.38,2.264a4.614,4.614,0,0,1-5.015-2C1.741,12.188.958,10.8.261,9.455A4.771,4.771,0,0,1,0,8.288V6.547c.313-.139.609-.313.923-.418,4.492-1.323,6.669,3.831,18.7.94.853-.209,1.741-.313,2.577-.488,2.177-.5,4.3-.975,6.46-1.358,1.654-.3,3.343-.383,4.962-.784,3.482-.818,6.738-1.741,10.116-2.664,1.393-.366,2.8-.679,4.214-1.01L51.435.017Z" fill="#133466"/>
        <path id="Path_12" data-name="Path 12" d="M43.841,51.048c-2.734-.261-4.527-2.177-6.53-3.709l-1.306-.94c-.679-.54-1.376-1.045-2.037-1.6-1.236-1.062-2.368-2.211-3.657-3.186a2.594,2.594,0,0,0-4.127.592,12.362,12.362,0,0,1-1.376,1.741,5.572,5.572,0,0,1-1.463.644,3.047,3.047,0,0,0-.592.261c-.5.366-.923.94-1.48,1.132-1.741.644-3.622,1.132-5.433,1.741a3.482,3.482,0,0,1-2.96-.122c-.192-.122-.557.139-.853.139a5.119,5.119,0,0,1-1.01-.174,4.179,4.179,0,0,1,.609-.818,13.094,13.094,0,0,1,4.666-2,6.408,6.408,0,0,0,1.5-.766c1.41-.871,2.821-1.741,4.231-2.7A26.361,26.361,0,0,0,24.2,39.713c.592-.488.418-1.132-.087-1.741a11.144,11.144,0,0,0-5.624-3.065,16.106,16.106,0,0,1-2.664-1.114,1.306,1.306,0,0,1,0-1.254,2.89,2.89,0,0,1,1.48-.958,7.609,7.609,0,0,1,4.91,1.062,39.823,39.823,0,0,0,3.744,1.741c1.167.383,1.5,0,1.846-1.149a9.472,9.472,0,0,0-.192-4.98,4.458,4.458,0,0,0-3.482-2.821,1.132,1.132,0,0,1-.557-.313,7.4,7.4,0,0,1,.609-1.915.958.958,0,0,1,1.445-.418l3.256,2.177a3.6,3.6,0,0,0,.784.47,3.883,3.883,0,0,1,3.047,4.37,22.635,22.635,0,0,1-.644,4.161c-.3,1.306-.157,1.741,1.062,2.159,1.654.679,3.291,1.428,4.945,2.089s3.239,1.271,4.875,1.846,3.378,1.1,5.067,1.6,3.361,1.08,5.084,1.48c2.786.662,5.607,1.2,8.41,1.741a3.221,3.221,0,0,1,2.525,1.463v.4a16.8,16.8,0,0,0-2.194,1.219,11.719,11.719,0,0,1-5.363,1.863c-2.525.435-5.084.784-7.609,1.167Z" transform="translate(12.383 25.408)" fill="#133466"/>
        <path id="Path_13" data-name="Path 13" d="M13.615,11.931a8.933,8.933,0,0,1,1.985-.4,11.945,11.945,0,0,0,5.554-1.062,4.51,4.51,0,0,1,4.266.087c1.01.575,1.149,1.341.139,1.9a13.46,13.46,0,0,1-4.092,1.567,9.733,9.733,0,0,1-6.965-1.08l-.975-.662Z" transform="translate(15.202 11.21)" fill="#133466"/>
        <path id="Path_14" data-name="Path 14" d="M13.052,17.665a3.221,3.221,0,0,1,.644-.435c2.7-.958,5.224-2.525,8.219-2.385h2.351c.784,0,1.167,0,1.167.888a1.445,1.445,0,0,1-1.184,1.445c-2.089.54-4.2.992-6.3,1.463a7.365,7.365,0,0,1-4.231-.488A2.681,2.681,0,0,1,13.052,17.665Z" transform="translate(14.668 16.672)" fill="#133466"/>
      </g>
    </g>
    <text id="Logos" transform="translate(140.5 7891.169)" fill="#0d0d0d" font-size="30" font-family="Apercu"><tspan x="0" y="28">Logos</tspan></text>
    <line id="Line_832" data-name="Line 832" x2="271" transform="translate(140 7939.169)" fill="none" stroke="#707070" stroke-width="1"/>
    <text id="Colors" transform="translate(1106 7891.169)" fill="#0d0d0d" font-size="30" font-family="Apercu"><tspan x="0" y="28">Colors</tspan></text>
    <rect id="Rectangle_1332" data-name="Rectangle 1332" width="186" height="186" transform="translate(1106 7979.169)" fill="#cb4042"/>
    <rect id="Rectangle_1333" data-name="Rectangle 1333" width="186" height="186" transform="translate(1106 8252.169)" fill="#133466"/>
    <rect id="Rectangle_1330" data-name="Rectangle 1330" width="185.743" height="185.743" transform="translate(1350.129 7979.169)" fill="#f59c9d"/>
    <rect id="Rectangle_1334" data-name="Rectangle 1334" width="185.743" height="185.743" transform="translate(1341.934 8252.32)" fill="#467bcb"/>
    <rect id="Rectangle_1331" data-name="Rectangle 1331" width="185.743" height="185.743" transform="translate(1594.257 7979.169)" fill="#ffe3e4"/>
    <rect id="Rectangle_1335" data-name="Rectangle 1335" width="185.743" height="185.743" transform="translate(1593.233 8252.32)" fill="#d8e7ff"/>
    <text id="_CB4042" data-name="#CB4042" transform="translate(1141.441 8175.838)" fill="#707070" font-size="14" font-family="Roboto-Regular, Roboto"><tspan x="24.045" y="13">#CB4042</tspan></text>
    <text id="_133466" data-name="#133466" transform="translate(1141.441 8448.989)" fill="#707070" font-size="14" font-family="Roboto-Regular, Roboto"><tspan x="25.097" y="13">#133466</tspan></text>
    <text id="_467BCB" data-name="#467BCB" transform="translate(1381.814 8448.989)" fill="#707070" font-size="14" font-family="Roboto-Regular, Roboto"><tspan x="23.617" y="13">#467BCB</tspan></text>
    <text id="_D8E7FF" data-name="#D8E7FF" transform="translate(1634.137 8448.989)" fill="#707070" font-size="14" font-family="Roboto-Regular, Roboto"><tspan x="24.513" y="13">#D8E7FF</tspan></text>
    <text id="_F59C9D" data-name="#F59C9D" transform="translate(1387.277 8175.838)" fill="#707070" font-size="14" font-family="Roboto-Regular, Roboto"><tspan x="23.874" y="13">#F59C9D</tspan></text>
    <text id="_FFE3E4" data-name="#FFE3E4" transform="translate(1633.113 8175.838)" fill="#707070" font-size="14" font-family="Roboto-Regular, Roboto"><tspan x="25.125" y="13">#FFE3E4</tspan></text>
    <line id="Line_833" data-name="Line 833" x2="674" transform="translate(1106 7939.169)" fill="none" stroke="#707070" stroke-width="1"/>
    <text id="Iconography" transform="translate(143 8576.669)" fill="#0d0d0d" font-size="30" font-family="Apercu"><tspan x="0" y="28">Iconography</tspan></text>
    <text id="Account_page" data-name="Account page" transform="translate(140 8675.169)" fill="#0d0d0d" font-size="16" font-family="Roboto-Regular, Roboto"><tspan x="0" y="15">Account page</tspan></text>
    <text id="Menu" transform="translate(822 8675.169)" fill="#0d0d0d" font-size="16" font-family="Roboto-Regular, Roboto"><tspan x="0" y="15">Menu</tspan></text>
    <text id="Payment" transform="translate(1516.001 8675.169)" fill="#0d0d0d" font-size="16" font-family="Roboto-Regular, Roboto"><tspan x="0" y="15">Payment</tspan></text>
    <g id="Group_2642" data-name="Group 2642" transform="translate(189.838 8724.659)">
      <path id="Path_72" data-name="Path 72" d="M239.533,180.969H188.668" transform="translate(-178.115 -100.218)" fill="none" stroke="#f59c9d" stroke-miterlimit="10" stroke-width="2"/>
      <path id="Path_73" data-name="Path 73" d="M239.533,171.755H188.668" transform="translate(-178.115 -102.362)" fill="none" stroke="#f59c9d" stroke-miterlimit="10" stroke-width="2"/>
      <path id="Path_74" data-name="Path 74" d="M239.533,162.541H188.668" transform="translate(-178.115 -104.507)" fill="none" stroke="#f59c9d" stroke-miterlimit="10" stroke-width="2"/>
      <path id="Path_75" data-name="Path 75" d="M221.55,116.653a4.14,4.14,0,0,0-3.137-1.191c-8.8.033-17.6.011-26.4.022a11.915,11.915,0,0,0-8.229,2.868,11,11,0,0,0-3.532,7.036,35.7,35.7,0,0,0-.127,4.824q-.007,35.2,0,70.4c0,3.969,1.321,7.368,4.592,9.754a11.523,11.523,0,0,0,6.909,2.1c16.379.012,32.759.074,49.138-.03,5.986-.037,9.967-3.235,11.351-9.226a11.119,11.119,0,0,0,.143-2.473q.011-25.879.014-51.759a6.013,6.013,0,0,0-.492-1.969c-.866-2.57-2.764-4.3-4.6-6.124q-11.469-11.375-22.88-22.806c-.733-.732-1.425-1.532-2.614-1.435" transform="translate(-180.107 -115.462)" fill="none" stroke="#467bcb" stroke-miterlimit="10" stroke-width="2"/>
      <path id="Path_76" data-name="Path 76" d="M213.634,116.534a6.48,6.48,0,0,0-.531,2.869c.02,6.735.059,13.472-.009,20.208a6.545,6.545,0,0,0,6.927,6.927c6.734-.06,13.469-.026,20.2-.006a6.479,6.479,0,0,0,2.868-.531" transform="translate(-172.431 -115.212)" fill="none" stroke="#467bcb" stroke-miterlimit="10" stroke-width="2"/>
      <ellipse id="Ellipse_40" data-name="Ellipse 40" cx="5.293" cy="5.293" rx="5.293" ry="5.293" transform="translate(11.074 9.337)" fill="none" stroke="#467bcb" stroke-miterlimit="10" stroke-width="2"/>
    </g>
    <g id="Group_2643" data-name="Group 2643" transform="translate(514.232 8721.576)">
      <path id="Path_70" data-name="Path 70" d="M543.938,135.636c-12.42.213-22.767,8.979-24.485,22.2-1.613,12.418,7.016,25,19.852,27.1,9.951,1.63,18.211-1.109,24.464-8.882a24.865,24.865,0,0,0-.6-31.433c-5.029-5.991-11.6-8.728-19.23-8.983" transform="translate(-492.247 -108.933)" fill="none" stroke="#f59c9d" stroke-miterlimit="10" stroke-width="2"/>
      <path id="Path_71" data-name="Path 71" d="M601.641,161.948l-11.5-3.371a38.387,38.387,0,0,0-3.213-7.752l5.4-11.13a4.017,4.017,0,0,0-.672-4.624l-4.709-4.711a4.039,4.039,0,0,0-4.819-.572l-10.512,5.746a38.334,38.334,0,0,0-7.755-3.2l-4.053-11.7a4.016,4.016,0,0,0-3.744-2.794H549.4a4.037,4.037,0,0,0-3.812,3l-3.371,11.5a38.483,38.483,0,0,0-7.752,3.213l-11.131-5.4a4.019,4.019,0,0,0-4.625.671L514,135.538a4.037,4.037,0,0,0-.572,4.817l5.746,10.512a38.315,38.315,0,0,0-3.2,7.757l-11.7,4.052a4.018,4.018,0,0,0-2.794,3.744v6.661a4.037,4.037,0,0,0,3,3.81l11.5,3.372a38.378,38.378,0,0,0,3.213,7.751l-5.4,11.132a4.017,4.017,0,0,0,.671,4.624l4.711,4.711a4.036,4.036,0,0,0,4.817.572l10.512-5.748a38.4,38.4,0,0,0,7.757,3.2l4.052,11.7A4.017,4.017,0,0,0,550.064,221h6.662a4.036,4.036,0,0,0,3.81-3l3.372-11.5a38.383,38.383,0,0,0,7.751-3.213l11.132,5.4a4.017,4.017,0,0,0,4.624-.672l4.711-4.709a4.037,4.037,0,0,0,.57-4.819l-5.746-10.512a38.38,38.38,0,0,0,3.2-7.755l11.7-4.052a4.017,4.017,0,0,0,2.794-3.746v-6.66A4.038,4.038,0,0,0,601.641,161.948Z" transform="translate(-501.486 -117.842)" fill="none" stroke="#467bcb" stroke-miterlimit="10" stroke-width="2"/>
      <ellipse id="Ellipse_41" data-name="Ellipse 41" cx="6.443" cy="6.443" rx="6.443" ry="6.443" transform="translate(45.02 45.136)" fill="none" stroke="#467bcb" stroke-miterlimit="10" stroke-width="2"/>
    </g>
    <g id="Group_2644" data-name="Group 2644" transform="translate(365.175 8718.97)">
      <path id="Path_77" data-name="Path 77" d="M384.684,135.459c.684-.643,1.256-1.208,1.857-1.744a13.286,13.286,0,0,1,10.76-3.322,13.533,13.533,0,0,1,11.586,10.342,14.379,14.379,0,0,1-4.362,14.367q-8.456,7.938-16.916,15.875a3.952,3.952,0,0,1-5.683,0q-8.518-7.969-17.006-15.965a14.01,14.01,0,0,1-4.167-6.757c-2.153-8.412,2.5-16.236,10.837-17.775A13.064,13.064,0,0,1,383.73,134.4C384.056,134.734,384.354,135.093,384.684,135.459Z" transform="translate(-344.464 -109.437)" fill="none" stroke="#f59c9d" stroke-miterlimit="10" stroke-width="2"/>
      <path id="Path_78" data-name="Path 78" d="M352.5,224.756V121.667a4.046,4.046,0,0,1,3.988-4.1h70.849a4.047,4.047,0,0,1,3.988,4.1V224.756a1.991,1.991,0,0,1-3.238,1.6L391.91,209.613,355.734,226.36A1.99,1.99,0,0,1,352.5,224.756Z" transform="translate(-352.498 -117.565)" fill="none" stroke="#467bcb" stroke-miterlimit="10" stroke-width="2"/>
      <path id="Path_79" data-name="Path 79" d="M352.5,192.055l39.412-19.049,39.412,19.049" transform="translate(-352.498 -93.417)" fill="none" stroke="#467bcb" stroke-miterlimit="10" stroke-width="2"/>
    </g>
    <text id="My_Watchlist" data-name="My Watchlist" transform="translate(404 8875.431)" fill="#467bcb" font-size="14" font-family="Roboto-Regular, Roboto"><tspan x="-40.161" y="0">My Watchlist</tspan></text>
    <text id="Combos" transform="translate(1006.55 8863.501)" fill="#467bcb" font-size="14" font-family="Roboto-Regular, Roboto"><tspan x="29.926" y="13">Combos</tspan></text>
    <text id="Purchase_history" data-name="Purchase history" transform="translate(226 8875.431)" fill="#467bcb" font-size="14" font-family="Roboto-Regular, Roboto"><tspan x="-52.073" y="0">Purchase history</tspan></text>
    <text id="Drinks" transform="translate(822 8863.501)" fill="#467bcb" font-size="14" font-family="Roboto-Regular, Roboto"><tspan x="-19.677" y="13">Drinks</tspan></text>
    <text id="Settings" transform="translate(566 8876.484)" fill="#467bcb" font-size="14" font-family="Roboto-Regular, Roboto"><tspan x="-25.532" y="0">Settings</tspan></text>
    <text id="Snacks" transform="translate(1192.102 8864.42)" fill="#467bcb" font-size="14" font-family="Roboto-Regular, Roboto"><tspan x="13.731" y="13">Snacks</tspan></text>
    <path id="Path_13784" data-name="Path 13784" d="M160.31,177.7l4.846-18.663a5.145,5.145,0,0,1,4.979-3.852h9.579" transform="translate(739.877 8563.51)" fill="none" stroke="#f59c9d" stroke-miterlimit="10" stroke-width="2"/>
    <path id="Path_13787" data-name="Path 13787" d="M160.31,175.561l4.385-16.886a4.655,4.655,0,0,1,4.505-3.485h8.667" transform="translate(892.487 8562.531)" fill="none" stroke="#f59c9d" stroke-miterlimit="10" stroke-width="2"/>
    <path id="Path_13785" data-name="Path 13785" d="M197.135,178.524l-7.288,83.793a5.143,5.143,0,0,1-5.124,4.7h-42.5a5.143,5.143,0,0,1-5.124-4.7l-7.288-83.793" transform="translate(733.481 8568.403)" fill="#fff" stroke="#467bcb" stroke-miterlimit="10" stroke-width="2"/>
    <path id="Path_13788" data-name="Path 13788" d="M190.725,178.524l-6.594,75.814a4.653,4.653,0,0,1-4.637,4.251H141.043a4.653,4.653,0,0,1-4.637-4.251l-6.594-75.814" transform="translate(889.603 8564.737)" fill="#fff" stroke="#467bcb" stroke-miterlimit="10" stroke-width="2"/>
    <rect id="Rectangle_1336" data-name="Rectangle 1336" width="78.268" height="9.38" rx="3.877" transform="translate(857.821 8741.214)" fill="#fff" stroke="#467bcb" stroke-miterlimit="10" stroke-width="2"/>
    <rect id="Rectangle_1339" data-name="Rectangle 1339" width="70.815" height="8.487" rx="3.877" transform="translate(1014.465 8738.092)" fill="#fff" stroke="#467bcb" stroke-miterlimit="10" stroke-width="2"/>
    <rect id="Rectangle_1337" data-name="Rectangle 1337" width="13.307" height="13.307" rx="2.683" transform="translate(880.512 8780.392)" fill="none" stroke="#f59c9d" stroke-miterlimit="10" stroke-width="2"/>
    <rect id="Rectangle_1340" data-name="Rectangle 1340" width="12.04" height="12.04" rx="2.683" transform="translate(1034.994 8773.539)" fill="none" stroke="#f59c9d" stroke-miterlimit="10" stroke-width="2"/>
    <rect id="Rectangle_1338" data-name="Rectangle 1338" width="13.307" height="13.307" rx="2.683" transform="translate(902.113 8794.785) rotate(42)" fill="none" stroke="#f59c9d" stroke-miterlimit="10" stroke-width="2"/>
    <rect id="Rectangle_1341" data-name="Rectangle 1341" width="12.04" height="12.04" rx="2.683" transform="translate(1054.539 8786.562) rotate(42)" fill="none" stroke="#f59c9d" stroke-miterlimit="10" stroke-width="2"/>
    <path id="Path_13786" data-name="Path 13786" d="M164.359,196.839H137l4.854,54.371a5.42,5.42,0,0,0,5.4,4.938h29.834a5.421,5.421,0,0,0,5.4-4.938l4.854-54.371Z" transform="translate(734.989 8572.245)" fill="none" stroke="#467bcb" stroke-miterlimit="10" stroke-width="2"/>
    <path id="Path_13789" data-name="Path 13789" d="M161.754,196.839H137l4.391,49.194a4.9,4.9,0,0,0,4.885,4.468h26.993a4.9,4.9,0,0,0,4.885-4.468l4.391-49.194Z" transform="translate(890.283 8566.47)" fill="none" stroke="#467bcb" stroke-miterlimit="10" stroke-width="2"/>
    <path id="Path_13790" data-name="Path 13790" d="M695.683,190.568c-.011-.051-.018-.1-.029-.155-1.191-5.222-4.9-8.651-8.971-8.779-.153-.323-.314-.641-.491-.949-2.527-4.391-6.939-6-10.8-4.36-.23-.238-.466-.466-.717-.679a8.018,8.018,0,0,0-11.323.586,8.259,8.259,0,0,0-.857-.327c-4.163-1.305-8.361,1.056-10.483,5.461a7.272,7.272,0,0,0-.893.063c-4.111.558-7.326,4.335-8.274,9.139Z" transform="translate(536.543 8556.838)" fill="#fff" stroke="#f59c9d" stroke-miterlimit="10" stroke-width="2"/>
    <path id="Path_13791" data-name="Path 13791" d="M690.924,261.584H648.93a3.591,3.591,0,0,1-3.312-3.594L641.1,190.135c-.151-2.267,1.374-4.2,3.31-4.2h51.037c1.936,0,3.462,1.936,3.312,4.2l-4.522,67.855A3.59,3.59,0,0,1,690.924,261.584Z" transform="translate(535.882 8561.474)" fill="#fff" stroke="#467bcb" stroke-miterlimit="10" stroke-width="2"/>
    <path id="Path_13792" data-name="Path 13792" d="M665.37,194.791h0a2.2,2.2,0,0,1,3.482,2.009h0a2.2,2.2,0,0,0,1.3,2.249h0a2.2,2.2,0,0,1,0,4.02h0a2.195,2.195,0,0,0-1.3,2.247h0a2.2,2.2,0,0,1-3.482,2.011h0a2.194,2.194,0,0,0-2.6,0h0a2.2,2.2,0,0,1-3.481-2.011h0a2.2,2.2,0,0,0-1.3-2.247h0a2.2,2.2,0,0,1,0-4.02h0a2.2,2.2,0,0,0,1.3-2.249h0a2.2,2.2,0,0,1,3.481-2.009h0A2.2,2.2,0,0,0,665.37,194.791Z" transform="translate(541.737 8564.638)" fill="#fff" stroke="#f59c9d" stroke-miterlimit="10" stroke-width="2"/>
    <line id="Line_834" data-name="Line 834" x2="57.561" transform="translate(1177.029 8753.433)" fill="#fff" stroke="#467bcb" stroke-miterlimit="10" stroke-width="2"/>
    <rect id="Rectangle_1342" data-name="Rectangle 1342" width="93.757" height="38.706" rx="9.176" transform="translate(1287.549 8782.562) rotate(141.845)" fill="#fff" stroke="#467bcb" stroke-miterlimit="10" stroke-width="2"/>
    <rect id="Rectangle_1343" data-name="Rectangle 1343" width="122.331" height="24.032" rx="8.737" transform="translate(1293.756 8768.498) rotate(141.845)" fill="#fff" stroke="#f59c9d" stroke-miterlimit="10" stroke-width="2"/>
    <path id="Path_13793" data-name="Path 13793" d="M691.077,224.016a11.993,11.993,0,0,1,14.97-11.762,11.992,11.992,0,0,0,14.97-11.76" transform="translate(554.644 8566.938)" fill="none" stroke="#f59c9d" stroke-miterlimit="10" stroke-width="2"/>
    <path id="Path_13794" data-name="Path 13794" d="M669.306,241.12a11.992,11.992,0,0,1,14.97-11.762A11.994,11.994,0,0,0,699.248,217.6" transform="translate(546.473 8573.358)" fill="none" stroke="#f59c9d" stroke-miterlimit="10" stroke-width="2"/>
    <path id="Path_13795" data-name="Path 13795" d="M688.362,226.238A11.993,11.993,0,0,0,673.391,238a11.993,11.993,0,0,1-14.97,11.762" transform="translate(542.388 8576.479)" fill="none" stroke="#f59c9d" stroke-miterlimit="10" stroke-width="2"/>
    <path id="Path_13796" data-name="Path 13796" d="M472.347,207.245c-.01-.044-.014-.089-.025-.135-1.027-4.511-4.233-7.472-7.749-7.583-.132-.278-.271-.553-.424-.82-2.183-3.793-6-5.186-9.327-3.766-.2-.2-.4-.4-.62-.586a6.924,6.924,0,0,0-9.78.506,7.067,7.067,0,0,0-.74-.283c-3.6-1.126-7.222.912-9.055,4.717a6.363,6.363,0,0,0-.772.055c-3.55.481-6.328,3.745-7.146,7.894Z" transform="translate(632.506 8564.2)" fill="#fff" stroke="#f59c9d" stroke-miterlimit="10" stroke-width="2"/>
    <path id="Path_13797" data-name="Path 13797" d="M468.237,268.591H431.963a3.1,3.1,0,0,1-2.861-3.105l-3.9-58.613a3.194,3.194,0,0,1,2.859-3.631h44.086A3.194,3.194,0,0,1,475,206.872l-3.9,58.613A3.1,3.1,0,0,1,468.237,268.591Z" transform="translate(631.935 8568.205)" fill="#fff" stroke="#467bcb" stroke-miterlimit="10" stroke-width="2"/>
    <path id="Path_13798" data-name="Path 13798" d="M446.163,210.893h0a1.9,1.9,0,0,1,3.008,1.737h0a1.9,1.9,0,0,0,1.121,1.942h0a1.9,1.9,0,0,1,0,3.471h0a1.9,1.9,0,0,0-1.121,1.942h0a1.9,1.9,0,0,1-3.008,1.737h0a1.894,1.894,0,0,0-2.242,0h0a1.9,1.9,0,0,1-3.006-1.737h0a1.9,1.9,0,0,0-1.121-1.942h0a1.9,1.9,0,0,1,0-3.471h0a1.9,1.9,0,0,0,1.121-1.942h0a1.9,1.9,0,0,1,3.006-1.737h0A1.894,1.894,0,0,0,446.163,210.893Z" transform="translate(636.992 8570.938)" fill="#fff" stroke="#f59c9d" stroke-miterlimit="10" stroke-width="2"/>
    <line id="Line_835" data-name="Line 835" x2="49.721" transform="translate(1057.174 8776.652)" fill="#fff" stroke="#467bcb" stroke-miterlimit="10" stroke-width="2"/>
    <g id="Group_2645" data-name="Group 2645" transform="translate(1514 8724.907)">
      <path id="Path_146" data-name="Path 146" d="M1182.876,925.25a12.734,12.734,0,0,0-6.572,2.527,10.724,10.724,0,0,0-4.238,8.706c-.083,14.977-.14,29.957.012,44.933.067,6.53,4.762,11.179,11.468,11.2q41.507.125,83.015,0c6.753-.019,11.408-4.842,11.508-11.6.046-3.119-.061-6.242.04-9.36a1.841,1.841,0,0,0-1.637-2.15,10.186,10.186,0,0,1-6.947-5.884,11.083,11.083,0,0,1,6.542-15.241c2.076-.719,2.01-.431,2.01-2.67,0-2.764-.042-5.529.011-8.292a11.866,11.866,0,0,0-3-8.522,11.641,11.641,0,0,0-8.931-3.651q-41.575.01-83.149,0" transform="translate(-1171.983 -925.246)" fill="none" stroke="#4c74b5" stroke-miterlimit="10" stroke-width="1.5"/>
      <line id="Line_93" data-name="Line 93" x1="17.955" y2="28.739" transform="translate(25.385 20.364)" fill="none" stroke="#e09b9b" stroke-miterlimit="10" stroke-width="1.5"/>
      <ellipse id="Ellipse_58" data-name="Ellipse 58" cx="5.973" cy="7.558" rx="5.973" ry="7.558" transform="translate(19.412 15.862)" fill="none" stroke="#e09b9b" stroke-miterlimit="10" stroke-width="1.5"/>
      <ellipse id="Ellipse_59" data-name="Ellipse 59" cx="5.973" cy="7.558" rx="5.973" ry="7.558" transform="translate(37.91 36.569)" fill="none" stroke="#e09b9b" stroke-miterlimit="10" stroke-width="1.5"/>
      <line id="Line_94" data-name="Line 94" y2="9.43" transform="translate(74.198 5.185)" fill="none" stroke="#e09b9b" stroke-miterlimit="10" stroke-width="1.5"/>
      <line id="Line_95" data-name="Line 95" y2="9.43" transform="translate(74.198 20.656)" fill="none" stroke="#e09b9b" stroke-miterlimit="10" stroke-width="1.5"/>
      <line id="Line_96" data-name="Line 96" y2="9.43" transform="translate(74.198 36.128)" fill="none" stroke="#e09b9b" stroke-miterlimit="10" stroke-width="1.5"/>
      <line id="Line_97" data-name="Line 97" y2="9.43" transform="translate(74.198 51.599)" fill="none" stroke="#e09b9b" stroke-miterlimit="10" stroke-width="1.5"/>
    </g>
    <g id="Group_2646" data-name="Group 2646" transform="translate(1670.872 8724.907)">
      <g id="Group_209" data-name="Group 209" transform="translate(0 0)">
        <path id="Path_142" data-name="Path 142" d="M1217.71,1039.046H1112.65" transform="translate(-1112.093 -1022.831)" fill="none" stroke="#e09b9b" stroke-miterlimit="10" stroke-width="1.5"/>
        <path id="Path_143" data-name="Path 143" d="M1217.71,1085.617H1112.65" transform="translate(-1112.093 -1056.682)" fill="none" stroke="#e09b9b" stroke-miterlimit="10" stroke-width="1.5"/>
        <path id="Path_144" data-name="Path 144" d="M1275.372,1177.542h-30.319" transform="translate(-1204.138 -1123.498)" fill="none" stroke="#e09b9b" stroke-miterlimit="10" stroke-width="1.5"/>
        <path id="Path_145" data-name="Path 145" d="M1183.947,1177.542h-18.089" transform="translate(-1149.057 -1123.498)" fill="none" stroke="#e09b9b" stroke-miterlimit="10" stroke-width="1.5"/>
        <path id="Path_141" data-name="Path 141" d="M1111.272,1014.924a3.341,3.341,0,0,0-.384,1.8c.007,8.594-.038,17.188.024,25.782a9.3,9.3,0,0,0,6.3,9.225,13.017,13.017,0,0,0,4.918.909q41.775,0,83.551-.016c5.422-.006,9.851-2.649,10.971-7.868a10.854,10.854,0,0,0,.252-2.25c.017-8.594.109-17.189-.041-25.781-.055-3.157.191-6.3.077-9.459-.113-3.112.145-6.238-.072-9.342-.226-3.235.406-6.461-.077-9.685a9.5,9.5,0,0,0-6.937-7.9,16.647,16.647,0,0,0-4.8-.662q-41.334,0-82.668.006c-3.753,0-7.012,1.068-9.327,3.832a9.507,9.507,0,0,0-2.155,6.184,36.187,36.187,0,0,0,.018,4.051c.314,3.2-.156,6.379-.046,9.572.11,3.149.036,6.3.015,9.457a3.809,3.809,0,0,0,.45,2.026" transform="translate(-1110.846 -979.683)" fill="none" stroke="#4c74b5" stroke-miterlimit="10" stroke-width="1.5"/>
      </g>
    </g>
    <line id="Line_836" data-name="Line 836" x2="1640.5" transform="translate(140 8624.669)" fill="none" stroke="#707070" stroke-width="1"/>
    <text id="Account" transform="translate(1030.075 9693.169)" fill="#0d0d0d" font-size="20" font-family="Roboto-Regular, Roboto"><tspan x="0" y="0">Account</tspan></text>
    <text id="Ticket_used" data-name="Ticket used" transform="translate(1456.244 9693.169)" fill="#0d0d0d" font-size="20" font-family="Roboto-Regular, Roboto"><tspan x="0" y="0">Ticket used</tspan></text>
    <text id="Social_media_Link" data-name="Social media &amp; Link" transform="translate(1185.033 9676.169)" fill="#0d0d0d" font-size="16" font-family="Roboto-Regular, Roboto"><tspan x="0" y="15">Social media &amp; Link</tspan></text>
    <g id="Component_25_1" data-name="Component 25 – 1" transform="translate(1030.075 9721.305)">
      <path id="Path_49" data-name="Path 49" d="M379.142,457.943a45.149,45.149,0,1,0,45.148,45.149A45.148,45.148,0,0,0,379.142,457.943Zm-.43,27.084c9.3.034,15.953,6.819,15.964,15.987.011,9.251-6.735,15.814-16.006,16.089-9.274-.276-16.023-6.841-16-16.089C362.684,491.662,369.542,484.994,378.712,485.027Zm-26.487,52.2a19.7,19.7,0,0,1,1.392-2.94,21.621,21.621,0,0,1,12.278-9.915,26.173,26.173,0,0,1,8.161-1.186c3.239-.017,6.478-.036,9.716,0a23.723,23.723,0,0,1,11.86,3.03,21.066,21.066,0,0,1,9.691,11.575,43.47,43.47,0,0,1-53.1-.568Z" transform="translate(-333.994 -457.943)" fill="#133466"/>
    </g>
    <g id="Group_2651" data-name="Group 2651" transform="translate(1301.13 9718.707)">
      <path id="Path_57" data-name="Path 57" d="M241.575,416.892a45.146,45.146,0,1,1-45.182,45.227A45.18,45.18,0,0,1,241.575,416.892ZM199.922,462.07a41.628,41.628,0,1,0,41.667-41.658A41.615,41.615,0,0,0,199.922,462.07Z" transform="translate(-196.393 -416.892)" fill="#133466"/>
      <path id="Path_61" data-name="Path 61" d="M254.564,454.262c-.294,3.161-.571,6.14-.858,9.213h-6.788v22.979h-9.177V463.523h-4.6v-9.2h4.531c0-1.4-.06-2.668.018-3.929a17.312,17.312,0,0,1,.479-3.68c.9-3.133,2.94-5.372,6.191-5.824,3.287-.458,6.649-.374,10.04-.531v8.009c-1.575,0-3.1,0-4.62,0-1.876.006-2.508.637-2.527,2.534-.009.988,0,1.978.011,2.968a2.5,2.5,0,0,0,.083.394Z" transform="translate(-198.659 -418.339)" fill="#133466"/>
    </g>
    <g id="Group_2653" data-name="Group 2653" transform="translate(1186.321 9835.203)">
      <path id="Path_58" data-name="Path 58" d="M360.636,416.892a45.146,45.146,0,1,1-45.183,45.227A45.182,45.182,0,0,1,360.636,416.892ZM318.982,462.07a41.629,41.629,0,1,0,41.668-41.658A41.615,41.615,0,0,0,318.982,462.07Z" transform="translate(-315.453 -416.892)" fill="#133466"/>
      <path id="Path_62" data-name="Path 62" d="M382.339,463.759c0,3.054.114,6.113-.027,9.161-.2,4.276-1.878,7.8-5.777,9.969a11.621,11.621,0,0,1-5.563,1.482c-6.217.064-12.439.142-18.652-.015a11,11,0,0,1-9.665-5.393A11.851,11.851,0,0,1,340.965,473c-.108-5.345-.142-10.691-.13-16.036a18.518,18.518,0,0,1,.93-6.632,10.585,10.585,0,0,1,8.606-7.039,33.868,33.868,0,0,1,5.272-.4q6.218-.082,12.439,0a19.762,19.762,0,0,1,7.075,1,10.553,10.553,0,0,1,6.888,8.513,39.3,39.3,0,0,1,.41,5.467c.067,1.962.015,3.928.015,5.893Zm-3.568-.062-.089,0c0-1.7.035-3.405-.008-5.106s-.1-3.4-.271-5.091a6.887,6.887,0,0,0-5.4-6.291,22.486,22.486,0,0,0-4.525-.52c-2.922-.088-5.849-.092-8.772-.049-2.768.039-5.54.095-8.3.311a6.789,6.789,0,0,0-6.252,5.353,22.4,22.4,0,0,0-.527,4.785c-.069,4.3-.045,8.6-.011,12.9a27.793,27.793,0,0,0,.272,4.042c.483,3.133,2.149,5.377,5.321,6.151a20.841,20.841,0,0,0,4.587.529c4.56.067,9.123.039,13.684.013a27.278,27.278,0,0,0,3.257-.247c4.323-.547,6.533-3.407,6.779-7.485C378.707,469.9,378.7,466.794,378.771,463.7Z" transform="translate(-317.018 -418.492)" fill="#133466"/>
      <path id="Path_63" data-name="Path 63" d="M373.035,464.354a10.733,10.733,0,1,1-10.743-10.724A10.777,10.777,0,0,1,373.035,464.354Zm-17.677-.008a6.945,6.945,0,1,0,6.963-6.929A6.985,6.985,0,0,0,355.358,464.347Z" transform="translate(-317.68 -419.157)" fill="#133466"/>
      <path id="Path_64" data-name="Path 64" d="M374.712,455.535a2.411,2.411,0,0,1-2.5-2.441,2.436,2.436,0,0,1,2.411-2.546A2.465,2.465,0,0,1,377.2,453,2.433,2.433,0,0,1,374.712,455.535Z" transform="translate(-318.953 -418.967)" fill="#133466"/>
    </g>
    <g id="Group_2652" data-name="Group 2652" transform="translate(1302.417 9835.203)">
      <path id="Path_59" data-name="Path 59" d="M489.424,418.138a45.146,45.146,0,1,1-45.183,45.228A45.18,45.18,0,0,1,489.424,418.138Zm-41.654,45.178a41.629,41.629,0,1,0,41.668-41.657A41.617,41.617,0,0,0,447.769,463.316Z" transform="translate(-444.241 -418.138)" fill="#133466"/>
      <path id="Path_65" data-name="Path 65" d="M514.963,464.561h-1.408a22.889,22.889,0,1,1-6.7-16.186,22.811,22.811,0,0,1,6.7,16.186h2.815a25.7,25.7,0,1,0-25.7,25.7,25.705,25.705,0,0,0,25.7-25.7Z" transform="translate(-445.518 -419.415)" fill="#133466"/>
      <path id="Path_66" data-name="Path 66" d="M503.7,464.561h-1.407a37.78,37.78,0,0,1-3.435,16.547,14.992,14.992,0,0,1-3.539,4.763,5.505,5.505,0,0,1-7.719,0,18.472,18.472,0,0,1-4.957-8.179,41.317,41.317,0,0,1-2.016-13.131,37.788,37.788,0,0,1,3.434-16.548,15,15,0,0,1,3.539-4.762,5.5,5.5,0,0,1,7.719,0,18.468,18.468,0,0,1,4.958,8.179,41.318,41.318,0,0,1,2.016,13.131h2.815a40.508,40.508,0,0,0-3.737-17.814,17.741,17.741,0,0,0-4.242-5.653,8.3,8.3,0,0,0-11.339,0c-2.481,2.1-4.43,5.385-5.812,9.428a44.1,44.1,0,0,0-2.166,14.039,40.519,40.519,0,0,0,3.736,17.814,17.735,17.735,0,0,0,4.242,5.652,8.3,8.3,0,0,0,11.339,0c2.481-2.094,4.431-5.384,5.813-9.427a44.124,44.124,0,0,0,2.166-14.039Z" transform="translate(-446.311 -419.415)" fill="#133466"/>
      <path id="Path_67" data-name="Path 67" d="M490.855,440.356v48.595h2.815V440.356" transform="translate(-447.115 -419.508)" fill="#133466"/>
      <path id="Path_68" data-name="Path 68" d="M464.962,464.261a2.376,2.376,0,0,0,.3,1.136,3.8,3.8,0,0,0,1.37,1.347,14.124,14.124,0,0,0,3.735,1.458,57.186,57.186,0,0,0,8.744,1.447c3.457.343,7.387.536,11.559.536a100.374,100.374,0,0,0,17.437-1.346,26.228,26.228,0,0,0,5.517-1.531,6.631,6.631,0,0,0,1.8-1.094,3.163,3.163,0,0,0,.657-.816,2.366,2.366,0,0,0,.3-1.136h-2.378l-.39-.213a.489.489,0,0,0-.047.213h.437l-.39-.213.07.038-.067-.044,0,.006.07.038-.067-.044a1.754,1.754,0,0,1-.5.379,12.9,12.9,0,0,1-3.059,1.113,56.126,56.126,0,0,1-8.257,1.33c-3.314.323-7.1.507-11.123.507a97.646,97.646,0,0,1-16.923-1.3,23.7,23.7,0,0,1-4.9-1.34,4.031,4.031,0,0,1-1.036-.6l-.073-.074-.009-.013-.356.219h.405a.468.468,0,0,0-.05-.219l-.356.219h-2.41Z" transform="translate(-445.518 -420.968)" fill="#133466"/>
    </g>
    <g id="Group_2654" data-name="Group 2654" transform="translate(1185.033 9718.706)">
      <path id="Path_60" data-name="Path 60" d="M135.391,418.147a45.146,45.146,0,1,1-45.184,45.228A45.181,45.181,0,0,1,135.391,418.147ZM93.736,463.326A41.63,41.63,0,1,0,135.4,421.669,41.615,41.615,0,0,0,93.736,463.326Z" transform="translate(-90.207 -418.147)" fill="#133466"/>
      <path id="Path_69" data-name="Path 69" d="M118.1,465.326v-.616c.023-.2.048-.405.07-.608.1-.932.136-1.878.319-2.793a19.228,19.228,0,0,1,17.958-15.641,18.694,18.694,0,0,1,10.207,2.241,18.31,18.31,0,0,1,3.8,2.8l-5.249,5.049-.171-.124a10.986,10.986,0,0,0-11.376-2.2,12.288,12.288,0,0,0-3.851,20.9,11.744,11.744,0,0,0,10.715,2.5,10.022,10.022,0,0,0,7.665-6.9c.116-.334.173-.69.269-1.093H137.5v-6.647h17.71c.087,0,.193-.03.26.007.119.067.287.161.308.268a11.262,11.262,0,0,1,.19,1.348,20.5,20.5,0,0,1-.967,8.417c-2.376,6.858-7.251,10.736-14.37,11.859-.894.141-1.805.183-2.709.271h-.7c-.51-.039-1.023-.066-1.531-.116a19.168,19.168,0,0,1-8.9-3.144,18.965,18.965,0,0,1-8.425-13.247C118.23,467.017,118.187,466.167,118.1,465.326Z" transform="translate(-91.927 -419.842)" fill="#133466"/>
    </g>
    <g id="Component_26_1" data-name="Component 26 – 1" transform="translate(724.045 9301.996)">
      <path id="Path_98" data-name="Path 98" d="M378.332,137.464c.629-.592,1.157-1.111,1.709-1.6a12.234,12.234,0,0,1,9.9-3.057,12.451,12.451,0,0,1,10.657,9.515,13.223,13.223,0,0,1-4.012,13.216q-7.777,7.306-15.562,14.605a3.635,3.635,0,0,1-5.227,0q-7.835-7.33-15.645-14.687a12.89,12.89,0,0,1-3.832-6.216c-1.981-7.741,2.3-14.938,9.97-16.354a12.026,12.026,0,0,1,11.168,3.607C377.756,136.8,378.03,137.128,378.332,137.464Z" transform="translate(-355.835 -132.659)" fill="none" stroke="#467bcb" stroke-miterlimit="10" stroke-width="2"/>
    </g>
    <g id="Component_28_1" data-name="Component 28 – 1" transform="translate(724.045 9452.813)">
      <g transform="matrix(1, 0, 0, 1, -879.04, -1749.81)" filter="url(#Ellipse_43)">
        <ellipse id="Ellipse_43-2" data-name="Ellipse 43" cx="29.024" cy="29.024" rx="29.024" ry="29.024" transform="translate(879.04 1749.81)" fill="#467bcb"/>
      </g>
      <path id="Polygon_8" data-name="Polygon 8" d="M11.261,1.5a1,1,0,0,1,1.733,0l10.4,18.033a1,1,0,0,1-.866,1.5H1.731a1,1,0,0,1-.866-1.5Z" transform="translate(42.965 16.77) rotate(90)" fill="#fff"/>
    </g>
    <text id="Like" transform="translate(724.045 9259.268)" fill="#0d0d0d" font-size="16" font-family="Roboto-Regular, Roboto"><tspan x="0" y="15">Like</tspan></text>
    <text id="Play" transform="translate(724.045 9411.085)" fill="#0d0d0d" font-size="16" font-family="Roboto-Regular, Roboto"><tspan x="0" y="15">Play</tspan></text>
    <text id="Cancel" transform="translate(724.045 9580.414)" fill="#0d0d0d" font-size="16" font-family="Roboto-Regular, Roboto"><tspan x="0" y="15">Cancel</tspan></text>
    <text id="Add_Eliminate" data-name="Add &amp; Eliminate" transform="translate(724.045 9750.689)" fill="#0d0d0d" font-size="16" font-family="Roboto-Regular, Roboto"><tspan x="0" y="15">Add &amp; Eliminate</tspan></text>
    <g id="Component_26_2" data-name="Component 26 – 2" transform="translate(724.045 9301.996)">
      <path id="Path_98-2" data-name="Path 98" d="M378.332,137.464c.629-.592,1.157-1.111,1.709-1.6a12.234,12.234,0,0,1,9.9-3.057,12.451,12.451,0,0,1,10.657,9.515,13.223,13.223,0,0,1-4.012,13.216q-7.777,7.306-15.562,14.605a3.635,3.635,0,0,1-5.227,0q-7.835-7.33-15.645-14.687a12.89,12.89,0,0,1-3.832-6.216c-1.981-7.741,2.3-14.938,9.97-16.354a12.026,12.026,0,0,1,11.168,3.607C377.756,136.8,378.03,137.128,378.332,137.464Z" transform="translate(-355.835 -132.659)" fill="none" stroke="#467bcb" stroke-miterlimit="10" stroke-width="2"/>
    </g>
    <path id="Path_13800" data-name="Path 13800" d="M378.332,137.464c.629-.592,1.157-1.111,1.709-1.6a12.234,12.234,0,0,1,9.9-3.057,12.451,12.451,0,0,1,10.657,9.515,13.223,13.223,0,0,1-4.012,13.216q-7.777,7.306-15.562,14.605a3.635,3.635,0,0,1-5.227,0q-7.835-7.33-15.645-14.687a12.889,12.889,0,0,1-3.832-6.216c-1.981-7.741,2.3-14.938,9.97-16.354a12.026,12.026,0,0,1,11.168,3.607C377.756,136.8,378.03,137.128,378.332,137.464Z" transform="translate(439.158 9169.337)" fill="#467bcb" stroke="#467bcb" stroke-miterlimit="10" stroke-width="2"/>
    <g id="Component_42_1" data-name="Component 42 – 1" transform="translate(724.045 9623.144)">
      <ellipse id="Ellipse_43-3" data-name="Ellipse 43" cx="29.024" cy="29.024" rx="29.024" ry="29.024" fill="#f59c9d"/>
      <line id="Line_80" data-name="Line 80" x2="27.26" transform="translate(19.386 38.661) rotate(-45)" fill="none" stroke="#081426" stroke-width="3"/>
      <line id="Line_81" data-name="Line 81" x2="27.26" transform="translate(19.386 19.386) rotate(45)" fill="none" stroke="#081426" stroke-width="3"/>
    </g>
    <g id="Component_43_1" data-name="Component 43 – 1" transform="translate(724.045 9793.418)">
      <ellipse id="Ellipse_43-4" data-name="Ellipse 43" cx="29.024" cy="29.024" rx="29.024" ry="29.024" fill="#f59c9d"/>
      <line id="Line_80-2" data-name="Line 80" x2="27.26" transform="translate(15.394 29.023)" fill="none" stroke="#081426" stroke-width="3"/>
      <line id="Line_81-2" data-name="Line 81" x2="27.26" transform="translate(29.024 15.394) rotate(90)" fill="none" stroke="#081426" stroke-width="3"/>
    </g>
    <g id="Component_44_1" data-name="Component 44 – 1" transform="translate(807.892 9793.418)">
      <ellipse id="Ellipse_43-5" data-name="Ellipse 43" cx="29.024" cy="29.024" rx="29.024" ry="29.024" fill="#f59c9d"/>
      <line id="Line_80-3" data-name="Line 80" x2="27.26" transform="translate(15.394 29.023)" fill="none" stroke="#081426" stroke-width="3"/>
    </g>
    <path id="Path_13799" data-name="Path 13799" d="M0,0" transform="translate(836.916 9836.072) rotate(90)" fill="none" stroke="#081426" stroke-width="3"/>
    <g id="Component_45_1" data-name="Component 45 – 1" transform="translate(891.74 9793.418)">
      <ellipse id="Ellipse_43-6" data-name="Ellipse 43" cx="29.024" cy="29.024" rx="29.024" ry="29.024" fill="#dbdbdb"/>
      <line id="Line_80-4" data-name="Line 80" x2="27.26" transform="translate(15.394 29.023)" fill="none" stroke="#707070" stroke-width="3"/>
      <path id="Path_139" data-name="Path 139" d="M0,0" transform="translate(29.024 42.654) rotate(90)" fill="none" stroke="#081426" stroke-width="3"/>
    </g>
    <g id="Group_2648" data-name="Group 2648" transform="translate(1456.244 9721.014)">
      <g id="Group_207" data-name="Group 207" transform="translate(21.16 24.739)">
        <line id="Line_102" data-name="Line 102" y1="8.213" x2="10.957" transform="translate(14.447 10.858)" fill="none" stroke="#133466" stroke-linecap="round" stroke-linejoin="round" stroke-width="1.5"/>
        <line id="Line_103" data-name="Line 103" x2="10.957" y2="8.213" transform="translate(14.447 24.276)" fill="none" stroke="#133466" stroke-linecap="round" stroke-linejoin="round" stroke-width="1.5"/>
        <ellipse id="Ellipse_60" data-name="Ellipse 60" cx="7.223" cy="7.223" rx="7.223" ry="7.223" transform="translate(25.404 0)" fill="none" stroke="#133466" stroke-linecap="round" stroke-linejoin="round" stroke-width="1.5"/>
        <ellipse id="Ellipse_61" data-name="Ellipse 61" cx="7.223" cy="7.223" rx="7.223" ry="7.223" transform="translate(25.404 28.901)" fill="none" stroke="#133466" stroke-linecap="round" stroke-linejoin="round" stroke-width="1.5"/>
        <ellipse id="Ellipse_62" data-name="Ellipse 62" cx="7.223" cy="7.223" rx="7.223" ry="7.223" transform="translate(0 14.45)" fill="none" stroke="#133466" stroke-linecap="round" stroke-linejoin="round" stroke-width="1.5"/>
      </g>
      <g id="Ellipse_98" data-name="Ellipse 98" transform="translate(0 0)" fill="none" stroke="#133466" stroke-width="1.5">
        <circle cx="45.294" cy="45.294" r="45.294" stroke="none"/>
        <circle cx="45.294" cy="45.294" r="44.544" fill="none"/>
      </g>
    </g>
    <g id="Group_2649" data-name="Group 2649" transform="translate(1573.474 9721.014)">
      <g id="Union_7" data-name="Union 7" transform="translate(27.986 23.681)" fill="none">
        <path d="M15.889,35.322-.106,18.254a1,1,0,0,1,.73-1.684H9.755V1.481A1.48,1.48,0,0,1,11.236,0H22a1.48,1.48,0,0,1,1.481,1.481V16.57h9.131a1,1,0,0,1,.73,1.684L17.347,35.322a1,1,0,0,1-1.459,0Z" stroke="none"/>
        <path d="M 16.6180419921875 33.90704345703125 L 31.45894432067871 18.06990242004395 L 21.98099899291992 18.06990242004395 L 21.98098945617676 1.500901460647583 L 11.25509929656982 1.500911474227905 L 11.25509929656982 18.06990242004395 L 1.777156472206116 18.06990242004395 L 16.6180419921875 33.90704345703125 M 16.61804962158203 35.63820266723633 C 16.35210037231445 35.63820266723633 16.08614921569824 35.53290176391602 15.88859939575195 35.32229995727539 L -0.1062003821134567 18.2538013458252 C -0.7047003507614136 17.61480140686035 -0.2520003914833069 16.56990242004395 0.6236996054649353 16.56990242004395 L 9.755099296569824 16.56990242004395 L 9.755099296569824 1.481401443481445 C 9.755099296569824 0.6633014678955078 10.41749954223633 0.000901467923540622 11.23559951782227 0.000901467923540622 L 22.0004997253418 0.000901467923540622 C 22.81859970092773 0.000901467923540622 23.48099899291992 0.6633014678955078 23.48099899291992 1.481401443481445 L 23.48099899291992 16.56990242004395 L 32.61240005493164 16.56990242004395 C 33.48809814453125 16.56990242004395 33.94079971313477 17.61480140686035 33.34230041503906 18.2538013458252 L 17.34749984741211 35.32229995727539 C 17.14995002746582 35.53290176391602 16.88399887084961 35.63820266723633 16.61804962158203 35.63820266723633 Z" stroke="none" fill="#133466"/>
      </g>
      <line id="Line_114" data-name="Line 114" x2="22.207" transform="translate(33.303 65.082)" fill="none" stroke="#133466" stroke-linecap="round" stroke-width="1.5"/>
      <g id="Ellipse_99" data-name="Ellipse 99" transform="translate(0 0)" fill="none" stroke="#133466" stroke-width="1.5">
        <circle cx="45.294" cy="45.294" r="45.294" stroke="none"/>
        <circle cx="45.294" cy="45.294" r="44.544" fill="none"/>
      </g>
    </g>
    <g id="Group_2650" data-name="Group 2650" transform="translate(1689.413 9721.014)">
      <g id="Ellipse_100" data-name="Ellipse 100" transform="translate(0 0)" fill="none" stroke="#133466" stroke-width="1.5">
        <circle cx="45.294" cy="45.294" r="45.294" stroke="none"/>
        <circle cx="45.294" cy="45.294" r="44.544" fill="none"/>
      </g>
      <g id="Rectangle_256" data-name="Rectangle 256" transform="translate(29.222 20.455)" fill="none" stroke="#133466" stroke-width="1.5">
        <rect width="32.144" height="49.677" rx="2" stroke="none"/>
        <rect x="0.75" y="0.75" width="30.644" height="48.177" rx="1.25" fill="none"/>
      </g>
      <g id="Rectangle_257" data-name="Rectangle 257" transform="translate(39.449 24.838)" fill="none" stroke="#133466" stroke-width="1.5">
        <rect id="fill" width="13.15" height="1.461" rx="0.731" stroke="none"/>
        <path d="M0,0.7110859155654907h13.149771690368652M12.399771690368652,0v1.4610859155654907M13.149771690368652,0.75h-13.149771690368652M0.75,1.4610859155654907v-1.4610859155654907" fill="none" clip-path="url(#clip)"/>
      </g>
      <g id="Rectangle_258" data-name="Rectangle 258" transform="translate(43.833 64.288)" fill="none" stroke="#133466" stroke-width="1.5">
        <rect width="4.383" height="2.922" rx="1.461" stroke="none"/>
        <rect x="0.75" y="0.75" width="2.883" height="1.422" rx="0.711" fill="none"/>
      </g>
      <line id="Line_115" data-name="Line 115" x2="27.997" transform="translate(31.895 61.59)" fill="none" stroke="#133466" stroke-linecap="round" stroke-width="1.5"/>
    </g>
    <text id="Buttons" transform="translate(140 8980.169)" fill="#0d0d0d" font-size="30" font-family="Apercu"><tspan x="0" y="28">Buttons</tspan></text>
    <text id="Filter" transform="translate(140 9067.169)" fill="#0d0d0d" font-size="16" font-family="Roboto-Regular, Roboto"><tspan x="0" y="15">Filter</tspan></text>
    <text id="Dropdown" transform="translate(140 9254.699)" fill="#0d0d0d" font-size="16" font-family="Roboto-Regular, Roboto"><tspan x="0" y="15">Dropdown</tspan></text>
    <text id="Next" transform="translate(1030.075 9065.098)" fill="#0d0d0d" font-size="16" font-family="Roboto-Regular, Roboto"><tspan x="0" y="15">Next</tspan></text>
    <text id="Button" transform="translate(1030.075 9350.576)" fill="#0d0d0d" font-size="16" font-family="Roboto-Regular, Roboto"><tspan x="0" y="15">Button</tspan></text>
    <text id="Disabled" transform="translate(1030.075 9223.923)" fill="#707070" font-size="14" font-family="Roboto-Regular, Roboto"><tspan x="-26.988" y="13">Disabled</tspan></text>
    <text id="Enabled" transform="translate(1171.971 9222.633)" fill="#707070" font-size="14" font-family="Roboto-Regular, Roboto"><tspan x="-24.931" y="13">Enabled</tspan></text>
    <text id="Mobile_size" data-name="Mobile size" transform="translate(1628.618 9368.96)" fill="#707070" font-size="14" font-family="Roboto-Regular, Roboto"><tspan x="0" y="13">Mobile size</tspan></text>
    <g id="filter1" transform="translate(140 9109.897)">
      <rect id="Rectangle_120" data-name="Rectangle 120" width="386.989" height="69.658" fill="#cb4042"/>
      <text id="Label" transform="translate(161.245 43.349)" fill="#fff" font-size="26" font-family="Roboto-Medium, Roboto" font-weight="500"><tspan x="0" y="0">Label</tspan></text>
    </g>
    <g id="filter2" transform="translate(539.889 9109.897)">
      <g id="Rectangle_121" data-name="Rectangle 121" fill="none" stroke="#cb4042" stroke-width="1">
        <rect width="386.989" height="69.658" stroke="none"/>
        <rect x="0.5" y="0.5" width="385.989" height="68.658" fill="none"/>
      </g>
      <text id="Label-2" data-name="Label" transform="translate(161.245 43.349)" fill="#cb4042" font-size="26" font-family="Roboto-Medium, Roboto" font-weight="500"><tspan x="0" y="0">Label</tspan></text>
    </g>
    <g id="Dropdown-2" data-name="Dropdown" transform="translate(140 9297.428)">
      <g id="Rectangle_122" data-name="Rectangle 122" fill="none" stroke="#cb4042" stroke-width="1">
        <rect width="472.998" height="76.473" stroke="none"/>
        <rect x="0.5" y="0.5" width="471.998" height="75.473" fill="none"/>
      </g>
      <text id="Label-3" data-name="Label" transform="translate(164.275 46.242)" fill="#cb4042" font-size="27" font-family="Roboto-Medium, Roboto" font-weight="500"><tspan x="0" y="0">Label</tspan></text>
      <path id="Polygon_7" data-name="Polygon 7" d="M20.251,2.742a2,2,0,0,1,3.4,0L42.008,32.35a2,2,0,0,1-1.7,3.054H3.593a2,2,0,0,1-1.7-3.054Z" transform="translate(444.674 59.479) rotate(180)" fill="#cb4042"/>
    </g>
    <g id="Component_21_1" data-name="Component 21 – 1" transform="translate(1030.075 9107.826)">
      <ellipse id="Ellipse_9" data-name="Ellipse 9" cx="51.599" cy="51.599" rx="51.599" ry="51.599" transform="translate(103.197 103.197) rotate(180)" fill="#dbdbdb"/>
      <path id="Path_2" data-name="Path 2" d="M20.639,0,0,20.639l15.48,15.48,5.16,5.16" transform="translate(61.918 72.443) rotate(180)" fill="none" stroke="#707070" stroke-width="4"/>
    </g>
    <g id="Component_23_1" data-name="Component 23 – 1" transform="translate(1171.971 9107.826)">
      <g transform="matrix(1, 0, 0, 1, -1326.97, -1404.83)" filter="url(#Ellipse_36)">
        <ellipse id="Ellipse_36-2" data-name="Ellipse 36" cx="51.599" cy="51.599" rx="51.599" ry="51.599" transform="translate(1430.17 1508.02) rotate(180)" fill="#f59c9d"/>
      </g>
      <path id="Path_42" data-name="Path 42" d="M20.639,0,0,20.639l15.48,15.48,5.16,5.16" transform="translate(61.918 72.443) rotate(180)" fill="none" stroke="#fff" stroke-width="4"/>
    </g>
    <g id="btn1" transform="translate(1030.075 9390.305)">
      <g transform="matrix(1, 0, 0, 1, -1185.07, -1687.3)" filter="url(#Rectangle_14)">
        <rect id="Rectangle_14-2" data-name="Rectangle 14" width="206.394" height="58.048" rx="4" transform="translate(1185.07 1687.3)" fill="#f59c9d"/>
      </g>
      <text id="Label-4" data-name="Label" transform="translate(102.688 36.278)" fill="#fff" font-size="20" font-family="Roboto-Regular, Roboto"><tspan x="-24.155" y="0">Label</tspan></text>
    </g>
    <g id="btn2" transform="translate(1030.075 9487.052)">
      <g transform="matrix(1, 0, 0, 1, -1185.07, -1784.05)" filter="url(#Rectangle_124)">
        <rect id="Rectangle_124-2" data-name="Rectangle 124" width="206.394" height="58.048" rx="4" transform="translate(1185.07 1784.05)" fill="#467bcb"/>
      </g>
      <text id="Label-5" data-name="Label" transform="translate(102.688 36.278)" fill="#fff" font-size="20" font-family="Roboto-Regular, Roboto"><tspan x="-24.155" y="0">Label</tspan></text>
    </g>
    <g id="btn1-1" transform="translate(1271.298 9394.175)">
      <g id="Rectangle_123" data-name="Rectangle 123" fill="none" stroke="#f59c9d" stroke-width="2">
        <rect width="202.524" height="54.178" rx="4" stroke="none"/>
        <rect x="-1" y="-1" width="204.524" height="56.178" rx="5" fill="none"/>
      </g>
      <text id="Lable" transform="translate(101.398 34.48)" fill="#f59c9d" font-size="20" font-family="Roboto-Regular, Roboto"><tspan x="-24.155" y="0">Lable</tspan></text>
    </g>
    <g id="btn2-1" transform="translate(1271.298 9487.052)">
      <g id="Rectangle_125" data-name="Rectangle 125" fill="none" stroke="#467bcb" stroke-width="2">
        <rect width="206.394" height="58.048" rx="4" stroke="none"/>
        <rect x="1" y="1" width="204.394" height="56.048" rx="3" fill="none"/>
      </g>
      <text id="Label-6" data-name="Label" transform="translate(102.688 36.278)" fill="#467bcb" font-size="20" font-family="Roboto-Regular, Roboto"><tspan x="-24.155" y="0">Label</tspan></text>
    </g>
    <g id="Component_30_1" data-name="Component 30 – 1" transform="translate(1511.231 9485.762)">
      <g id="Rectangle_125-2" data-name="Rectangle 125" fill="none" stroke="#b7b7b7" stroke-width="2">
        <rect width="206.394" height="58.048" rx="4" stroke="none"/>
        <rect x="1" y="1" width="204.394" height="56.048" rx="3" fill="none"/>
      </g>
      <text id="Label-7" data-name="Label" transform="translate(101.999 36.536)" fill="#b7b7b7" font-size="24" font-family="Roboto-Regular, Roboto"><tspan x="-28.986" y="0">Label</tspan></text>
    </g>
    <g id="Group_2647" data-name="Group 2647" transform="translate(140 9445.416)">
      <g id="Rectangle_131" data-name="Rectangle 131" transform="translate(0 0)" fill="#fff" stroke="#cb4042" stroke-width="1">
        <rect width="472.998" height="480.079" stroke="none"/>
        <rect x="0.5" y="0.5" width="471.998" height="479.079" fill="none"/>
      </g>
      <g transform="matrix(1, 0, 0, 1, -295, -1742.42)" filter="url(#Rectangle_130)">
        <rect id="Rectangle_130-6" data-name="Rectangle 130" width="472.998" height="76.473" transform="translate(295 1742.42)" fill="#fff"/>
      </g>
      <text id="Label-8" data-name="Label" transform="translate(124.622 46.242)" fill="#cb4042" font-size="27" font-family="Roboto-Medium, Roboto" font-weight="500"><tspan x="0" y="0">Label</tspan></text>
      <g id="Ellipse_37" data-name="Ellipse 37" transform="translate(392.277 16.994)" fill="#fff" stroke="#cb4042" stroke-width="2">
        <ellipse cx="21.242" cy="21.242" rx="21.242" ry="21.242" stroke="none"/>
        <ellipse cx="21.242" cy="21.242" rx="20.242" ry="20.242" fill="none"/>
      </g>
      <g transform="matrix(1, 0, 0, 1, -295, -1742.42)" filter="url(#Rectangle_130-2)">
        <rect id="Rectangle_130-7" data-name="Rectangle 130" width="472.998" height="76.473" transform="translate(295 1823.14)" fill="#fff"/>
      </g>
      <text id="Label-9" data-name="Label" transform="translate(124.622 126.964)" fill="#cb4042" font-size="27" font-family="Roboto-Medium, Roboto" font-weight="500"><tspan x="0" y="0">Label</tspan></text>
      <g id="Ellipse_37-2" data-name="Ellipse 37" transform="translate(392.277 97.715)" fill="#fff" stroke="#cb4042" stroke-width="2">
        <ellipse cx="21.242" cy="21.242" rx="21.242" ry="21.242" stroke="none"/>
        <ellipse cx="21.242" cy="21.242" rx="20.242" ry="20.242" fill="none"/>
      </g>
      <circle id="Ellipse_38" data-name="Ellipse 38" cx="14.162" cy="14.162" r="14.162" transform="translate(399.357 104.796)" fill="#f59c9d"/>
      <g transform="matrix(1, 0, 0, 1, -295, -1742.42)" filter="url(#Rectangle_130-3)">
        <rect id="Rectangle_130-8" data-name="Rectangle 130" width="472.998" height="76.473" transform="translate(295 1903.86)" fill="#fff"/>
      </g>
      <text id="Label-10" data-name="Label" transform="translate(124.622 207.685)" fill="#cb4042" font-size="27" font-family="Roboto-Medium, Roboto" font-weight="500"><tspan x="0" y="0">Label</tspan></text>
      <g id="Ellipse_37-3" data-name="Ellipse 37" transform="translate(392.277 178.436)" fill="#fff" stroke="#cb4042" stroke-width="2">
        <ellipse cx="21.242" cy="21.242" rx="21.242" ry="21.242" stroke="none"/>
        <ellipse cx="21.242" cy="21.242" rx="20.242" ry="20.242" fill="none"/>
      </g>
      <g transform="matrix(1, 0, 0, 1, -295, -1742.42)" filter="url(#Rectangle_130-4)">
        <rect id="Rectangle_130-9" data-name="Rectangle 130" width="472.998" height="76.473" transform="translate(295 1984.58)" fill="#fff"/>
      </g>
      <text id="Label-11" data-name="Label" transform="translate(124.622 288.406)" fill="#cb4042" font-size="27" font-family="Roboto-Medium, Roboto" font-weight="500"><tspan x="0" y="0">Label</tspan></text>
      <g id="Ellipse_37-4" data-name="Ellipse 37" transform="translate(392.277 259.158)" fill="#fff" stroke="#cb4042" stroke-width="2">
        <ellipse cx="21.242" cy="21.242" rx="21.242" ry="21.242" stroke="none"/>
        <ellipse cx="21.242" cy="21.242" rx="20.242" ry="20.242" fill="none"/>
      </g>
      <g transform="matrix(1, 0, 0, 1, -295, -1742.42)" filter="url(#Rectangle_130-5)">
        <rect id="Rectangle_130-10" data-name="Rectangle 130" width="472.998" height="76.473" transform="translate(295 2065.3)" fill="#fff"/>
      </g>
      <text id="Label-12" data-name="Label" transform="translate(124.622 369.127)" fill="#cb4042" font-size="27" font-family="Roboto-Medium, Roboto" font-weight="500"><tspan x="0" y="0">Label</tspan></text>
      <g id="Ellipse_37-5" data-name="Ellipse 37" transform="translate(392.277 339.879)" fill="#fff" stroke="#cb4042" stroke-width="2">
        <ellipse cx="21.242" cy="21.242" rx="21.242" ry="21.242" stroke="none"/>
        <ellipse cx="21.242" cy="21.242" rx="20.242" ry="20.242" fill="none"/>
      </g>
      <rect id="Rectangle_130-11" data-name="Rectangle 130" width="472.998" height="76.473" transform="translate(0 403.606)" fill="#fff"/>
      <text id="Label-13" data-name="Label" transform="translate(124.622 449.849)" fill="#cb4042" font-size="27" font-family="Roboto-Medium, Roboto" font-weight="500"><tspan x="0" y="0">Label</tspan></text>
      <g id="Ellipse_37-6" data-name="Ellipse 37" transform="translate(392.277 420.6)" fill="#fff" stroke="#cb4042" stroke-width="2">
        <ellipse cx="21.242" cy="21.242" rx="21.242" ry="21.242" stroke="none"/>
        <ellipse cx="21.242" cy="21.242" rx="20.242" ry="20.242" fill="none"/>
      </g>
      <g id="Rectangle_133" data-name="Rectangle 133" transform="translate(463.085 0)" fill="#ffe3e4" stroke="#cb4042" stroke-width="1">
        <rect width="9.913" height="480.079" stroke="none"/>
        <rect x="0.5" y="0.5" width="8.913" height="479.079" fill="none"/>
      </g>
      <rect id="Rectangle_134" data-name="Rectangle 134" width="9.913" height="143.032" transform="translate(463.085 0)" fill="#cb4042"/>
      <g id="Rectangle_132" data-name="Rectangle 132" transform="translate(0 0)" fill="none" stroke="#cb4042" stroke-width="1">
        <rect width="472.998" height="480.079" stroke="none"/>
        <rect x="0.5" y="0.5" width="471.998" height="479.079" fill="none"/>
      </g>
    </g>
    <line id="Line_837" data-name="Line 837" x2="95.457" transform="translate(1566.699 9515.432)" fill="none" stroke="#b7b7b7" stroke-width="1.5"/>
    <g id="Enabled-2" data-name="Enabled" transform="translate(1628.618 9402.499)">
      <g id="Container">
        <g id="Light_Elevation_02dp" data-name="Light 🌕/Elevation/02dp">
          <g id="Shadow" style="mix-blend-mode: multiply;isolation: isolate">
            <g transform="matrix(1, 0, 0, 1, -1783.62, -1699.5)" filter="url(#Rectangle)">
              <rect id="Rectangle-4" data-name="Rectangle" width="91" height="40" rx="4" transform="translate(1783.62 1699.5)" fill="#f59c9d"/>
            </g>
            <g transform="matrix(1, 0, 0, 1, -1783.62, -1699.5)" filter="url(#Rectangle-2)">
              <rect id="Rectangle-5" data-name="Rectangle" width="91" height="40" rx="4" transform="translate(1783.62 1699.5)" fill="#f59c9d"/>
            </g>
            <g transform="matrix(1, 0, 0, 1, -1783.62, -1699.5)" filter="url(#Rectangle-3)">
              <rect id="Rectangle-6" data-name="Rectangle" width="91" height="40" rx="4" transform="translate(1783.62 1699.5)" fill="#f59c9d"/>
            </g>
          </g>
        </g>
        <rect id="_Color" data-name="↳ 🎨 Color" width="91" height="40" rx="4" fill="#f59c9d"/>
        <g id="_States" data-name="↳ 💡States">
          <rect id="States_Light_Primary_Container_100_Overlay" data-name="States/Light 🌕/Primary Container 100%/Overlay" width="91" height="40" rx="4" fill="#f59c9d"/>
        </g>
      </g>
      <text id="_Label" data-name="↳ ✏️ Label" transform="translate(16 27)" fill="#fff" font-size="21" font-family="Roboto-Medium, Roboto" font-weight="500" letter-spacing="0.089em"><tspan x="0" y="0">Lable</tspan></text>
    </g>
    <line id="Line_838" data-name="Line 838" x2="1640.5" transform="translate(140 9028.169)" fill="none" stroke="#707070" stroke-width="1"/>
  </g>
</svg>
